ISO-10303-21;
HEADER;
FILE_DESCRIPTION(('Open CASCADE Model'),'2;1');
FILE_NAME('Open CASCADE Shape Model','2026-10-07T23:04:51',('Author'),(
    'Open CASCADE'),'Open CASCADE STEP processor 7.8','Open CASCADE 7.8'
  ,'Unknown');
FILE_SCHEMA(('AUTOMOTIVE_DESIGN { 1 0 10303 214 1 1 1 1 }'));
ENDSEC;
DATA;
#1 = APPLICATION_PROTOCOL_DEFINITION('international standard',
  'automotive_design',2000,#2);
#2 = APPLICATION_CONTEXT(
  'core data for automotive mechanical design processes');
#3 = SHAPE_DEFINITION_REPRESENTATION(#4,#10);
#4 = PRODUCT_DEFINITION_SHAPE('','',#5);
#5 = PRODUCT_DEFINITION('design','',#6,#9);
#6 = PRODUCT_DEFINITION_FORMATION('','',#7);
#7 = PRODUCT('Open CASCADE STEP translator 7.8 11',
  'Open CASCADE STEP translator 7.8 11','',(#8));
#8 = PRODUCT_CONTEXT('',#2,'mechanical');
#9 = PRODUCT_DEFINITION_CONTEXT('part definition',#2,'design');
#10 = ADVANCED_BREP_SHAPE_REPRESENTATION('',(#11,#15),#1299);
#11 = AXIS2_PLACEMENT_3D('',#12,#13,#14);
#12 = CARTESIAN_POINT('',(0.,0.,0.));
#13 = DIRECTION('',(0.,0.,1.));
#14 = DIRECTION('',(1.,0.,-0.));
#15 = MANIFOLD_SOLID_BREP('',#16);
#16 = CLOSED_SHELL('',(#17,#109,#144,#179,#621,#676,#913,#943,#982,#1062
    ,#1112,#1181,#1236,#1291,#1295));
#17 = ADVANCED_FACE('',(#18),#31,.T.);
#18 = FACE_BOUND('',#19,.F.);
#19 = EDGE_LOOP('',(#20,#54,#77,#108));
#20 = ORIENTED_EDGE('',*,*,#21,.F.);
#21 = EDGE_CURVE('',#22,#22,#24,.T.);
#22 = VERTEX_POINT('',#23);
#23 = CARTESIAN_POINT('',(-4.,62.5,42.5));
#24 = SURFACE_CURVE('',#25,(#30,#42),.PCURVE_S1.);
#25 = CIRCLE('',#26,15.);
#26 = AXIS2_PLACEMENT_3D('',#27,#28,#29);
#27 = CARTESIAN_POINT('',(-4.,47.5,42.5));
#28 = DIRECTION('',(1.,0.,0.));
#29 = DIRECTION('',(0.,1.,0.));
#30 = PCURVE('',#31,#36);
#31 = CYLINDRICAL_SURFACE('',#32,15.);
#32 = AXIS2_PLACEMENT_3D('',#33,#34,#35);
#33 = CARTESIAN_POINT('',(-4.,47.5,42.5));
#34 = DIRECTION('',(-1.,-0.,-0.));
#35 = DIRECTION('',(0.,1.,0.));
#36 = DEFINITIONAL_REPRESENTATION('',(#37),#41);
#37 = LINE('',#38,#39);
#38 = CARTESIAN_POINT('',(-0.,0.));
#39 = VECTOR('',#40,1.);
#40 = DIRECTION('',(-1.,0.));
#41 = ( GEOMETRIC_REPRESENTATION_CONTEXT(2) 
PARAMETRIC_REPRESENTATION_CONTEXT() REPRESENTATION_CONTEXT('2D SPACE',''
  ) );
#42 = PCURVE('',#43,#48);
#43 = PLANE('',#44);
#44 = AXIS2_PLACEMENT_3D('',#45,#46,#47);
#45 = CARTESIAN_POINT('',(-4.,47.5,42.5));
#46 = DIRECTION('',(1.,0.,0.));
#47 = DIRECTION('',(-0.,0.,1.));
#48 = DEFINITIONAL_REPRESENTATION('',(#49),#53);
#49 = CIRCLE('',#50,15.);
#50 = AXIS2_PLACEMENT_2D('',#51,#52);
#51 = CARTESIAN_POINT('',(0.,0.));
#52 = DIRECTION('',(0.,-1.));
#53 = ( GEOMETRIC_REPRESENTATION_CONTEXT(2) 
PARAMETRIC_REPRESENTATION_CONTEXT() REPRESENTATION_CONTEXT('2D SPACE',''
  ) );
#54 = ORIENTED_EDGE('',*,*,#55,.T.);
#55 = EDGE_CURVE('',#22,#56,#58,.T.);
#56 = VERTEX_POINT('',#57);
#57 = CARTESIAN_POINT('',(-3.,62.5,42.5));
#58 = SEAM_CURVE('',#59,(#63,#70),.PCURVE_S1.);
#59 = LINE('',#60,#61);
#60 = CARTESIAN_POINT('',(-4.,62.5,42.5));
#61 = VECTOR('',#62,1.);
#62 = DIRECTION('',(1.,0.,0.));
#63 = PCURVE('',#31,#64);
#64 = DEFINITIONAL_REPRESENTATION('',(#65),#69);
#65 = LINE('',#66,#67);
#66 = CARTESIAN_POINT('',(-6.28318530718,0.));
#67 = VECTOR('',#68,1.);
#68 = DIRECTION('',(-0.,-1.));
#69 = ( GEOMETRIC_REPRESENTATION_CONTEXT(2) 
PARAMETRIC_REPRESENTATION_CONTEXT() REPRESENTATION_CONTEXT('2D SPACE',''
  ) );
#70 = PCURVE('',#31,#71);
#71 = DEFINITIONAL_REPRESENTATION('',(#72),#76);
#72 = LINE('',#73,#74);
#73 = CARTESIAN_POINT('',(-0.,0.));
#74 = VECTOR('',#75,1.);
#75 = DIRECTION('',(-0.,-1.));
#76 = ( GEOMETRIC_REPRESENTATION_CONTEXT(2) 
PARAMETRIC_REPRESENTATION_CONTEXT() REPRESENTATION_CONTEXT('2D SPACE',''
  ) );
#77 = ORIENTED_EDGE('',*,*,#78,.F.);
#78 = EDGE_CURVE('',#56,#56,#79,.T.);
#79 = SURFACE_CURVE('',#80,(#85,#92),.PCURVE_S1.);
#80 = CIRCLE('',#81,15.);
#81 = AXIS2_PLACEMENT_3D('',#82,#83,#84);
#82 = CARTESIAN_POINT('',(-3.,47.5,42.5));
#83 = DIRECTION('',(-1.,0.,0.));
#84 = DIRECTION('',(0.,1.,0.));
#85 = PCURVE('',#31,#86);
#86 = DEFINITIONAL_REPRESENTATION('',(#87),#91);
#87 = LINE('',#88,#89);
#88 = CARTESIAN_POINT('',(-6.28318530718,-1.));
#89 = VECTOR('',#90,1.);
#90 = DIRECTION('',(1.,-0.));
#91 = ( GEOMETRIC_REPRESENTATION_CONTEXT(2) 
PARAMETRIC_REPRESENTATION_CONTEXT() REPRESENTATION_CONTEXT('2D SPACE',''
  ) );
#92 = PCURVE('',#93,#98);
#93 = PLANE('',#94);
#94 = AXIS2_PLACEMENT_3D('',#95,#96,#97);
#95 = CARTESIAN_POINT('',(-3.,47.5,42.5));
#96 = DIRECTION('',(1.,0.,0.));
#97 = DIRECTION('',(-0.,0.,1.));
#98 = DEFINITIONAL_REPRESENTATION('',(#99),#107);
#99 = ( BOUNDED_CURVE() B_SPLINE_CURVE(2,(#100,#101,#102,#103,#104,#105,
#106),.UNSPECIFIED.,.T.,.F.) B_SPLINE_CURVE_WITH_KNOTS((1,2,2,2,2,1),(
    -2.094395102393,0.,2.094395102393,4.188790204786,6.28318530718,
8.377580409573),.UNSPECIFIED.) CURVE() GEOMETRIC_REPRESENTATION_ITEM() 
RATIONAL_B_SPLINE_CURVE((1.,0.5,1.,0.5,1.,0.5,1.)) REPRESENTATION_ITEM(
  '') );
#100 = CARTESIAN_POINT('',(0.,-15.));
#101 = CARTESIAN_POINT('',(-25.98076211353,-15.));
#102 = CARTESIAN_POINT('',(-12.99038105676,7.5));
#103 = CARTESIAN_POINT('',(-3.673940397442E-15,30.));
#104 = CARTESIAN_POINT('',(12.990381056767,7.5));
#105 = CARTESIAN_POINT('',(25.980762113533,-15.));
#106 = CARTESIAN_POINT('',(0.,-15.));
#107 = ( GEOMETRIC_REPRESENTATION_CONTEXT(2) 
PARAMETRIC_REPRESENTATION_CONTEXT() REPRESENTATION_CONTEXT('2D SPACE',''
  ) );
#108 = ORIENTED_EDGE('',*,*,#55,.F.);
#109 = ADVANCED_FACE('',(#110,#113),#43,.F.);
#110 = FACE_BOUND('',#111,.F.);
#111 = EDGE_LOOP('',(#112));
#112 = ORIENTED_EDGE('',*,*,#21,.T.);
#113 = FACE_BOUND('',#114,.F.);
#114 = EDGE_LOOP('',(#115));
#115 = ORIENTED_EDGE('',*,*,#116,.F.);
#116 = EDGE_CURVE('',#117,#117,#119,.T.);
#117 = VERTEX_POINT('',#118);
#118 = CARTESIAN_POINT('',(-4.,50.,42.5));
#119 = SURFACE_CURVE('',#120,(#125,#132),.PCURVE_S1.);
#120 = CIRCLE('',#121,2.5);
#121 = AXIS2_PLACEMENT_3D('',#122,#123,#124);
#122 = CARTESIAN_POINT('',(-4.,47.5,42.5));
#123 = DIRECTION('',(1.,0.,0.));
#124 = DIRECTION('',(0.,1.,0.));
#125 = PCURVE('',#43,#126);
#126 = DEFINITIONAL_REPRESENTATION('',(#127),#131);
#127 = CIRCLE('',#128,2.5);
#128 = AXIS2_PLACEMENT_2D('',#129,#130);
#129 = CARTESIAN_POINT('',(0.,0.));
#130 = DIRECTION('',(0.,-1.));
#131 = ( GEOMETRIC_REPRESENTATION_CONTEXT(2) 
PARAMETRIC_REPRESENTATION_CONTEXT() REPRESENTATION_CONTEXT('2D SPACE',''
  ) );
#132 = PCURVE('',#133,#138);
#133 = CYLINDRICAL_SURFACE('',#134,2.5);
#134 = AXIS2_PLACEMENT_3D('',#135,#136,#137);
#135 = CARTESIAN_POINT('',(-4.,47.5,42.5));
#136 = DIRECTION('',(-1.,-0.,-0.));
#137 = DIRECTION('',(0.,1.,0.));
#138 = DEFINITIONAL_REPRESENTATION('',(#139),#143);
#139 = LINE('',#140,#141);
#140 = CARTESIAN_POINT('',(-0.,0.));
#141 = VECTOR('',#142,1.);
#142 = DIRECTION('',(-1.,0.));
#143 = ( GEOMETRIC_REPRESENTATION_CONTEXT(2) 
PARAMETRIC_REPRESENTATION_CONTEXT() REPRESENTATION_CONTEXT('2D SPACE',''
  ) );
#144 = ADVANCED_FACE('',(#145,#148),#93,.T.);
#145 = FACE_BOUND('',#146,.T.);
#146 = EDGE_LOOP('',(#147));
#147 = ORIENTED_EDGE('',*,*,#78,.F.);
#148 = FACE_BOUND('',#149,.T.);
#149 = EDGE_LOOP('',(#150));
#150 = ORIENTED_EDGE('',*,*,#151,.F.);
#151 = EDGE_CURVE('',#152,#152,#154,.T.);
#152 = VERTEX_POINT('',#153);
#153 = CARTESIAN_POINT('',(-3.,61.,42.5));
#154 = SURFACE_CURVE('',#155,(#160,#167),.PCURVE_S1.);
#155 = CIRCLE('',#156,13.5);
#156 = AXIS2_PLACEMENT_3D('',#157,#158,#159);
#157 = CARTESIAN_POINT('',(-3.,47.5,42.5));
#158 = DIRECTION('',(1.,0.,0.));
#159 = DIRECTION('',(0.,1.,0.));
#160 = PCURVE('',#93,#161);
#161 = DEFINITIONAL_REPRESENTATION('',(#162),#166);
#162 = CIRCLE('',#163,13.5);
#163 = AXIS2_PLACEMENT_2D('',#164,#165);
#164 = CARTESIAN_POINT('',(0.,-7.105427357601E-15));
#165 = DIRECTION('',(0.,-1.));
#166 = ( GEOMETRIC_REPRESENTATION_CONTEXT(2) 
PARAMETRIC_REPRESENTATION_CONTEXT() REPRESENTATION_CONTEXT('2D SPACE',''
  ) );
#167 = PCURVE('',#168,#173);
#168 = CYLINDRICAL_SURFACE('',#169,13.5);
#169 = AXIS2_PLACEMENT_3D('',#170,#171,#172);
#170 = CARTESIAN_POINT('',(-3.,47.5,42.5));
#171 = DIRECTION('',(-1.,-0.,-0.));
#172 = DIRECTION('',(0.,1.,0.));
#173 = DEFINITIONAL_REPRESENTATION('',(#174),#178);
#174 = LINE('',#175,#176);
#175 = CARTESIAN_POINT('',(-0.,0.));
#176 = VECTOR('',#177,1.);
#177 = DIRECTION('',(-1.,0.));
#178 = ( GEOMETRIC_REPRESENTATION_CONTEXT(2) 
PARAMETRIC_REPRESENTATION_CONTEXT() REPRESENTATION_CONTEXT('2D SPACE',''
  ) );
#179 = ADVANCED_FACE('',(#180),#133,.F.);
#180 = FACE_BOUND('',#181,.T.);
#181 = EDGE_LOOP('',(#182,#205,#206,#207,#292,#387,#410,#437,#438));
#182 = ORIENTED_EDGE('',*,*,#183,.F.);
#183 = EDGE_CURVE('',#117,#184,#186,.T.);
#184 = VERTEX_POINT('',#185);
#185 = CARTESIAN_POINT('',(4.75,50.,42.5));
#186 = SEAM_CURVE('',#187,(#191,#198),.PCURVE_S1.);
#187 = LINE('',#188,#189);
#188 = CARTESIAN_POINT('',(-4.,50.,42.5));
#189 = VECTOR('',#190,1.);
#190 = DIRECTION('',(1.,0.,0.));
#191 = PCURVE('',#133,#192);
#192 = DEFINITIONAL_REPRESENTATION('',(#193),#197);
#193 = LINE('',#194,#195);
#194 = CARTESIAN_POINT('',(-6.28318530718,0.));
#195 = VECTOR('',#196,1.);
#196 = DIRECTION('',(-0.,-1.));
#197 = ( GEOMETRIC_REPRESENTATION_CONTEXT(2) 
PARAMETRIC_REPRESENTATION_CONTEXT() REPRESENTATION_CONTEXT('2D SPACE',''
  ) );
#198 = PCURVE('',#133,#199);
#199 = DEFINITIONAL_REPRESENTATION('',(#200),#204);
#200 = LINE('',#201,#202);
#201 = CARTESIAN_POINT('',(-0.,0.));
#202 = VECTOR('',#203,1.);
#203 = DIRECTION('',(-0.,-1.));
#204 = ( GEOMETRIC_REPRESENTATION_CONTEXT(2) 
PARAMETRIC_REPRESENTATION_CONTEXT() REPRESENTATION_CONTEXT('2D SPACE',''
  ) );
#205 = ORIENTED_EDGE('',*,*,#116,.F.);
#206 = ORIENTED_EDGE('',*,*,#183,.T.);
#207 = ORIENTED_EDGE('',*,*,#208,.T.);
#208 = EDGE_CURVE('',#184,#209,#211,.T.);
#209 = VERTEX_POINT('',#210);
#210 = CARTESIAN_POINT('',(6.,49.665063509461,43.75));
#211 = SURFACE_CURVE('',#212,(#235,#261),.PCURVE_S1.);
#212 = B_SPLINE_CURVE_WITH_KNOTS('',6,(#213,#214,#215,#216,#217,#218,
    #219,#220,#221,#222,#223,#224,#225,#226,#227,#228,#229,#230,#231,
    #232,#233,#234),.UNSPECIFIED.,.F.,.F.,(7,5,5,5,7),(0.,0.26769731116,
    0.373729729018,0.640341580768,1.),.UNSPECIFIED.);
#213 = CARTESIAN_POINT('',(4.75,50.,42.5));
#214 = CARTESIAN_POINT('',(4.75,50.,42.599147089257));
#215 = CARTESIAN_POINT('',(4.75943693108,49.995281423187,42.697811340124
    ));
#216 = CARTESIAN_POINT('',(4.778138500248,49.98593116838,42.794488328996
    ));
#217 = CARTESIAN_POINT('',(4.80551342961,49.972442753507,42.887708834277
    ));
#218 = CARTESIAN_POINT('',(4.840556825686,49.955700953956,
    42.976128694494));
#219 = CARTESIAN_POINT('',(4.898103880468,49.929293029812,
    43.091320207657));
#220 = CARTESIAN_POINT('',(4.915439408964,49.921441380503,43.12315373428
    ));
#221 = CARTESIAN_POINT('',(4.933727277616,49.913282034344,
    43.154117083357));
#222 = CARTESIAN_POINT('',(4.952912263721,49.904866494201,
    43.184190723997));
#223 = CARTESIAN_POINT('',(4.972940195645,49.896246115479,
    43.213357834663));
#224 = CARTESIAN_POINT('',(5.046102895062,49.865410410949,
    43.312628273257));
#225 = CARTESIAN_POINT('',(5.103441055226,49.842376749595,
    43.377831262095));
#226 = CARTESIAN_POINT('',(5.165044940674,49.81913022745,43.437148526078
    ));
#227 = CARTESIAN_POINT('',(5.230320418439,49.796376303975,
    43.490563791711));
#228 = CARTESIAN_POINT('',(5.298779528629,49.774759765741,43.53807121248
    ));
#229 = CARTESIAN_POINT('',(5.466107393694,49.7280098844,43.635709861475)
  );
#230 = CARTESIAN_POINT('',(5.567565595965,49.704194445425,
    43.681153639552));
#231 = CARTESIAN_POINT('',(5.672927925691,49.685007470582,
    43.715456772893));
#232 = CARTESIAN_POINT('',(5.780889641426,49.671734718581,
    43.738444931046));
#233 = CARTESIAN_POINT('',(5.890286908923,49.665063509461,43.75));
#234 = CARTESIAN_POINT('',(6.,49.665063509461,43.75));
#235 = PCURVE('',#133,#236);
#236 = DEFINITIONAL_REPRESENTATION('',(#237),#260);
#237 = B_SPLINE_CURVE_WITH_KNOTS('',6,(#238,#239,#240,#241,#242,#243,
    #244,#245,#246,#247,#248,#249,#250,#251,#252,#253,#254,#255,#256,
    #257,#258,#259),.UNSPECIFIED.,.F.,.F.,(7,5,5,5,7),(0.,0.26769731116,
    0.373729729018,0.640341580768,1.),.UNSPECIFIED.);
#238 = CARTESIAN_POINT('',(0.,-8.75));
#239 = CARTESIAN_POINT('',(-3.965883570277E-02,-8.75));
#240 = CARTESIAN_POINT('',(-7.912460894166E-02,-8.75943693108));
#241 = CARTESIAN_POINT('',(-0.117907324759,-8.778138500248));
#242 = CARTESIAN_POINT('',(-0.155527856481,-8.80551342961));
#243 = CARTESIAN_POINT('',(-0.191497973547,-8.840556825686));
#244 = CARTESIAN_POINT('',(-0.23876989022,-8.898103880468));
#245 = CARTESIAN_POINT('',(-0.251883135336,-8.915439408964));
#246 = CARTESIAN_POINT('',(-0.264688933583,-8.933727277616));
#247 = CARTESIAN_POINT('',(-0.277178459322,-8.952912263721));
#248 = CARTESIAN_POINT('',(-0.289343040914,-8.972940195645));
#249 = CARTESIAN_POINT('',(-0.330922767998,-9.046102895062));
#250 = CARTESIAN_POINT('',(-0.358563106894,-9.103441055226));
#251 = CARTESIAN_POINT('',(-0.384027811292,-9.165044940674));
#252 = CARTESIAN_POINT('',(-0.407240646307,-9.230320418439));
#253 = CARTESIAN_POINT('',(-0.42811433087,-9.298779528629));
#254 = CARTESIAN_POINT('',(-0.471415799081,-9.466107393694));
#255 = CARTESIAN_POINT('',(-0.491924638604,-9.567565595965));
#256 = CARTESIAN_POINT('',(-0.507643335507,-9.672927925691));
#257 = CARTESIAN_POINT('',(-0.518261880491,-9.780889641426));
#258 = CARTESIAN_POINT('',(-0.523598775598,-9.890286908923));
#259 = CARTESIAN_POINT('',(-0.523598775598,-10.));
#260 = ( GEOMETRIC_REPRESENTATION_CONTEXT(2) 
PARAMETRIC_REPRESENTATION_CONTEXT() REPRESENTATION_CONTEXT('2D SPACE',''
  ) );
#261 = PCURVE('',#262,#267);
#262 = CYLINDRICAL_SURFACE('',#263,1.25);
#263 = AXIS2_PLACEMENT_3D('',#264,#265,#266);
#264 = CARTESIAN_POINT('',(6.,47.5,42.5));
#265 = DIRECTION('',(0.,1.,0.));
#266 = DIRECTION('',(0.,-0.,1.));
#267 = DEFINITIONAL_REPRESENTATION('',(#268),#291);
#268 = B_SPLINE_CURVE_WITH_KNOTS('',6,(#269,#270,#271,#272,#273,#274,
    #275,#276,#277,#278,#279,#280,#281,#282,#283,#284,#285,#286,#287,
    #288,#289,#290),.UNSPECIFIED.,.F.,.F.,(7,5,5,5,7),(0.,0.26769731116,
    0.373729729018,0.640341580768,1.),.UNSPECIFIED.);
#269 = CARTESIAN_POINT('',(4.712388980385,2.5));
#270 = CARTESIAN_POINT('',(4.79170665179,2.5));
#271 = CARTESIAN_POINT('',(4.870637918569,2.495281423187));
#272 = CARTESIAN_POINT('',(4.94887839761,2.48593116838));
#273 = CARTESIAN_POINT('',(5.02610384008,2.472442753507));
#274 = CARTESIAN_POINT('',(5.101911545163,2.455700953956));
#275 = CARTESIAN_POINT('',(5.204924548517,2.429293029812));
#276 = CARTESIAN_POINT('',(5.233904633365,2.421441380503));
#277 = CARTESIAN_POINT('',(5.262647255078,2.413282034344));
#278 = CARTESIAN_POINT('',(5.291159995154,2.404866494201));
#279 = CARTESIAN_POINT('',(5.319449316384,2.396246115479));
#280 = CARTESIAN_POINT('',(5.418103948112,2.365410410949));
#281 = CARTESIAN_POINT('',(5.487308909652,2.342376749595));
#282 = CARTESIAN_POINT('',(5.555379690401,2.31913022745));
#283 = CARTESIAN_POINT('',(5.622537097528,2.296376303975));
#284 = CARTESIAN_POINT('',(5.688994504814,2.274759765741));
#285 = CARTESIAN_POINT('',(5.84397975873,2.2280098844));
#286 = CARTESIAN_POINT('',(5.932406451267,2.204194445425));
#287 = CARTESIAN_POINT('',(6.020309531702,2.185007470582));
#288 = CARTESIAN_POINT('',(6.107897317478,2.171734718582));
#289 = CARTESIAN_POINT('',(6.195414834318,2.165063509461));
#290 = CARTESIAN_POINT('',(6.28318530718,2.165063509461));
#291 = ( GEOMETRIC_REPRESENTATION_CONTEXT(2) 
PARAMETRIC_REPRESENTATION_CONTEXT() REPRESENTATION_CONTEXT('2D SPACE',''
  ) );
#292 = ORIENTED_EDGE('',*,*,#293,.T.);
#293 = EDGE_CURVE('',#209,#294,#296,.T.);
#294 = VERTEX_POINT('',#295);
#295 = CARTESIAN_POINT('',(7.25,50.,42.5));
#296 = SURFACE_CURVE('',#297,(#325,#356),.PCURVE_S1.);
#297 = B_SPLINE_CURVE_WITH_KNOTS('',6,(#298,#299,#300,#301,#302,#303,
    #304,#305,#306,#307,#308,#309,#310,#311,#312,#313,#314,#315,#316,
    #317,#318,#319,#320,#321,#322,#323,#324),.UNSPECIFIED.,.F.,.F.,(7,5,
    5,5,5,7),(0.,0.359861014519,0.549638214709,0.623560239035,
    0.732165285402,1.),.UNSPECIFIED.);
#298 = CARTESIAN_POINT('',(6.,49.665063509461,43.75));
#299 = CARTESIAN_POINT('',(6.109782753498,49.665063509461,43.75));
#300 = CARTESIAN_POINT('',(6.219248674521,49.671743191749,
    43.738430253988));
#301 = CARTESIAN_POINT('',(6.32727628922,49.685032625454,43.715413207277
    ));
#302 = CARTESIAN_POINT('',(6.432699881574,49.704242793307,
    43.681067175803));
#303 = CARTESIAN_POINT('',(6.534212388806,49.728084933557,
    43.635566688918));
#304 = CARTESIAN_POINT('',(6.681051030004,49.769132187732,
    43.549817396669));
#305 = CARTESIAN_POINT('',(6.730342899594,49.784172235934,
    43.517200425499));
#306 = CARTESIAN_POINT('',(6.778080966723,49.799872000666,
    43.481584452011));
#307 = CARTESIAN_POINT('',(6.82409663237,49.816005571603,43.442975368841
    ));
#308 = CARTESIAN_POINT('',(6.868196218923,49.832331080451,
    43.401378484654));
#309 = CARTESIAN_POINT('',(6.926504013353,49.854927311681,
    43.339439669425));
#310 = CARTESIAN_POINT('',(6.942524962778,49.861251978045,
    43.321624668402));
#311 = CARTESIAN_POINT('',(6.958208350682,49.867551789775,43.30335836967
    ));
#312 = CARTESIAN_POINT('',(6.973539941316,49.87381111905,43.284642035333
    ));
#313 = CARTESIAN_POINT('',(6.988504522422,49.880013896499,
    43.265477611315));
#314 = CARTESIAN_POINT('',(7.024508637782,49.895149289221,
    43.217057202007));
#315 = CARTESIAN_POINT('',(7.045108231683,49.903999092432,
    43.187279861031));
#316 = CARTESIAN_POINT('',(7.064827858555,49.912638101288,
    43.156550532795));
#317 = CARTESIAN_POINT('',(7.083609499466,49.921011212946,
    43.124887008339));
#318 = CARTESIAN_POINT('',(7.101393944933,49.929063141271,
    43.092310041381));
#319 = CARTESIAN_POINT('',(7.159371466454,49.955666683121,
    42.976309962564));
#320 = CARTESIAN_POINT('',(7.194441806878,49.972420704751,
    42.887861298011));
#321 = CARTESIAN_POINT('',(7.221838283265,49.985919563459,
    42.794607435196));
#322 = CARTESIAN_POINT('',(7.240555033862,49.995277404708,
    42.697893456708));
#323 = CARTESIAN_POINT('',(7.25,50.,42.599189289977));
#324 = CARTESIAN_POINT('',(7.25,50.,42.5));
#325 = PCURVE('',#133,#326);
#326 = DEFINITIONAL_REPRESENTATION('',(#327),#355);
#327 = B_SPLINE_CURVE_WITH_KNOTS('',6,(#328,#329,#330,#331,#332,#333,
    #334,#335,#336,#337,#338,#339,#340,#341,#342,#343,#344,#345,#346,
    #347,#348,#349,#350,#351,#352,#353,#354),.UNSPECIFIED.,.F.,.F.,(7,5,
    5,5,5,7),(0.,0.359861014519,0.549638214709,0.623560239035,
    0.732165285402,1.),.UNSPECIFIED.);
#328 = CARTESIAN_POINT('',(-0.523598775598,-10.));
#329 = CARTESIAN_POINT('',(-0.523598775598,-10.10978275349));
#330 = CARTESIAN_POINT('',(-0.51825510227,-10.21924867452));
#331 = CARTESIAN_POINT('',(-0.507623210523,-10.32727628922));
#332 = CARTESIAN_POINT('',(-0.491885022183,-10.43269988157));
#333 = CARTESIAN_POINT('',(-0.471351181654,-10.5342123888));
#334 = CARTESIAN_POINT('',(-0.433324205552,-10.68105103));
#335 = CARTESIAN_POINT('',(-0.418958678353,-10.73034289959));
#336 = CARTESIAN_POINT('',(-0.403393115858,-10.77808096672));
#337 = CARTESIAN_POINT('',(-0.386660757814,-10.82409663237));
#338 = CARTESIAN_POINT('',(-0.368791655808,-10.86819621892));
#339 = CARTESIAN_POINT('',(-0.342418922927,-10.92650401335));
#340 = CARTESIAN_POINT('',(-0.334857451138,-10.94252496277));
#341 = CARTESIAN_POINT('',(-0.327129079683,-10.95820835068));
#342 = CARTESIAN_POINT('',(-0.319235525056,-10.97353994131));
#343 = CARTESIAN_POINT('',(-0.311178638396,-10.98850452242));
#344 = CARTESIAN_POINT('',(-0.290886310188,-11.02450863778));
#345 = CARTESIAN_POINT('',(-0.27846169119,-11.04510823168));
#346 = CARTESIAN_POINT('',(-0.265695632402,-11.06482785855));
#347 = CARTESIAN_POINT('',(-0.252597383552,-11.08360949946));
#348 = CARTESIAN_POINT('',(-0.23917636018,-11.10139394493));
#349 = CARTESIAN_POINT('',(-0.19157171045,-11.15937146645));
#350 = CARTESIAN_POINT('',(-0.15558938542,-11.19444180687));
#351 = CARTESIAN_POINT('',(-0.117955110664,-11.22183828326));
#352 = CARTESIAN_POINT('',(-7.915745563888E-02,-11.24055503386));
#353 = CARTESIAN_POINT('',(-3.967571599079E-02,-11.25));
#354 = CARTESIAN_POINT('',(0.,-11.25));
#355 = ( GEOMETRIC_REPRESENTATION_CONTEXT(2) 
PARAMETRIC_REPRESENTATION_CONTEXT() REPRESENTATION_CONTEXT('2D SPACE',''
  ) );
#356 = PCURVE('',#262,#357);
#357 = DEFINITIONAL_REPRESENTATION('',(#358),#386);
#358 = B_SPLINE_CURVE_WITH_KNOTS('',6,(#359,#360,#361,#362,#363,#364,
    #365,#366,#367,#368,#369,#370,#371,#372,#373,#374,#375,#376,#377,
    #378,#379,#380,#381,#382,#383,#384,#385),.UNSPECIFIED.,.F.,.F.,(7,5,
    5,5,5,7),(0.,0.359861014519,0.549638214709,0.623560239035,
    0.732165285402,1.),.UNSPECIFIED.);
#359 = CARTESIAN_POINT('',(0.,2.165063509461));
#360 = CARTESIAN_POINT('',(8.782620279837E-02,2.165063509461));
#361 = CARTESIAN_POINT('',(0.175398641459,2.171743191749));
#362 = CARTESIAN_POINT('',(0.263041470111,2.185032625454));
#363 = CARTESIAN_POINT('',(0.351000357192,2.204242793307));
#364 = CARTESIAN_POINT('',(0.439484228778,2.228084933557));
#365 = CARTESIAN_POINT('',(0.575518407237,2.269132187732));
#366 = CARTESIAN_POINT('',(0.622729259643,2.284172235934));
#367 = CARTESIAN_POINT('',(0.670263174747,2.299872000666));
#368 = CARTESIAN_POINT('',(0.718197258246,2.316005571603));
#369 = CARTESIAN_POINT('',(0.766609710496,2.332331080451));
#370 = CARTESIAN_POINT('',(0.834662469902,2.354927311681));
#371 = CARTESIAN_POINT('',(0.853824901596,2.361251978045));
#372 = CARTESIAN_POINT('',(0.873077574653,2.367551789775));
#373 = CARTESIAN_POINT('',(0.892425040391,2.37381111905));
#374 = CARTESIAN_POINT('',(0.911871562832,2.380013896499));
#375 = CARTESIAN_POINT('',(0.960143011025,2.395149289221));
#376 = CARTESIAN_POINT('',(0.989092714742,2.403999092432));
#377 = CARTESIAN_POINT('',(1.018276032129,2.412638101288));
#378 = CARTESIAN_POINT('',(1.04769998789,2.421011212946));
#379 = CARTESIAN_POINT('',(1.077372829164,2.429063141271));
#380 = CARTESIAN_POINT('',(1.181118398822,2.455666683121));
#381 = CARTESIAN_POINT('',(1.256955154741,2.472420704751));
#382 = CARTESIAN_POINT('',(1.334210476035,2.485919563459));
#383 = CARTESIAN_POINT('',(1.412481695683,2.495277404708));
#384 = CARTESIAN_POINT('',(1.491444894813,2.5));
#385 = CARTESIAN_POINT('',(1.570796326795,2.5));
#386 = ( GEOMETRIC_REPRESENTATION_CONTEXT(2) 
PARAMETRIC_REPRESENTATION_CONTEXT() REPRESENTATION_CONTEXT('2D SPACE',''
  ) );
#387 = ORIENTED_EDGE('',*,*,#388,.T.);
#388 = EDGE_CURVE('',#294,#389,#391,.T.);
#389 = VERTEX_POINT('',#390);
#390 = CARTESIAN_POINT('',(9.,50.,42.5));
#391 = SEAM_CURVE('',#392,(#396,#403),.PCURVE_S1.);
#392 = LINE('',#393,#394);
#393 = CARTESIAN_POINT('',(-4.,50.,42.5));
#394 = VECTOR('',#395,1.);
#395 = DIRECTION('',(1.,0.,0.));
#396 = PCURVE('',#133,#397);
#397 = DEFINITIONAL_REPRESENTATION('',(#398),#402);
#398 = LINE('',#399,#400);
#399 = CARTESIAN_POINT('',(-6.28318530718,0.));
#400 = VECTOR('',#401,1.);
#401 = DIRECTION('',(-0.,-1.));
#402 = ( GEOMETRIC_REPRESENTATION_CONTEXT(2) 
PARAMETRIC_REPRESENTATION_CONTEXT() REPRESENTATION_CONTEXT('2D SPACE',''
  ) );
#403 = PCURVE('',#133,#404);
#404 = DEFINITIONAL_REPRESENTATION('',(#405),#409);
#405 = LINE('',#406,#407);
#406 = CARTESIAN_POINT('',(-0.,0.));
#407 = VECTOR('',#408,1.);
#408 = DIRECTION('',(-0.,-1.));
#409 = ( GEOMETRIC_REPRESENTATION_CONTEXT(2) 
PARAMETRIC_REPRESENTATION_CONTEXT() REPRESENTATION_CONTEXT('2D SPACE',''
  ) );
#410 = ORIENTED_EDGE('',*,*,#411,.T.);
#411 = EDGE_CURVE('',#389,#389,#412,.T.);
#412 = SURFACE_CURVE('',#413,(#418,#425),.PCURVE_S1.);
#413 = CIRCLE('',#414,2.5);
#414 = AXIS2_PLACEMENT_3D('',#415,#416,#417);
#415 = CARTESIAN_POINT('',(9.,47.5,42.5));
#416 = DIRECTION('',(1.,0.,0.));
#417 = DIRECTION('',(0.,1.,0.));
#418 = PCURVE('',#133,#419);
#419 = DEFINITIONAL_REPRESENTATION('',(#420),#424);
#420 = LINE('',#421,#422);
#421 = CARTESIAN_POINT('',(-0.,-13.));
#422 = VECTOR('',#423,1.);
#423 = DIRECTION('',(-1.,0.));
#424 = ( GEOMETRIC_REPRESENTATION_CONTEXT(2) 
PARAMETRIC_REPRESENTATION_CONTEXT() REPRESENTATION_CONTEXT('2D SPACE',''
  ) );
#425 = PCURVE('',#426,#431);
#426 = PLANE('',#427);
#427 = AXIS2_PLACEMENT_3D('',#428,#429,#430);
#428 = CARTESIAN_POINT('',(9.,47.5,42.5));
#429 = DIRECTION('',(1.,0.,0.));
#430 = DIRECTION('',(-0.,0.,1.));
#431 = DEFINITIONAL_REPRESENTATION('',(#432),#436);
#432 = CIRCLE('',#433,2.5);
#433 = AXIS2_PLACEMENT_2D('',#434,#435);
#434 = CARTESIAN_POINT('',(7.105427357601E-15,0.));
#435 = DIRECTION('',(0.,-1.));
#436 = ( GEOMETRIC_REPRESENTATION_CONTEXT(2) 
PARAMETRIC_REPRESENTATION_CONTEXT() REPRESENTATION_CONTEXT('2D SPACE',''
  ) );
#437 = ORIENTED_EDGE('',*,*,#388,.F.);
#438 = ORIENTED_EDGE('',*,*,#439,.T.);
#439 = EDGE_CURVE('',#294,#184,#440,.T.);
#440 = SURFACE_CURVE('',#441,(#499,#560),.PCURVE_S1.);
#441 = B_SPLINE_CURVE_WITH_KNOTS('',6,(#442,#443,#444,#445,#446,#447,
    #448,#449,#450,#451,#452,#453,#454,#455,#456,#457,#458,#459,#460,
    #461,#462,#463,#464,#465,#466,#467,#468,#469,#470,#471,#472,#473,
    #474,#475,#476,#477,#478,#479,#480,#481,#482,#483,#484,#485,#486,
    #487,#488,#489,#490,#491,#492,#493,#494,#495,#496,#497,#498),
  .UNSPECIFIED.,.F.,.F.,(7,5,5,5,5,5,5,5,5,5,5,7),(0.,0.133796972734,
    0.186792711862,0.251654327469,0.320036717626,0.407089201796,
    0.500003227374,0.593407254278,0.680083741762,0.811880808864,
    0.866154286222,1.),.UNSPECIFIED.);
#442 = CARTESIAN_POINT('',(7.25,50.,42.5));
#443 = CARTESIAN_POINT('',(7.25,50.,42.400852910743));
#444 = CARTESIAN_POINT('',(7.24056306892,49.995281423187,42.302188659876
    ));
#445 = CARTESIAN_POINT('',(7.221861499752,49.98593116838,42.205511671004
    ));
#446 = CARTESIAN_POINT('',(7.19448657039,49.972442753507,42.112291165723
    ));
#447 = CARTESIAN_POINT('',(7.159443174314,49.955700953956,
    42.023871305506));
#448 = CARTESIAN_POINT('',(7.101896119134,49.929293029629,
    41.908679791546));
#449 = CARTESIAN_POINT('',(7.084560591176,49.921441380557,
    41.876846265832));
#450 = CARTESIAN_POINT('',(7.066272722815,49.913282034533,
    41.845882917343));
#451 = CARTESIAN_POINT('',(7.04708773637,49.904866494248,41.815809276255
    ));
#452 = CARTESIAN_POINT('',(7.027059803896,49.896246115286,
    41.786642164714));
#453 = CARTESIAN_POINT('',(6.980763143484,49.876733574707,
    41.723824775236));
#454 = CARTESIAN_POINT('',(6.954099015481,49.865763713711,
    41.690630039087));
#455 = CARTESIAN_POINT('',(6.926333857023,49.854650632298,
    41.658820274921));
#456 = CARTESIAN_POINT('',(6.897545412429,49.843479256988,
    41.628402195249));
#457 = CARTESIAN_POINT('',(6.867804976494,49.832331331665,
    41.599380438555));
#458 = CARTESIAN_POINT('',(6.804887306695,49.809639916611,
    41.542635294046));
#459 = CARTESIAN_POINT('',(6.771607842998,49.798106353962,
    41.515065086266));
#460 = CARTESIAN_POINT('',(6.737413200152,49.786776363049,
    41.489049456334));
#461 = CARTESIAN_POINT('',(6.702371344104,49.775737146928,
    41.464591417084));
#462 = CARTESIAN_POINT('',(6.666544009994,49.765071478294,
    41.441694483811));
#463 = CARTESIAN_POINT('',(6.583448339636,49.741855304899,
    41.393206749936));
#464 = CARTESIAN_POINT('',(6.535715497841,49.729581808054,
    41.368580760584));
#465 = CARTESIAN_POINT('',(6.486930342742,49.718206864962,
    41.346512988161));
#466 = CARTESIAN_POINT('',(6.437225238944,49.707884502011,
    41.327025731771));
#467 = CARTESIAN_POINT('',(6.386723354202,49.698748869146,
    41.310139382858));
#468 = CARTESIAN_POINT('',(6.280908773897,49.682543298628,
    41.280653249249));
#469 = CARTESIAN_POINT('',(6.225502893436,49.675654007551,
    41.268419188229));
#470 = CARTESIAN_POINT('',(6.169519276846,49.670385551376,
    41.259217462762));
#471 = CARTESIAN_POINT('',(6.113150353836,49.666837884018,
    41.253073628461));
#472 = CARTESIAN_POINT('',(6.056583298789,49.665063509461,41.25));
#473 = CARTESIAN_POINT('',(5.943118297485,49.665063509461,41.25));
#474 = CARTESIAN_POINT('',(5.886253259721,49.666856645078,
    41.253106133316));
#475 = CARTESIAN_POINT('',(5.829589497099,49.670441799736,
    41.259314870152));
#476 = CARTESIAN_POINT('',(5.77331703886,49.675765354729,41.268613664123
    ));
#477 = CARTESIAN_POINT('',(5.71763130458,49.682725284259,41.280976470399
    ));
#478 = CARTESIAN_POINT('',(5.611788958864,49.699016597516,
    41.310634092756));
#479 = CARTESIAN_POINT('',(5.561524099085,49.708141018047,
    41.327509193234));
#480 = CARTESIAN_POINT('',(5.512051555094,49.718439496023,
    41.346962310719));
#481 = CARTESIAN_POINT('',(5.463492848181,49.729779383422,
    41.368973327534));
#482 = CARTESIAN_POINT('',(5.415978557109,49.742008549892,
    41.393520280973));
#483 = CARTESIAN_POINT('',(5.2992017667,49.774652318307,41.461714368353)
  );
#484 = CARTESIAN_POINT('',(5.231470595122,49.796020557388,
    41.508665993412));
#485 = CARTESIAN_POINT('',(5.166851472984,49.818505580629,
    41.561397886978));
#486 = CARTESIAN_POINT('',(5.105815927974,49.841484000567,
    41.619904082993));
#487 = CARTESIAN_POINT('',(5.04893679907,49.864274331752,41.684169141743
    ));
#488 = CARTESIAN_POINT('',(4.975491364151,49.895149288409,
    41.782942795393));
#489 = CARTESIAN_POINT('',(4.954891768012,49.903999092594,
    41.812720139942));
#490 = CARTESIAN_POINT('',(4.935172139719,49.912638102046,41.84344947006
    ));
#491 = CARTESIAN_POINT('',(4.916390499942,49.921011213181,
    41.875112992195));
#492 = CARTESIAN_POINT('',(4.898606056641,49.929063140548,
    41.907689955471));
#493 = CARTESIAN_POINT('',(4.840628533546,49.955666683121,
    42.023690037436));
#494 = CARTESIAN_POINT('',(4.805558193122,49.972420704751,
    42.112138701989));
#495 = CARTESIAN_POINT('',(4.778161716735,49.985919563459,
    42.205392564804));
#496 = CARTESIAN_POINT('',(4.759444966138,49.995277404708,
    42.302106543292));
#497 = CARTESIAN_POINT('',(4.75,50.,42.400810710023));
#498 = CARTESIAN_POINT('',(4.75,50.,42.5));
#499 = PCURVE('',#133,#500);
#500 = DEFINITIONAL_REPRESENTATION('',(#501),#559);
#501 = B_SPLINE_CURVE_WITH_KNOTS('',6,(#502,#503,#504,#505,#506,#507,
    #508,#509,#510,#511,#512,#513,#514,#515,#516,#517,#518,#519,#520,
    #521,#522,#523,#524,#525,#526,#527,#528,#529,#530,#531,#532,#533,
    #534,#535,#536,#537,#538,#539,#540,#541,#542,#543,#544,#545,#546,
    #547,#548,#549,#550,#551,#552,#553,#554,#555,#556,#557,#558),
  .UNSPECIFIED.,.F.,.F.,(7,5,5,5,5,5,5,5,5,5,5,7),(0.,0.133796972734,
    0.186792711862,0.251654327469,0.320036717626,0.407089201796,
    0.500003227374,0.593407254278,0.680083741762,0.811880808864,
    0.866154286222,1.),.UNSPECIFIED.);
#502 = CARTESIAN_POINT('',(-6.28318530718,-11.25));
#503 = CARTESIAN_POINT('',(-6.243526471477,-11.25));
#504 = CARTESIAN_POINT('',(-6.204060698238,-11.24056306892));
#505 = CARTESIAN_POINT('',(-6.16527798242,-11.22186149975));
#506 = CARTESIAN_POINT('',(-6.127657450699,-11.19448657039));
#507 = CARTESIAN_POINT('',(-6.091687333633,-11.15944317431));
#508 = CARTESIAN_POINT('',(-6.044415416632,-11.10189611913));
#509 = CARTESIAN_POINT('',(-6.031302171893,-11.08456059117));
#510 = CARTESIAN_POINT('',(-6.018496373887,-11.06627272281));
#511 = CARTESIAN_POINT('',(-6.006006847959,-11.04708773637));
#512 = CARTESIAN_POINT('',(-5.993842266005,-11.02705980389));
#513 = CARTESIAN_POINT('',(-5.96753101013,-10.98076314348));
#514 = CARTESIAN_POINT('',(-5.953549059698,-10.95409901548));
#515 = CARTESIAN_POINT('',(-5.940073824593,-10.92633385702));
#516 = CARTESIAN_POINT('',(-5.927114243899,-10.89754541242));
#517 = CARTESIAN_POINT('',(-5.914679666365,-10.86780497649));
#518 = CARTESIAN_POINT('',(-5.890234096648,-10.80488730669));
#519 = CARTESIAN_POINT('',(-5.878281336045,-10.77160784299));
#520 = CARTESIAN_POINT('',(-5.866932790385,-10.73741320015));
#521 = CARTESIAN_POINT('',(-5.856200500516,-10.7023713441));
#522 = CARTESIAN_POINT('',(-5.846097326348,-10.66654400999));
#523 = CARTESIAN_POINT('',(-5.824593648361,-10.58344833963));
#524 = CARTESIAN_POINT('',(-5.813589003241,-10.53571549784));
#525 = CARTESIAN_POINT('',(-5.803659379779,-10.48693034274));
#526 = CARTESIAN_POINT('',(-5.794839000549,-10.43722523894));
#527 = CARTESIAN_POINT('',(-5.787159498258,-10.3867233542));
#528 = CARTESIAN_POINT('',(-5.773701102567,-10.28090877389));
#529 = CARTESIAN_POINT('',(-5.768085198161,-10.22550289343));
#530 = CARTESIAN_POINT('',(-5.763844000588,-10.16951927684));
#531 = CARTESIAN_POINT('',(-5.761006122737,-10.11315035383));
#532 = CARTESIAN_POINT('',(-5.759586531581,-10.05658329878));
#533 = CARTESIAN_POINT('',(-5.759586531581,-9.943118297485));
#534 = CARTESIAN_POINT('',(-5.761021134363,-9.886253259721));
#535 = CARTESIAN_POINT('',(-5.763888994324,-9.829589497099));
#536 = CARTESIAN_POINT('',(-5.768174835138,-9.77331703886));
#537 = CARTESIAN_POINT('',(-5.773849467458,-9.71763130458));
#538 = CARTESIAN_POINT('',(-5.787384497279,-9.611788958864));
#539 = CARTESIAN_POINT('',(-5.795057907797,-9.561524099085));
#540 = CARTESIAN_POINT('',(-5.803861749061,-9.512051555094));
#541 = CARTESIAN_POINT('',(-5.813764778253,-9.463492848181));
#542 = CARTESIAN_POINT('',(-5.82473323501,-9.415978557109));
#543 = CARTESIAN_POINT('',(-5.854975058156,-9.2992017667));
#544 = CARTESIAN_POINT('',(-5.875605369658,-9.231470595122));
#545 = CARTESIAN_POINT('',(-5.898524959236,-9.166851472984));
#546 = CARTESIAN_POINT('',(-5.923649246588,-9.105815927974));
#547 = CARTESIAN_POINT('',(-5.950904314883,-9.04893679907));
#548 = CARTESIAN_POINT('',(-5.992298995902,-8.975491364151));
#549 = CARTESIAN_POINT('',(-6.004723616382,-8.954891768012));
#550 = CARTESIAN_POINT('',(-6.017489675959,-8.935172139719));
#551 = CARTESIAN_POINT('',(-6.030587923858,-8.916390499942));
#552 = CARTESIAN_POINT('',(-6.044008945707,-8.898606056641));
#553 = CARTESIAN_POINT('',(-6.091613596729,-8.840628533546));
#554 = CARTESIAN_POINT('',(-6.12759592176,-8.805558193122));
#555 = CARTESIAN_POINT('',(-6.165230196515,-8.778161716735));
#556 = CARTESIAN_POINT('',(-6.204027851541,-8.759444966138));
#557 = CARTESIAN_POINT('',(-6.243509591189,-8.75));
#558 = CARTESIAN_POINT('',(-6.28318530718,-8.75));
#559 = ( GEOMETRIC_REPRESENTATION_CONTEXT(2) 
PARAMETRIC_REPRESENTATION_CONTEXT() REPRESENTATION_CONTEXT('2D SPACE',''
  ) );
#560 = PCURVE('',#262,#561);
#561 = DEFINITIONAL_REPRESENTATION('',(#562),#620);
#562 = B_SPLINE_CURVE_WITH_KNOTS('',6,(#563,#564,#565,#566,#567,#568,
    #569,#570,#571,#572,#573,#574,#575,#576,#577,#578,#579,#580,#581,
    #582,#583,#584,#585,#586,#587,#588,#589,#590,#591,#592,#593,#594,
    #595,#596,#597,#598,#599,#600,#601,#602,#603,#604,#605,#606,#607,
    #608,#609,#610,#611,#612,#613,#614,#615,#616,#617,#618,#619),
  .UNSPECIFIED.,.F.,.F.,(7,5,5,5,5,5,5,5,5,5,5,7),(0.,0.133796972734,
    0.186792711862,0.251654327469,0.320036717626,0.407089201796,
    0.500003227374,0.593407254278,0.680083741762,0.811880808864,
    0.866154286222,1.),.UNSPECIFIED.);
#563 = CARTESIAN_POINT('',(1.570796326795,2.5));
#564 = CARTESIAN_POINT('',(1.6501139982,2.5));
#565 = CARTESIAN_POINT('',(1.72904526498,2.495281423187));
#566 = CARTESIAN_POINT('',(1.80728574402,2.48593116838));
#567 = CARTESIAN_POINT('',(1.88451118649,2.472442753507));
#568 = CARTESIAN_POINT('',(1.960318891573,2.455700953956));
#569 = CARTESIAN_POINT('',(2.063331895641,2.429293029629));
#570 = CARTESIAN_POINT('',(2.09231197964,2.421441380557));
#571 = CARTESIAN_POINT('',(2.121054600829,2.413282034533));
#572 = CARTESIAN_POINT('',(2.149567341354,2.404866494248));
#573 = CARTESIAN_POINT('',(2.177856663413,2.396246115286));
#574 = CARTESIAN_POINT('',(2.240284376163,2.376733574707));
#575 = CARTESIAN_POINT('',(2.274317445308,2.365763713711));
#576 = CARTESIAN_POINT('',(2.30805353221,2.354650632298));
#577 = CARTESIAN_POINT('',(2.341518213085,2.343479256988));
#578 = CARTESIAN_POINT('',(2.374736224842,2.332331331665));
#579 = CARTESIAN_POINT('',(2.442517730748,2.309639916611));
#580 = CARTESIAN_POINT('',(2.477060517645,2.298106353962));
#581 = CARTESIAN_POINT('',(2.511389133139,2.286776363049));
#582 = CARTESIAN_POINT('',(2.545532763032,2.275737146928));
#583 = CARTESIAN_POINT('',(2.579520471571,2.265071478294));
#584 = CARTESIAN_POINT('',(2.656486753096,2.241855304899));
#585 = CARTESIAN_POINT('',(2.699397578888,2.229581808054));
#586 = CARTESIAN_POINT('',(2.74214832784,2.218206864962));
#587 = CARTESIAN_POINT('',(2.784775990205,2.207884502011));
#588 = CARTESIAN_POINT('',(2.827321001032,2.198748869146));
#589 = CARTESIAN_POINT('',(2.915197851155,2.182543298628));
#590 = CARTESIAN_POINT('',(2.960522951314,2.175654007551));
#591 = CARTESIAN_POINT('',(3.005810349225,2.170385551376));
#592 = CARTESIAN_POINT('',(3.051072327449,2.166837884018));
#593 = CARTESIAN_POINT('',(3.096326014558,2.165063509461));
#594 = CARTESIAN_POINT('',(3.187098015602,2.165063509461));
#595 = CARTESIAN_POINT('',(3.232590090435,2.166856645078));
#596 = CARTESIAN_POINT('',(3.27809059153,2.170441799736));
#597 = CARTESIAN_POINT('',(3.323617015329,2.175765354729));
#598 = CARTESIAN_POINT('',(3.36918189224,2.182725284259));
#599 = CARTESIAN_POINT('',(3.457117056394,2.199016597516));
#600 = CARTESIAN_POINT('',(3.499480118785,2.208141018047));
#601 = CARTESIAN_POINT('',(3.541925685124,2.218439496023));
#602 = CARTESIAN_POINT('',(3.584493755978,2.229779383422));
#603 = CARTESIAN_POINT('',(3.627220960636,2.242008549892));
#604 = CARTESIAN_POINT('',(3.735405254748,2.274652318307));
#605 = CARTESIAN_POINT('',(3.80113732974,2.296020557388));
#606 = CARTESIAN_POINT('',(3.867552510376,2.318505580629));
#607 = CARTESIAN_POINT('',(3.934857442185,2.341484000567));
#608 = CARTESIAN_POINT('',(4.003265876799,2.364274331752));
#609 = CARTESIAN_POINT('',(4.101735662023,2.395149288409));
#610 = CARTESIAN_POINT('',(4.130685369125,2.403999092594));
#611 = CARTESIAN_POINT('',(4.159868688396,2.412638102046));
#612 = CARTESIAN_POINT('',(4.189292642093,2.421011213181));
#613 = CARTESIAN_POINT('',(4.218965479937,2.429063140548));
#614 = CARTESIAN_POINT('',(4.322711052412,2.455666683121));
#615 = CARTESIAN_POINT('',(4.398547808331,2.472420704751));
#616 = CARTESIAN_POINT('',(4.475803129625,2.485919563459));
#617 = CARTESIAN_POINT('',(4.554074349273,2.495277404708));
#618 = CARTESIAN_POINT('',(4.633037548403,2.5));
#619 = CARTESIAN_POINT('',(4.712388980385,2.5));
#620 = ( GEOMETRIC_REPRESENTATION_CONTEXT(2) 
PARAMETRIC_REPRESENTATION_CONTEXT() REPRESENTATION_CONTEXT('2D SPACE',''
  ) );
#621 = ADVANCED_FACE('',(#622),#168,.T.);
#622 = FACE_BOUND('',#623,.F.);
#623 = EDGE_LOOP('',(#624,#647,#674,#675));
#624 = ORIENTED_EDGE('',*,*,#625,.T.);
#625 = EDGE_CURVE('',#152,#626,#628,.T.);
#626 = VERTEX_POINT('',#627);
#627 = CARTESIAN_POINT('',(3.,61.,42.5));
#628 = SEAM_CURVE('',#629,(#633,#640),.PCURVE_S1.);
#629 = LINE('',#630,#631);
#630 = CARTESIAN_POINT('',(-3.,61.,42.5));
#631 = VECTOR('',#632,1.);
#632 = DIRECTION('',(1.,0.,0.));
#633 = PCURVE('',#168,#634);
#634 = DEFINITIONAL_REPRESENTATION('',(#635),#639);
#635 = LINE('',#636,#637);
#636 = CARTESIAN_POINT('',(-0.,0.));
#637 = VECTOR('',#638,1.);
#638 = DIRECTION('',(-0.,-1.));
#639 = ( GEOMETRIC_REPRESENTATION_CONTEXT(2) 
PARAMETRIC_REPRESENTATION_CONTEXT() REPRESENTATION_CONTEXT('2D SPACE',''
  ) );
#640 = PCURVE('',#168,#641);
#641 = DEFINITIONAL_REPRESENTATION('',(#642),#646);
#642 = LINE('',#643,#644);
#643 = CARTESIAN_POINT('',(-6.28318530718,0.));
#644 = VECTOR('',#645,1.);
#645 = DIRECTION('',(-0.,-1.));
#646 = ( GEOMETRIC_REPRESENTATION_CONTEXT(2) 
PARAMETRIC_REPRESENTATION_CONTEXT() REPRESENTATION_CONTEXT('2D SPACE',''
  ) );
#647 = ORIENTED_EDGE('',*,*,#648,.T.);
#648 = EDGE_CURVE('',#626,#626,#649,.T.);
#649 = SURFACE_CURVE('',#650,(#655,#662),.PCURVE_S1.);
#650 = CIRCLE('',#651,13.5);
#651 = AXIS2_PLACEMENT_3D('',#652,#653,#654);
#652 = CARTESIAN_POINT('',(3.,47.5,42.5));
#653 = DIRECTION('',(1.,0.,0.));
#654 = DIRECTION('',(0.,1.,0.));
#655 = PCURVE('',#168,#656);
#656 = DEFINITIONAL_REPRESENTATION('',(#657),#661);
#657 = LINE('',#658,#659);
#658 = CARTESIAN_POINT('',(-0.,-6.));
#659 = VECTOR('',#660,1.);
#660 = DIRECTION('',(-1.,0.));
#661 = ( GEOMETRIC_REPRESENTATION_CONTEXT(2) 
PARAMETRIC_REPRESENTATION_CONTEXT() REPRESENTATION_CONTEXT('2D SPACE',''
  ) );
#662 = PCURVE('',#663,#668);
#663 = PLANE('',#664);
#664 = AXIS2_PLACEMENT_3D('',#665,#666,#667);
#665 = CARTESIAN_POINT('',(3.,47.5,42.5));
#666 = DIRECTION('',(1.,0.,0.));
#667 = DIRECTION('',(-0.,0.,1.));
#668 = DEFINITIONAL_REPRESENTATION('',(#669),#673);
#669 = CIRCLE('',#670,13.5);
#670 = AXIS2_PLACEMENT_2D('',#671,#672);
#671 = CARTESIAN_POINT('',(0.,-7.105427357601E-15));
#672 = DIRECTION('',(0.,-1.));
#673 = ( GEOMETRIC_REPRESENTATION_CONTEXT(2) 
PARAMETRIC_REPRESENTATION_CONTEXT() REPRESENTATION_CONTEXT('2D SPACE',''
  ) );
#674 = ORIENTED_EDGE('',*,*,#625,.F.);
#675 = ORIENTED_EDGE('',*,*,#151,.F.);
#676 = ADVANCED_FACE('',(#677),#262,.F.);
#677 = FACE_BOUND('',#678,.F.);
#678 = EDGE_LOOP('',(#679,#742,#763,#764,#765,#766,#767,#823));
#679 = ORIENTED_EDGE('',*,*,#680,.F.);
#680 = EDGE_CURVE('',#681,#683,#685,.T.);
#681 = VERTEX_POINT('',#682);
#682 = CARTESIAN_POINT('',(6.,52.341229182759,43.75));
#683 = VERTEX_POINT('',#684);
#684 = CARTESIAN_POINT('',(7.25,52.5,42.5));
#685 = SURFACE_CURVE('',#686,(#701,#719),.PCURVE_S1.);
#686 = B_SPLINE_CURVE_WITH_KNOTS('',7,(#687,#688,#689,#690,#691,#692,
    #693,#694,#695,#696,#697,#698,#699,#700),.UNSPECIFIED.,.F.,.F.,(8,6,
    8),(0.,0.517937540184,1.),.UNSPECIFIED.);
#687 = CARTESIAN_POINT('',(6.,52.341229182759,43.75));
#688 = CARTESIAN_POINT('',(6.130823910342,52.341229182759,43.75));
#689 = CARTESIAN_POINT('',(6.261571932339,52.34535358961,43.734026226664
    ));
#690 = CARTESIAN_POINT('',(6.390763937699,52.353594054786,
    43.702111085503));
#691 = CARTESIAN_POINT('',(6.516817494091,52.365638949614,
    43.654089738918));
#692 = CARTESIAN_POINT('',(6.637899396757,52.380846318346,
    43.589719206833));
#693 = CARTESIAN_POINT('',(6.751793931812,52.398186190835,
    43.508769941615));
#694 = CARTESIAN_POINT('',(6.952377868172,52.433098125602,
    43.320409087711));
#695 = CARTESIAN_POINT('',(7.042404505334,52.450918562923,
    43.213341532808));
#696 = CARTESIAN_POINT('',(7.12081764898,52.468306636401,43.090813637644
    ));
#697 = CARTESIAN_POINT('',(7.183537429424,52.483385496574,
    42.954932449252));
#698 = CARTESIAN_POINT('',(7.227371892438,52.494342720719,
    42.808693960192));
#699 = CARTESIAN_POINT('',(7.25,52.5,42.655706531728));
#700 = CARTESIAN_POINT('',(7.25,52.5,42.5));
#701 = PCURVE('',#262,#702);
#702 = DEFINITIONAL_REPRESENTATION('',(#703),#718);
#703 = B_SPLINE_CURVE_WITH_KNOTS('',7,(#704,#705,#706,#707,#708,#709,
    #710,#711,#712,#713,#714,#715,#716,#717),.UNSPECIFIED.,.F.,.F.,(8,6,
    8),(0.,0.517937540184,1.),.UNSPECIFIED.);
#704 = CARTESIAN_POINT('',(0.,4.841229182759));
#705 = CARTESIAN_POINT('',(0.104659128273,4.841229182759));
#706 = CARTESIAN_POINT('',(0.209257484775,4.84535358961));
#707 = CARTESIAN_POINT('',(0.314483771024,4.853594054786));
#708 = CARTESIAN_POINT('',(0.420933860295,4.865638949614));
#709 = CARTESIAN_POINT('',(0.529217793431,4.880846318346));
#710 = CARTESIAN_POINT('',(0.639969154059,4.898186190835));
#711 = CARTESIAN_POINT('',(0.860098173404,4.933098125602));
#712 = CARTESIAN_POINT('',(0.971233762598,4.950918562923));
#713 = CARTESIAN_POINT('',(1.086014362116,4.968306636401));
#714 = CARTESIAN_POINT('',(1.203693094506,4.983385496574));
#715 = CARTESIAN_POINT('',(1.323841247328,4.994342720719));
#716 = CARTESIAN_POINT('',(1.446231101412,5.));
#717 = CARTESIAN_POINT('',(1.570796326795,5.));
#718 = ( GEOMETRIC_REPRESENTATION_CONTEXT(2) 
PARAMETRIC_REPRESENTATION_CONTEXT() REPRESENTATION_CONTEXT('2D SPACE',''
  ) );
#719 = PCURVE('',#720,#725);
#720 = CYLINDRICAL_SURFACE('',#721,5.);
#721 = AXIS2_PLACEMENT_3D('',#722,#723,#724);
#722 = CARTESIAN_POINT('',(4.,47.5,42.5));
#723 = DIRECTION('',(-1.,-0.,-0.));
#724 = DIRECTION('',(0.,1.,0.));
#725 = DEFINITIONAL_REPRESENTATION('',(#726),#741);
#726 = B_SPLINE_CURVE_WITH_KNOTS('',7,(#727,#728,#729,#730,#731,#732,
    #733,#734,#735,#736,#737,#738,#739,#740),.UNSPECIFIED.,.F.,.F.,(8,6,
    8),(0.,0.517937540184,1.),.UNSPECIFIED.);
#727 = CARTESIAN_POINT('',(-0.252680255142,-2.));
#728 = CARTESIAN_POINT('',(-0.252680255142,-2.130823910342));
#729 = CARTESIAN_POINT('',(-0.249380723002,-2.261571932339));
#730 = CARTESIAN_POINT('',(-0.242788378952,-2.390763937698));
#731 = CARTESIAN_POINT('',(-0.232886791652,-2.516817494092));
#732 = CARTESIAN_POINT('',(-0.219661202484,-2.637899396757));
#733 = CARTESIAN_POINT('',(-0.20311046371,-2.751793931812));
#734 = CARTESIAN_POINT('',(-0.164796677955,-2.952377868172));
#735 = CARTESIAN_POINT('',(-0.143092281866,-3.042404505334));
#736 = CARTESIAN_POINT('',(-0.118352785832,-3.12081764898));
#737 = CARTESIAN_POINT('',(-9.103561666616E-02,-3.183537429424));
#738 = CARTESIAN_POINT('',(-6.173883466647E-02,-3.227371892438));
#739 = CARTESIAN_POINT('',(-3.114130634567E-02,-3.25));
#740 = CARTESIAN_POINT('',(0.,-3.25));
#741 = ( GEOMETRIC_REPRESENTATION_CONTEXT(2) 
PARAMETRIC_REPRESENTATION_CONTEXT() REPRESENTATION_CONTEXT('2D SPACE',''
  ) );
#742 = ORIENTED_EDGE('',*,*,#743,.F.);
#743 = EDGE_CURVE('',#209,#681,#744,.T.);
#744 = SEAM_CURVE('',#745,(#749,#756),.PCURVE_S1.);
#745 = LINE('',#746,#747);
#746 = CARTESIAN_POINT('',(6.,47.5,43.75));
#747 = VECTOR('',#748,1.);
#748 = DIRECTION('',(0.,1.,0.));
#749 = PCURVE('',#262,#750);
#750 = DEFINITIONAL_REPRESENTATION('',(#751),#755);
#751 = LINE('',#752,#753);
#752 = CARTESIAN_POINT('',(6.28318530718,-0.));
#753 = VECTOR('',#754,1.);
#754 = DIRECTION('',(0.,1.));
#755 = ( GEOMETRIC_REPRESENTATION_CONTEXT(2) 
PARAMETRIC_REPRESENTATION_CONTEXT() REPRESENTATION_CONTEXT('2D SPACE',''
  ) );
#756 = PCURVE('',#262,#757);
#757 = DEFINITIONAL_REPRESENTATION('',(#758),#762);
#758 = LINE('',#759,#760);
#759 = CARTESIAN_POINT('',(0.,-0.));
#760 = VECTOR('',#761,1.);
#761 = DIRECTION('',(0.,1.));
#762 = ( GEOMETRIC_REPRESENTATION_CONTEXT(2) 
PARAMETRIC_REPRESENTATION_CONTEXT() REPRESENTATION_CONTEXT('2D SPACE',''
  ) );
#763 = ORIENTED_EDGE('',*,*,#293,.T.);
#764 = ORIENTED_EDGE('',*,*,#439,.T.);
#765 = ORIENTED_EDGE('',*,*,#208,.T.);
#766 = ORIENTED_EDGE('',*,*,#743,.T.);
#767 = ORIENTED_EDGE('',*,*,#768,.F.);
#768 = EDGE_CURVE('',#769,#681,#771,.T.);
#769 = VERTEX_POINT('',#770);
#770 = CARTESIAN_POINT('',(4.75,52.5,42.5));
#771 = SURFACE_CURVE('',#772,(#787,#805),.PCURVE_S1.);
#772 = B_SPLINE_CURVE_WITH_KNOTS('',7,(#773,#774,#775,#776,#777,#778,
    #779,#780,#781,#782,#783,#784,#785,#786),.UNSPECIFIED.,.F.,.F.,(8,6,
    8),(0.,0.462662320656,1.),.UNSPECIFIED.);
#773 = CARTESIAN_POINT('',(4.75,52.5,42.5));
#774 = CARTESIAN_POINT('',(4.75,52.5,42.649229905254));
#775 = CARTESIAN_POINT('',(4.770784830488,52.49480358424,42.796006558685
    ));
#776 = CARTESIAN_POINT('',(4.811125051238,52.484719609259,
    42.936748415761));
#777 = CARTESIAN_POINT('',(4.869003232287,52.470757581411,
    43.068221009581));
#778 = CARTESIAN_POINT('',(4.941635317481,52.454478179685,
    43.187703517348));
#779 = CARTESIAN_POINT('',(5.02545368891,52.43753844705,43.293220641876)
  );
#780 = CARTESIAN_POINT('',(5.221412664948,52.402343175973,
    43.489179617914));
#781 = CARTESIAN_POINT('',(5.338161937995,52.383917895012,
    43.576660309233));
#782 = CARTESIAN_POINT('',(5.463196024783,52.367586225189,
    43.646337851967));
#783 = CARTESIAN_POINT('',(5.594028915182,52.354563938602,
    43.698355658662));
#784 = CARTESIAN_POINT('',(5.728476341088,52.345655050949,
    43.732858459154));
#785 = CARTESIAN_POINT('',(5.864478536265,52.341229182759,43.75));
#786 = CARTESIAN_POINT('',(6.,52.341229182759,43.75));
#787 = PCURVE('',#262,#788);
#788 = DEFINITIONAL_REPRESENTATION('',(#789),#804);
#789 = B_SPLINE_CURVE_WITH_KNOTS('',7,(#790,#791,#792,#793,#794,#795,
    #796,#797,#798,#799,#800,#801,#802,#803),.UNSPECIFIED.,.F.,.F.,(8,6,
    8),(0.,0.462662320656,1.),.UNSPECIFIED.);
#790 = CARTESIAN_POINT('',(4.712388980385,5.));
#791 = CARTESIAN_POINT('',(4.831772904588,5.));
#792 = CARTESIAN_POINT('',(4.949194148691,4.99480358424));
#793 = CARTESIAN_POINT('',(5.064567148966,4.984719609259));
#794 = CARTESIAN_POINT('',(5.177670773709,4.970757581411));
#795 = CARTESIAN_POINT('',(5.288109460608,4.954478179685));
#796 = CARTESIAN_POINT('',(5.395213855538,4.93753844705));
#797 = CARTESIAN_POINT('',(5.616916128804,4.902343175973));
#798 = CARTESIAN_POINT('',(5.732446277853,4.883917895012));
#799 = CARTESIAN_POINT('',(5.845351775391,4.867586225189));
#800 = CARTESIAN_POINT('',(5.956326013979,4.854563938602));
#801 = CARTESIAN_POINT('',(6.065966623472,4.845655050949));
#802 = CARTESIAN_POINT('',(6.174768136192,4.841229182759));
#803 = CARTESIAN_POINT('',(6.28318530718,4.841229182759));
#804 = ( GEOMETRIC_REPRESENTATION_CONTEXT(2) 
PARAMETRIC_REPRESENTATION_CONTEXT() REPRESENTATION_CONTEXT('2D SPACE',''
  ) );
#805 = PCURVE('',#720,#806);
#806 = DEFINITIONAL_REPRESENTATION('',(#807),#822);
#807 = B_SPLINE_CURVE_WITH_KNOTS('',7,(#808,#809,#810,#811,#812,#813,
    #814,#815,#816,#817,#818,#819,#820,#821),.UNSPECIFIED.,.F.,.F.,(8,6,
    8),(0.,0.462662320656,1.),.UNSPECIFIED.);
#808 = CARTESIAN_POINT('',(0.,-0.75));
#809 = CARTESIAN_POINT('',(-2.984598105079E-02,-0.75));
#810 = CARTESIAN_POINT('',(-5.920134705715E-02,-0.770784830488));
#811 = CARTESIAN_POINT('',(-8.739295292901E-02,-0.811125051238));
#812 = CARTESIAN_POINT('',(-0.113811847637,-0.869003232287));
#813 = CARTESIAN_POINT('',(-0.137917949026,-0.941635317481));
#814 = CARTESIAN_POINT('',(-0.15928789443,-1.02545368891));
#815 = CARTESIAN_POINT('',(-0.19910679818,-1.221412664948));
#816 = CARTESIAN_POINT('',(-0.216978819548,-1.338161937995));
#817 = CARTESIAN_POINT('',(-0.231288279173,-1.463196024783));
#818 = CARTESIAN_POINT('',(-0.242012647173,-1.594028915182));
#819 = CARTESIAN_POINT('',(-0.249139513577,-1.728476341088));
#820 = CARTESIAN_POINT('',(-0.252680255142,-1.864478536265));
#821 = CARTESIAN_POINT('',(-0.252680255142,-2.));
#822 = ( GEOMETRIC_REPRESENTATION_CONTEXT(2) 
PARAMETRIC_REPRESENTATION_CONTEXT() REPRESENTATION_CONTEXT('2D SPACE',''
  ) );
#823 = ORIENTED_EDGE('',*,*,#824,.F.);
#824 = EDGE_CURVE('',#683,#769,#825,.T.);
#825 = SURFACE_CURVE('',#826,(#853,#883),.PCURVE_S1.);
#826 = B_SPLINE_CURVE_WITH_KNOTS('',7,(#827,#828,#829,#830,#831,#832,
    #833,#834,#835,#836,#837,#838,#839,#840,#841,#842,#843,#844,#845,
    #846,#847,#848,#849,#850,#851,#852),.UNSPECIFIED.,.F.,.F.,(8,6,6,6,8
    ),(0.,0.241136209108,0.500028793396,0.75889846685,1.),
  .UNSPECIFIED.);
#827 = CARTESIAN_POINT('',(7.25,52.5,42.5));
#828 = CARTESIAN_POINT('',(7.25,52.5,42.344109006508));
#829 = CARTESIAN_POINT('',(7.227318259562,52.494329288194,42.1911001356)
  );
#830 = CARTESIAN_POINT('',(7.183463537896,52.483367048208,
    42.044948029379));
#831 = CARTESIAN_POINT('',(7.120783292337,52.468300948343,
    41.909185889518));
#832 = CARTESIAN_POINT('',(7.042447575695,52.450930153204,
    41.786741476878));
#833 = CARTESIAN_POINT('',(6.952469061362,52.433113997914,
    41.679676548395));
#834 = CARTESIAN_POINT('',(6.751771802213,52.398182339145,
    41.491209277308));
#835 = CARTESIAN_POINT('',(6.637877245039,52.380843513379,
    41.410271055268));
#836 = CARTESIAN_POINT('',(6.516812552,52.365639602909,41.345913460037)
  );
#837 = CARTESIAN_POINT('',(6.390776827414,52.353595776955,
    41.297895512354));
#838 = CARTESIAN_POINT('',(6.261590808351,52.345354316125,
    41.265976602739));
#839 = CARTESIAN_POINT('',(6.130835488696,52.341229182759,41.25));
#840 = CARTESIAN_POINT('',(5.869176089659,52.341229182759,41.25));
#841 = CARTESIAN_POINT('',(5.738428067661,52.34535358961,41.265973773336
    ));
#842 = CARTESIAN_POINT('',(5.609236062302,52.353594054786,
    41.297888914497));
#843 = CARTESIAN_POINT('',(5.483182505908,52.365638949614,
    41.345910261082));
#844 = CARTESIAN_POINT('',(5.362100603242,52.380846318346,
    41.410280793167));
#845 = CARTESIAN_POINT('',(5.248206068187,52.398186190835,
    41.491230058385));
#846 = CARTESIAN_POINT('',(5.047556902677,52.433109478834,41.67965216654
    ));
#847 = CARTESIAN_POINT('',(4.95756287562,52.450927171893,41.786719540604
    ));
#848 = CARTESIAN_POINT('',(4.87920482591,52.468303070702,41.90918952386)
  );
#849 = CARTESIAN_POINT('',(4.816514412458,52.483372575258,
    42.044985679513));
#850 = CARTESIAN_POINT('',(4.77266647681,52.494333100877,42.191160704021
    ));
#851 = CARTESIAN_POINT('',(4.75,52.5,42.344161458471));
#852 = CARTESIAN_POINT('',(4.75,52.5,42.5));
#853 = PCURVE('',#262,#854);
#854 = DEFINITIONAL_REPRESENTATION('',(#855),#882);
#855 = B_SPLINE_CURVE_WITH_KNOTS('',7,(#856,#857,#858,#859,#860,#861,
    #862,#863,#864,#865,#866,#867,#868,#869,#870,#871,#872,#873,#874,
    #875,#876,#877,#878,#879,#880,#881),.UNSPECIFIED.,.F.,.F.,(8,6,6,6,8
    ),(0.,0.241136209108,0.500028793396,0.75889846685,1.),
  .UNSPECIFIED.);
#856 = CARTESIAN_POINT('',(1.570796326795,5.));
#857 = CARTESIAN_POINT('',(1.695509121588,5.));
#858 = CARTESIAN_POINT('',(1.817916145133,4.994329288194));
#859 = CARTESIAN_POINT('',(1.938006302625,4.983367048208));
#860 = CARTESIAN_POINT('',(2.055592922683,4.968300948343));
#861 = CARTESIAN_POINT('',(2.170288343828,4.950930153204));
#862 = CARTESIAN_POINT('',(2.281394401048,4.933113997914));
#863 = CARTESIAN_POINT('',(2.501647785459,4.898182339145));
#864 = CARTESIAN_POINT('',(2.612393121958,4.880843513379));
#865 = CARTESIAN_POINT('',(2.72066141952,4.865639602909));
#866 = CARTESIAN_POINT('',(2.827098030863,4.853595776954));
#867 = CARTESIAN_POINT('',(2.932320076581,4.845354316125));
#868 = CARTESIAN_POINT('',(3.036924262633,4.841229182759));
#869 = CARTESIAN_POINT('',(3.246251781863,4.841229182759));
#870 = CARTESIAN_POINT('',(3.350850138365,4.84535358961));
#871 = CARTESIAN_POINT('',(3.456076424614,4.853594054786));
#872 = CARTESIAN_POINT('',(3.562526513884,4.865638949614));
#873 = CARTESIAN_POINT('',(3.670810447021,4.880846318346));
#874 = CARTESIAN_POINT('',(3.781561807649,4.898186190835));
#875 = CARTESIAN_POINT('',(4.001762412133,4.933109478834));
#876 = CARTESIAN_POINT('',(4.112878861753,4.950927171893));
#877 = CARTESIAN_POINT('',(4.227599697517,4.968303070702));
#878 = CARTESIAN_POINT('',(4.345212289955,4.983372575258));
#879 = CARTESIAN_POINT('',(4.46531762355,4.994333100877));
#880 = CARTESIAN_POINT('',(4.587718147162,5.));
#881 = CARTESIAN_POINT('',(4.712388980385,5.));
#882 = ( GEOMETRIC_REPRESENTATION_CONTEXT(2) 
PARAMETRIC_REPRESENTATION_CONTEXT() REPRESENTATION_CONTEXT('2D SPACE',''
  ) );
#883 = PCURVE('',#720,#884);
#884 = DEFINITIONAL_REPRESENTATION('',(#885),#912);
#885 = B_SPLINE_CURVE_WITH_KNOTS('',7,(#886,#887,#888,#889,#890,#891,
    #892,#893,#894,#895,#896,#897,#898,#899,#900,#901,#902,#903,#904,
    #905,#906,#907,#908,#909,#910,#911),.UNSPECIFIED.,.F.,.F.,(8,6,6,6,8
    ),(0.,0.241136209108,0.500028793396,0.75889846685,1.),
  .UNSPECIFIED.);
#886 = CARTESIAN_POINT('',(-6.28318530718,-3.25));
#887 = CARTESIAN_POINT('',(-6.252007108481,-3.25));
#888 = CARTESIAN_POINT('',(-6.22140528904,-3.227318259562));
#889 = CARTESIAN_POINT('',(-6.192125608724,-3.183463537896));
#890 = CARTESIAN_POINT('',(-6.164832231086,-3.120783292337));
#891 = CARTESIAN_POINT('',(-6.140109776774,-3.042447575695));
#892 = CARTESIAN_POINT('',(-6.118406048149,-2.952469061362));
#893 = CARTESIAN_POINT('',(-6.080070616467,-2.751771802213));
#894 = CARTESIAN_POINT('',(-6.063522086957,-2.637877245039));
#895 = CARTESIAN_POINT('',(-6.050299162809,-2.516812552));
#896 = CARTESIAN_POINT('',(-6.040398294315,-2.390776827414));
#897 = CARTESIAN_POINT('',(-6.033805167801,-2.261590808351));
#898 = CARTESIAN_POINT('',(-6.030505052038,-2.130835488696));
#899 = CARTESIAN_POINT('',(-6.030505052038,-1.869176089659));
#900 = CARTESIAN_POINT('',(-6.033804584178,-1.738428067661));
#901 = CARTESIAN_POINT('',(-6.040396928228,-1.609236062302));
#902 = CARTESIAN_POINT('',(-6.050298515527,-1.483182505908));
#903 = CARTESIAN_POINT('',(-6.063524104695,-1.362100603243));
#904 = CARTESIAN_POINT('',(-6.08007484347,-1.248206068187));
#905 = CARTESIAN_POINT('',(-6.118401088726,-1.047556902677));
#906 = CARTESIAN_POINT('',(-6.140105353607,-0.95756287562));
#907 = CARTESIAN_POINT('',(-6.164833018011,-0.87920482591));
#908 = CARTESIAN_POINT('',(-6.192133191884,-0.816514412459));
#909 = CARTESIAN_POINT('',(-6.221417402009,-0.77266647681));
#910 = CARTESIAN_POINT('',(-6.252017598874,-0.75));
#911 = CARTESIAN_POINT('',(-6.28318530718,-0.75));
#912 = ( GEOMETRIC_REPRESENTATION_CONTEXT(2) 
PARAMETRIC_REPRESENTATION_CONTEXT() REPRESENTATION_CONTEXT('2D SPACE',''
  ) );
#913 = ADVANCED_FACE('',(#914,#940),#426,.T.);
#914 = FACE_BOUND('',#915,.T.);
#915 = EDGE_LOOP('',(#916));
#916 = ORIENTED_EDGE('',*,*,#917,.T.);
#917 = EDGE_CURVE('',#918,#918,#920,.T.);
#918 = VERTEX_POINT('',#919);
#919 = CARTESIAN_POINT('',(9.,52.5,42.5));
#920 = SURFACE_CURVE('',#921,(#926,#933),.PCURVE_S1.);
#921 = CIRCLE('',#922,5.);
#922 = AXIS2_PLACEMENT_3D('',#923,#924,#925);
#923 = CARTESIAN_POINT('',(9.,47.5,42.5));
#924 = DIRECTION('',(1.,0.,0.));
#925 = DIRECTION('',(0.,1.,0.));
#926 = PCURVE('',#426,#927);
#927 = DEFINITIONAL_REPRESENTATION('',(#928),#932);
#928 = CIRCLE('',#929,5.);
#929 = AXIS2_PLACEMENT_2D('',#930,#931);
#930 = CARTESIAN_POINT('',(7.105427357601E-15,0.));
#931 = DIRECTION('',(0.,-1.));
#932 = ( GEOMETRIC_REPRESENTATION_CONTEXT(2) 
PARAMETRIC_REPRESENTATION_CONTEXT() REPRESENTATION_CONTEXT('2D SPACE',''
  ) );
#933 = PCURVE('',#720,#934);
#934 = DEFINITIONAL_REPRESENTATION('',(#935),#939);
#935 = LINE('',#936,#937);
#936 = CARTESIAN_POINT('',(-0.,-5.));
#937 = VECTOR('',#938,1.);
#938 = DIRECTION('',(-1.,0.));
#939 = ( GEOMETRIC_REPRESENTATION_CONTEXT(2) 
PARAMETRIC_REPRESENTATION_CONTEXT() REPRESENTATION_CONTEXT('2D SPACE',''
  ) );
#940 = FACE_BOUND('',#941,.T.);
#941 = EDGE_LOOP('',(#942));
#942 = ORIENTED_EDGE('',*,*,#411,.F.);
#943 = ADVANCED_FACE('',(#944,#979),#663,.F.);
#944 = FACE_BOUND('',#945,.F.);
#945 = EDGE_LOOP('',(#946));
#946 = ORIENTED_EDGE('',*,*,#947,.F.);
#947 = EDGE_CURVE('',#948,#948,#950,.T.);
#948 = VERTEX_POINT('',#949);
#949 = CARTESIAN_POINT('',(3.,62.5,42.5));
#950 = SURFACE_CURVE('',#951,(#956,#967),.PCURVE_S1.);
#951 = CIRCLE('',#952,15.);
#952 = AXIS2_PLACEMENT_3D('',#953,#954,#955);
#953 = CARTESIAN_POINT('',(3.,47.5,42.5));
#954 = DIRECTION('',(-1.,0.,0.));
#955 = DIRECTION('',(0.,1.,0.));
#956 = PCURVE('',#663,#957);
#957 = DEFINITIONAL_REPRESENTATION('',(#958),#966);
#958 = ( BOUNDED_CURVE() B_SPLINE_CURVE(2,(#959,#960,#961,#962,#963,#964
,#965),.UNSPECIFIED.,.T.,.F.) B_SPLINE_CURVE_WITH_KNOTS((1,2,2,2,2,1),(
    -2.094395102393,0.,2.094395102393,4.188790204786,6.28318530718,
8.377580409573),.UNSPECIFIED.) CURVE() GEOMETRIC_REPRESENTATION_ITEM() 
RATIONAL_B_SPLINE_CURVE((1.,0.5,1.,0.5,1.,0.5,1.)) REPRESENTATION_ITEM(
  '') );
#959 = CARTESIAN_POINT('',(0.,-15.));
#960 = CARTESIAN_POINT('',(-25.98076211353,-15.));
#961 = CARTESIAN_POINT('',(-12.99038105676,7.5));
#962 = CARTESIAN_POINT('',(-3.673940397442E-15,30.));
#963 = CARTESIAN_POINT('',(12.990381056767,7.5));
#964 = CARTESIAN_POINT('',(25.980762113533,-15.));
#965 = CARTESIAN_POINT('',(0.,-15.));
#966 = ( GEOMETRIC_REPRESENTATION_CONTEXT(2) 
PARAMETRIC_REPRESENTATION_CONTEXT() REPRESENTATION_CONTEXT('2D SPACE',''
  ) );
#967 = PCURVE('',#968,#973);
#968 = CYLINDRICAL_SURFACE('',#969,15.);
#969 = AXIS2_PLACEMENT_3D('',#970,#971,#972);
#970 = CARTESIAN_POINT('',(-4.,47.5,42.5));
#971 = DIRECTION('',(-1.,-0.,-0.));
#972 = DIRECTION('',(0.,1.,0.));
#973 = DEFINITIONAL_REPRESENTATION('',(#974),#978);
#974 = LINE('',#975,#976);
#975 = CARTESIAN_POINT('',(-6.28318530718,-7.));
#976 = VECTOR('',#977,1.);
#977 = DIRECTION('',(1.,-0.));
#978 = ( GEOMETRIC_REPRESENTATION_CONTEXT(2) 
PARAMETRIC_REPRESENTATION_CONTEXT() REPRESENTATION_CONTEXT('2D SPACE',''
  ) );
#979 = FACE_BOUND('',#980,.F.);
#980 = EDGE_LOOP('',(#981));
#981 = ORIENTED_EDGE('',*,*,#648,.F.);
#982 = ADVANCED_FACE('',(#983),#720,.T.);
#983 = FACE_BOUND('',#984,.F.);
#984 = EDGE_LOOP('',(#985,#1014,#1035,#1036,#1037,#1058,#1059,#1060,
    #1061));
#985 = ORIENTED_EDGE('',*,*,#986,.F.);
#986 = EDGE_CURVE('',#987,#987,#989,.T.);
#987 = VERTEX_POINT('',#988);
#988 = CARTESIAN_POINT('',(4.,52.5,42.5));
#989 = SURFACE_CURVE('',#990,(#995,#1002),.PCURVE_S1.);
#990 = CIRCLE('',#991,5.);
#991 = AXIS2_PLACEMENT_3D('',#992,#993,#994);
#992 = CARTESIAN_POINT('',(4.,47.5,42.5));
#993 = DIRECTION('',(1.,0.,0.));
#994 = DIRECTION('',(0.,1.,0.));
#995 = PCURVE('',#720,#996);
#996 = DEFINITIONAL_REPRESENTATION('',(#997),#1001);
#997 = LINE('',#998,#999);
#998 = CARTESIAN_POINT('',(-0.,0.));
#999 = VECTOR('',#1000,1.);
#1000 = DIRECTION('',(-1.,0.));
#1001 = ( GEOMETRIC_REPRESENTATION_CONTEXT(2) 
PARAMETRIC_REPRESENTATION_CONTEXT() REPRESENTATION_CONTEXT('2D SPACE',''
  ) );
#1002 = PCURVE('',#1003,#1008);
#1003 = PLANE('',#1004);
#1004 = AXIS2_PLACEMENT_3D('',#1005,#1006,#1007);
#1005 = CARTESIAN_POINT('',(4.,47.5,42.5));
#1006 = DIRECTION('',(1.,0.,0.));
#1007 = DIRECTION('',(-0.,0.,1.));
#1008 = DEFINITIONAL_REPRESENTATION('',(#1009),#1013);
#1009 = CIRCLE('',#1010,5.);
#1010 = AXIS2_PLACEMENT_2D('',#1011,#1012);
#1011 = CARTESIAN_POINT('',(0.,0.));
#1012 = DIRECTION('',(0.,-1.));
#1013 = ( GEOMETRIC_REPRESENTATION_CONTEXT(2) 
PARAMETRIC_REPRESENTATION_CONTEXT() REPRESENTATION_CONTEXT('2D SPACE',''
  ) );
#1014 = ORIENTED_EDGE('',*,*,#1015,.T.);
#1015 = EDGE_CURVE('',#987,#769,#1016,.T.);
#1016 = SEAM_CURVE('',#1017,(#1021,#1028),.PCURVE_S1.);
#1017 = LINE('',#1018,#1019);
#1018 = CARTESIAN_POINT('',(4.,52.5,42.5));
#1019 = VECTOR('',#1020,1.);
#1020 = DIRECTION('',(1.,0.,0.));
#1021 = PCURVE('',#720,#1022);
#1022 = DEFINITIONAL_REPRESENTATION('',(#1023),#1027);
#1023 = LINE('',#1024,#1025);
#1024 = CARTESIAN_POINT('',(-6.28318530718,0.));
#1025 = VECTOR('',#1026,1.);
#1026 = DIRECTION('',(-0.,-1.));
#1027 = ( GEOMETRIC_REPRESENTATION_CONTEXT(2) 
PARAMETRIC_REPRESENTATION_CONTEXT() REPRESENTATION_CONTEXT('2D SPACE',''
  ) );
#1028 = PCURVE('',#720,#1029);
#1029 = DEFINITIONAL_REPRESENTATION('',(#1030),#1034);
#1030 = LINE('',#1031,#1032);
#1031 = CARTESIAN_POINT('',(-0.,0.));
#1032 = VECTOR('',#1033,1.);
#1033 = DIRECTION('',(-0.,-1.));
#1034 = ( GEOMETRIC_REPRESENTATION_CONTEXT(2) 
PARAMETRIC_REPRESENTATION_CONTEXT() REPRESENTATION_CONTEXT('2D SPACE',''
  ) );
#1035 = ORIENTED_EDGE('',*,*,#768,.T.);
#1036 = ORIENTED_EDGE('',*,*,#680,.T.);
#1037 = ORIENTED_EDGE('',*,*,#1038,.T.);
#1038 = EDGE_CURVE('',#683,#918,#1039,.T.);
#1039 = SEAM_CURVE('',#1040,(#1044,#1051),.PCURVE_S1.);
#1040 = LINE('',#1041,#1042);
#1041 = CARTESIAN_POINT('',(4.,52.5,42.5));
#1042 = VECTOR('',#1043,1.);
#1043 = DIRECTION('',(1.,0.,0.));
#1044 = PCURVE('',#720,#1045);
#1045 = DEFINITIONAL_REPRESENTATION('',(#1046),#1050);
#1046 = LINE('',#1047,#1048);
#1047 = CARTESIAN_POINT('',(-6.28318530718,0.));
#1048 = VECTOR('',#1049,1.);
#1049 = DIRECTION('',(-0.,-1.));
#1050 = ( GEOMETRIC_REPRESENTATION_CONTEXT(2) 
PARAMETRIC_REPRESENTATION_CONTEXT() REPRESENTATION_CONTEXT('2D SPACE',''
  ) );
#1051 = PCURVE('',#720,#1052);
#1052 = DEFINITIONAL_REPRESENTATION('',(#1053),#1057);
#1053 = LINE('',#1054,#1055);
#1054 = CARTESIAN_POINT('',(-0.,0.));
#1055 = VECTOR('',#1056,1.);
#1056 = DIRECTION('',(-0.,-1.));
#1057 = ( GEOMETRIC_REPRESENTATION_CONTEXT(2) 
PARAMETRIC_REPRESENTATION_CONTEXT() REPRESENTATION_CONTEXT('2D SPACE',''
  ) );
#1058 = ORIENTED_EDGE('',*,*,#917,.T.);
#1059 = ORIENTED_EDGE('',*,*,#1038,.F.);
#1060 = ORIENTED_EDGE('',*,*,#824,.T.);
#1061 = ORIENTED_EDGE('',*,*,#1015,.F.);
#1062 = ADVANCED_FACE('',(#1063),#968,.T.);
#1063 = FACE_BOUND('',#1064,.F.);
#1064 = EDGE_LOOP('',(#1065,#1066,#1089,#1111));
#1065 = ORIENTED_EDGE('',*,*,#947,.T.);
#1066 = ORIENTED_EDGE('',*,*,#1067,.T.);
#1067 = EDGE_CURVE('',#948,#1068,#1070,.T.);
#1068 = VERTEX_POINT('',#1069);
#1069 = CARTESIAN_POINT('',(4.,62.5,42.5));
#1070 = SEAM_CURVE('',#1071,(#1075,#1082),.PCURVE_S1.);
#1071 = LINE('',#1072,#1073);
#1072 = CARTESIAN_POINT('',(-4.,62.5,42.5));
#1073 = VECTOR('',#1074,1.);
#1074 = DIRECTION('',(1.,0.,0.));
#1075 = PCURVE('',#968,#1076);
#1076 = DEFINITIONAL_REPRESENTATION('',(#1077),#1081);
#1077 = LINE('',#1078,#1079);
#1078 = CARTESIAN_POINT('',(-6.28318530718,0.));
#1079 = VECTOR('',#1080,1.);
#1080 = DIRECTION('',(-0.,-1.));
#1081 = ( GEOMETRIC_REPRESENTATION_CONTEXT(2) 
PARAMETRIC_REPRESENTATION_CONTEXT() REPRESENTATION_CONTEXT('2D SPACE',''
  ) );
#1082 = PCURVE('',#968,#1083);
#1083 = DEFINITIONAL_REPRESENTATION('',(#1084),#1088);
#1084 = LINE('',#1085,#1086);
#1085 = CARTESIAN_POINT('',(-0.,0.));
#1086 = VECTOR('',#1087,1.);
#1087 = DIRECTION('',(-0.,-1.));
#1088 = ( GEOMETRIC_REPRESENTATION_CONTEXT(2) 
PARAMETRIC_REPRESENTATION_CONTEXT() REPRESENTATION_CONTEXT('2D SPACE',''
  ) );
#1089 = ORIENTED_EDGE('',*,*,#1090,.T.);
#1090 = EDGE_CURVE('',#1068,#1068,#1091,.T.);
#1091 = SURFACE_CURVE('',#1092,(#1097,#1104),.PCURVE_S1.);
#1092 = CIRCLE('',#1093,15.);
#1093 = AXIS2_PLACEMENT_3D('',#1094,#1095,#1096);
#1094 = CARTESIAN_POINT('',(4.,47.5,42.5));
#1095 = DIRECTION('',(1.,0.,0.));
#1096 = DIRECTION('',(0.,1.,0.));
#1097 = PCURVE('',#968,#1098);
#1098 = DEFINITIONAL_REPRESENTATION('',(#1099),#1103);
#1099 = LINE('',#1100,#1101);
#1100 = CARTESIAN_POINT('',(-0.,-8.));
#1101 = VECTOR('',#1102,1.);
#1102 = DIRECTION('',(-1.,0.));
#1103 = ( GEOMETRIC_REPRESENTATION_CONTEXT(2) 
PARAMETRIC_REPRESENTATION_CONTEXT() REPRESENTATION_CONTEXT('2D SPACE',''
  ) );
#1104 = PCURVE('',#1003,#1105);
#1105 = DEFINITIONAL_REPRESENTATION('',(#1106),#1110);
#1106 = CIRCLE('',#1107,15.);
#1107 = AXIS2_PLACEMENT_2D('',#1108,#1109);
#1108 = CARTESIAN_POINT('',(0.,0.));
#1109 = DIRECTION('',(0.,-1.));
#1110 = ( GEOMETRIC_REPRESENTATION_CONTEXT(2) 
PARAMETRIC_REPRESENTATION_CONTEXT() REPRESENTATION_CONTEXT('2D SPACE',''
  ) );
#1111 = ORIENTED_EDGE('',*,*,#1067,.F.);
#1112 = ADVANCED_FACE('',(#1113,#1116,#1147,#1150),#1003,.T.);
#1113 = FACE_BOUND('',#1114,.T.);
#1114 = EDGE_LOOP('',(#1115));
#1115 = ORIENTED_EDGE('',*,*,#1090,.T.);
#1116 = FACE_BOUND('',#1117,.T.);
#1117 = EDGE_LOOP('',(#1118));
#1118 = ORIENTED_EDGE('',*,*,#1119,.F.);
#1119 = EDGE_CURVE('',#1120,#1120,#1122,.T.);
#1120 = VERTEX_POINT('',#1121);
#1121 = CARTESIAN_POINT('',(4.,47.5,37.));
#1122 = SURFACE_CURVE('',#1123,(#1128,#1135),.PCURVE_S1.);
#1123 = CIRCLE('',#1124,1.5);
#1124 = AXIS2_PLACEMENT_3D('',#1125,#1126,#1127);
#1125 = CARTESIAN_POINT('',(4.,47.5,35.5));
#1126 = DIRECTION('',(1.,0.,0.));
#1127 = DIRECTION('',(-0.,0.,1.));
#1128 = PCURVE('',#1003,#1129);
#1129 = DEFINITIONAL_REPRESENTATION('',(#1130),#1134);
#1130 = CIRCLE('',#1131,1.5);
#1131 = AXIS2_PLACEMENT_2D('',#1132,#1133);
#1132 = CARTESIAN_POINT('',(-7.,0.));
#1133 = DIRECTION('',(1.,0.));
#1134 = ( GEOMETRIC_REPRESENTATION_CONTEXT(2) 
PARAMETRIC_REPRESENTATION_CONTEXT() REPRESENTATION_CONTEXT('2D SPACE',''
  ) );
#1135 = PCURVE('',#1136,#1141);
#1136 = CYLINDRICAL_SURFACE('',#1137,1.5);
#1137 = AXIS2_PLACEMENT_3D('',#1138,#1139,#1140);
#1138 = CARTESIAN_POINT('',(2.,47.5,35.5));
#1139 = DIRECTION('',(1.,0.,0.));
#1140 = DIRECTION('',(-0.,0.,1.));
#1141 = DEFINITIONAL_REPRESENTATION('',(#1142),#1146);
#1142 = LINE('',#1143,#1144);
#1143 = CARTESIAN_POINT('',(0.,2.));
#1144 = VECTOR('',#1145,1.);
#1145 = DIRECTION('',(1.,0.));
#1146 = ( GEOMETRIC_REPRESENTATION_CONTEXT(2) 
PARAMETRIC_REPRESENTATION_CONTEXT() REPRESENTATION_CONTEXT('2D SPACE',''
  ) );
#1147 = FACE_BOUND('',#1148,.T.);
#1148 = EDGE_LOOP('',(#1149));
#1149 = ORIENTED_EDGE('',*,*,#986,.F.);
#1150 = FACE_BOUND('',#1151,.T.);
#1151 = EDGE_LOOP('',(#1152));
#1152 = ORIENTED_EDGE('',*,*,#1153,.F.);
#1153 = EDGE_CURVE('',#1154,#1154,#1156,.T.);
#1154 = VERTEX_POINT('',#1155);
#1155 = CARTESIAN_POINT('',(4.,47.5,51.));
#1156 = SURFACE_CURVE('',#1157,(#1162,#1169),.PCURVE_S1.);
#1157 = CIRCLE('',#1158,1.5);
#1158 = AXIS2_PLACEMENT_3D('',#1159,#1160,#1161);
#1159 = CARTESIAN_POINT('',(4.,47.5,49.5));
#1160 = DIRECTION('',(1.,0.,0.));
#1161 = DIRECTION('',(-0.,0.,1.));
#1162 = PCURVE('',#1003,#1163);
#1163 = DEFINITIONAL_REPRESENTATION('',(#1164),#1168);
#1164 = CIRCLE('',#1165,1.5);
#1165 = AXIS2_PLACEMENT_2D('',#1166,#1167);
#1166 = CARTESIAN_POINT('',(7.,0.));
#1167 = DIRECTION('',(1.,0.));
#1168 = ( GEOMETRIC_REPRESENTATION_CONTEXT(2) 
PARAMETRIC_REPRESENTATION_CONTEXT() REPRESENTATION_CONTEXT('2D SPACE',''
  ) );
#1169 = PCURVE('',#1170,#1175);
#1170 = CYLINDRICAL_SURFACE('',#1171,1.5);
#1171 = AXIS2_PLACEMENT_3D('',#1172,#1173,#1174);
#1172 = CARTESIAN_POINT('',(2.,47.5,49.5));
#1173 = DIRECTION('',(1.,0.,0.));
#1174 = DIRECTION('',(-0.,0.,1.));
#1175 = DEFINITIONAL_REPRESENTATION('',(#1176),#1180);
#1176 = LINE('',#1177,#1178);
#1177 = CARTESIAN_POINT('',(0.,2.));
#1178 = VECTOR('',#1179,1.);
#1179 = DIRECTION('',(1.,0.));
#1180 = ( GEOMETRIC_REPRESENTATION_CONTEXT(2) 
PARAMETRIC_REPRESENTATION_CONTEXT() REPRESENTATION_CONTEXT('2D SPACE',''
  ) );
#1181 = ADVANCED_FACE('',(#1182),#1136,.F.);
#1182 = FACE_BOUND('',#1183,.F.);
#1183 = EDGE_LOOP('',(#1184,#1185,#1208,#1235));
#1184 = ORIENTED_EDGE('',*,*,#1119,.F.);
#1185 = ORIENTED_EDGE('',*,*,#1186,.F.);
#1186 = EDGE_CURVE('',#1187,#1120,#1189,.T.);
#1187 = VERTEX_POINT('',#1188);
#1188 = CARTESIAN_POINT('',(2.,47.5,37.));
#1189 = SEAM_CURVE('',#1190,(#1194,#1201),.PCURVE_S1.);
#1190 = LINE('',#1191,#1192);
#1191 = CARTESIAN_POINT('',(2.,47.5,37.));
#1192 = VECTOR('',#1193,1.);
#1193 = DIRECTION('',(1.,0.,0.));
#1194 = PCURVE('',#1136,#1195);
#1195 = DEFINITIONAL_REPRESENTATION('',(#1196),#1200);
#1196 = LINE('',#1197,#1198);
#1197 = CARTESIAN_POINT('',(6.28318530718,-0.));
#1198 = VECTOR('',#1199,1.);
#1199 = DIRECTION('',(0.,1.));
#1200 = ( GEOMETRIC_REPRESENTATION_CONTEXT(2) 
PARAMETRIC_REPRESENTATION_CONTEXT() REPRESENTATION_CONTEXT('2D SPACE',''
  ) );
#1201 = PCURVE('',#1136,#1202);
#1202 = DEFINITIONAL_REPRESENTATION('',(#1203),#1207);
#1203 = LINE('',#1204,#1205);
#1204 = CARTESIAN_POINT('',(0.,-0.));
#1205 = VECTOR('',#1206,1.);
#1206 = DIRECTION('',(0.,1.));
#1207 = ( GEOMETRIC_REPRESENTATION_CONTEXT(2) 
PARAMETRIC_REPRESENTATION_CONTEXT() REPRESENTATION_CONTEXT('2D SPACE',''
  ) );
#1208 = ORIENTED_EDGE('',*,*,#1209,.T.);
#1209 = EDGE_CURVE('',#1187,#1187,#1210,.T.);
#1210 = SURFACE_CURVE('',#1211,(#1216,#1223),.PCURVE_S1.);
#1211 = CIRCLE('',#1212,1.5);
#1212 = AXIS2_PLACEMENT_3D('',#1213,#1214,#1215);
#1213 = CARTESIAN_POINT('',(2.,47.5,35.5));
#1214 = DIRECTION('',(1.,0.,0.));
#1215 = DIRECTION('',(-0.,0.,1.));
#1216 = PCURVE('',#1136,#1217);
#1217 = DEFINITIONAL_REPRESENTATION('',(#1218),#1222);
#1218 = LINE('',#1219,#1220);
#1219 = CARTESIAN_POINT('',(0.,0.));
#1220 = VECTOR('',#1221,1.);
#1221 = DIRECTION('',(1.,0.));
#1222 = ( GEOMETRIC_REPRESENTATION_CONTEXT(2) 
PARAMETRIC_REPRESENTATION_CONTEXT() REPRESENTATION_CONTEXT('2D SPACE',''
  ) );
#1223 = PCURVE('',#1224,#1229);
#1224 = PLANE('',#1225);
#1225 = AXIS2_PLACEMENT_3D('',#1226,#1227,#1228);
#1226 = CARTESIAN_POINT('',(2.,47.5,35.5));
#1227 = DIRECTION('',(1.,0.,0.));
#1228 = DIRECTION('',(-0.,0.,1.));
#1229 = DEFINITIONAL_REPRESENTATION('',(#1230),#1234);
#1230 = CIRCLE('',#1231,1.5);
#1231 = AXIS2_PLACEMENT_2D('',#1232,#1233);
#1232 = CARTESIAN_POINT('',(0.,0.));
#1233 = DIRECTION('',(1.,0.));
#1234 = ( GEOMETRIC_REPRESENTATION_CONTEXT(2) 
PARAMETRIC_REPRESENTATION_CONTEXT() REPRESENTATION_CONTEXT('2D SPACE',''
  ) );
#1235 = ORIENTED_EDGE('',*,*,#1186,.T.);
#1236 = ADVANCED_FACE('',(#1237),#1170,.F.);
#1237 = FACE_BOUND('',#1238,.F.);
#1238 = EDGE_LOOP('',(#1239,#1240,#1263,#1290));
#1239 = ORIENTED_EDGE('',*,*,#1153,.F.);
#1240 = ORIENTED_EDGE('',*,*,#1241,.F.);
#1241 = EDGE_CURVE('',#1242,#1154,#1244,.T.);
#1242 = VERTEX_POINT('',#1243);
#1243 = CARTESIAN_POINT('',(2.,47.5,51.));
#1244 = SEAM_CURVE('',#1245,(#1249,#1256),.PCURVE_S1.);
#1245 = LINE('',#1246,#1247);
#1246 = CARTESIAN_POINT('',(2.,47.5,51.));
#1247 = VECTOR('',#1248,1.);
#1248 = DIRECTION('',(1.,0.,0.));
#1249 = PCURVE('',#1170,#1250);
#1250 = DEFINITIONAL_REPRESENTATION('',(#1251),#1255);
#1251 = LINE('',#1252,#1253);
#1252 = CARTESIAN_POINT('',(6.28318530718,-0.));
#1253 = VECTOR('',#1254,1.);
#1254 = DIRECTION('',(0.,1.));
#1255 = ( GEOMETRIC_REPRESENTATION_CONTEXT(2) 
PARAMETRIC_REPRESENTATION_CONTEXT() REPRESENTATION_CONTEXT('2D SPACE',''
  ) );
#1256 = PCURVE('',#1170,#1257);
#1257 = DEFINITIONAL_REPRESENTATION('',(#1258),#1262);
#1258 = LINE('',#1259,#1260);
#1259 = CARTESIAN_POINT('',(0.,-0.));
#1260 = VECTOR('',#1261,1.);
#1261 = DIRECTION('',(0.,1.));
#1262 = ( GEOMETRIC_REPRESENTATION_CONTEXT(2) 
PARAMETRIC_REPRESENTATION_CONTEXT() REPRESENTATION_CONTEXT('2D SPACE',''
  ) );
#1263 = ORIENTED_EDGE('',*,*,#1264,.T.);
#1264 = EDGE_CURVE('',#1242,#1242,#1265,.T.);
#1265 = SURFACE_CURVE('',#1266,(#1271,#1278),.PCURVE_S1.);
#1266 = CIRCLE('',#1267,1.5);
#1267 = AXIS2_PLACEMENT_3D('',#1268,#1269,#1270);
#1268 = CARTESIAN_POINT('',(2.,47.5,49.5));
#1269 = DIRECTION('',(1.,0.,0.));
#1270 = DIRECTION('',(-0.,0.,1.));
#1271 = PCURVE('',#1170,#1272);
#1272 = DEFINITIONAL_REPRESENTATION('',(#1273),#1277);
#1273 = LINE('',#1274,#1275);
#1274 = CARTESIAN_POINT('',(0.,0.));
#1275 = VECTOR('',#1276,1.);
#1276 = DIRECTION('',(1.,0.));
#1277 = ( GEOMETRIC_REPRESENTATION_CONTEXT(2) 
PARAMETRIC_REPRESENTATION_CONTEXT() REPRESENTATION_CONTEXT('2D SPACE',''
  ) );
#1278 = PCURVE('',#1279,#1284);
#1279 = PLANE('',#1280);
#1280 = AXIS2_PLACEMENT_3D('',#1281,#1282,#1283);
#1281 = CARTESIAN_POINT('',(2.,47.5,49.5));
#1282 = DIRECTION('',(1.,0.,0.));
#1283 = DIRECTION('',(-0.,0.,1.));
#1284 = DEFINITIONAL_REPRESENTATION('',(#1285),#1289);
#1285 = CIRCLE('',#1286,1.5);
#1286 = AXIS2_PLACEMENT_2D('',#1287,#1288);
#1287 = CARTESIAN_POINT('',(0.,0.));
#1288 = DIRECTION('',(1.,0.));
#1289 = ( GEOMETRIC_REPRESENTATION_CONTEXT(2) 
PARAMETRIC_REPRESENTATION_CONTEXT() REPRESENTATION_CONTEXT('2D SPACE',''
  ) );
#1290 = ORIENTED_EDGE('',*,*,#1241,.T.);
#1291 = ADVANCED_FACE('',(#1292),#1224,.T.);
#1292 = FACE_BOUND('',#1293,.F.);
#1293 = EDGE_LOOP('',(#1294));
#1294 = ORIENTED_EDGE('',*,*,#1209,.F.);
#1295 = ADVANCED_FACE('',(#1296),#1279,.T.);
#1296 = FACE_BOUND('',#1297,.F.);
#1297 = EDGE_LOOP('',(#1298));
#1298 = ORIENTED_EDGE('',*,*,#1264,.F.);
#1299 = ( GEOMETRIC_REPRESENTATION_CONTEXT(3) 
GLOBAL_UNCERTAINTY_ASSIGNED_CONTEXT((#1303)) 
GLOBAL_UNIT_ASSIGNED_CONTEXT((#1300,#1301,#1302)) REPRESENTATION_CONTEXT
('Context #1','3D Context with UNIT and UNCERTAINTY') );
#1300 = ( LENGTH_UNIT() NAMED_UNIT(*) SI_UNIT(.MILLI.,.METRE.) );
#1301 = ( NAMED_UNIT(*) PLANE_ANGLE_UNIT() SI_UNIT($,.RADIAN.) );
#1302 = ( NAMED_UNIT(*) SI_UNIT($,.STERADIAN.) SOLID_ANGLE_UNIT() );
#1303 = UNCERTAINTY_MEASURE_WITH_UNIT(LENGTH_MEASURE(1.E-07),#1300,
  'distance_accuracy_value','confusion accuracy');
#1304 = PRODUCT_RELATED_PRODUCT_CATEGORY('part',$,(#7));
ENDSEC;
END-ISO-10303-21;
