ISO-10303-21;
HEADER;
FILE_DESCRIPTION(('Open CASCADE Model'),'2;1');
FILE_NAME('Open CASCADE Shape Model','2026-10-10T13:40:51',('Author'),(
    'Open CASCADE'),'Open CASCADE STEP processor 7.8','Open CASCADE 7.8'
  ,'Unknown');
FILE_SCHEMA(('AUTOMOTIVE_DESIGN { 1 0 10303 214 1 1 1 1 }'));
ENDSEC;
DATA;
#1 = APPLICATION_PROTOCOL_DEFINITION('international standard',
  'automotive_design',2000,#2);
#2 = APPLICATION_CONTEXT(
  'core data for automotive mechanical design processes');
#3 = SHAPE_DEFINITION_REPRESENTATION(#4,#10);
#4 = PRODUCT_DEFINITION_SHAPE('','',#5);
#5 = PRODUCT_DEFINITION('design','',#6,#9);
#6 = PRODUCT_DEFINITION_FORMATION('','',#7);
#7 = PRODUCT('Open CASCADE STEP translator 7.8 11',
  'Open CASCADE STEP translator 7.8 11','',(#8));
#8 = PRODUCT_CONTEXT('',#2,'mechanical');
#9 = PRODUCT_DEFINITION_CONTEXT('part definition',#2,'design');
#10 = ADVANCED_BREP_SHAPE_REPRESENTATION('',(#11,#15),#1299);
#11 = AXIS2_PLACEMENT_3D('',#12,#13,#14);
#12 = CARTESIAN_POINT('',(0.,0.,0.));
#13 = DIRECTION('',(0.,0.,1.));
#14 = DIRECTION('',(1.,0.,-0.));
#15 = MANIFOLD_SOLID_BREP('',#16);
#16 = CLOSED_SHELL('',(#17,#109,#144,#179,#621,#676,#913,#943,#982,#1062
    ,#1112,#1181,#1236,#1291,#1295));
#17 = ADVANCED_FACE('',(#18),#31,.T.);
#18 = FACE_BOUND('',#19,.F.);
#19 = EDGE_LOOP('',(#20,#54,#77,#108));
#20 = ORIENTED_EDGE('',*,*,#21,.F.);
#21 = EDGE_CURVE('',#22,#22,#24,.T.);
#22 = VERTEX_POINT('',#23);
#23 = CARTESIAN_POINT('',(-4.,62.5,42.5));
#24 = SURFACE_CURVE('',#25,(#30,#42),.PCURVE_S1.);
#25 = CIRCLE('',#26,15.);
#26 = AXIS2_PLACEMENT_3D('',#27,#28,#29);
#27 = CARTESIAN_POINT('',(-4.,47.5,42.5));
#28 = DIRECTION('',(1.,0.,0.));
#29 = DIRECTION('',(0.,1.,0.));
#30 = PCURVE('',#31,#36);
#31 = CYLINDRICAL_SURFACE('',#32,15.);
#32 = AXIS2_PLACEMENT_3D('',#33,#34,#35);
#33 = CARTESIAN_POINT('',(-4.,47.5,42.5));
#34 = DIRECTION('',(-1.,-0.,-0.));
#35 = DIRECTION('',(0.,1.,0.));
#36 = DEFINITIONAL_REPRESENTATION('',(#37),#41);
#37 = LINE('',#38,#39);
#38 = CARTESIAN_POINT('',(-0.,0.));
#39 = VECTOR('',#40,1.);
#40 = DIRECTION('',(-1.,0.));
#41 = ( GEOMETRIC_REPRESENTATION_CONTEXT(2) 
PARAMETRIC_REPRESENTATION_CONTEXT() REPRESENTATION_CONTEXT('2D SPACE',''
  ) );
#42 = PCURVE('',#43,#48);
#43 = PLANE('',#44);
#44 = AXIS2_PLACEMENT_3D('',#45,#46,#47);
#45 = CARTESIAN_POINT('',(-4.,47.5,42.5));
#46 = DIRECTION('',(1.,0.,0.));
#47 = DIRECTION('',(-0.,0.,1.));
#48 = DEFINITIONAL_REPRESENTATION('',(#49),#53);
#49 = CIRCLE('',#50,15.);
#50 = AXIS2_PLACEMENT_2D('',#51,#52);
#51 = CARTESIAN_POINT('',(0.,0.));
#52 = DIRECTION('',(0.,-1.));
#53 = ( GEOMETRIC_REPRESENTATION_CONTEXT(2) 
PARAMETRIC_REPRESENTATION_CONTEXT() REPRESENTATION_CONTEXT('2D SPACE',''
  ) );
#54 = ORIENTED_EDGE('',*,*,#55,.T.);
#55 = EDGE_CURVE('',#22,#56,#58,.T.);
#56 = VERTEX_POINT('',#57);
#57 = CARTESIAN_POINT('',(-3.,62.5,42.5));
#58 = SEAM_CURVE('',#59,(#63,#70),.PCURVE_S1.);
#59 = LINE('',#60,#61);
#60 = CARTESIAN_POINT('',(-4.,62.5,42.5));
#61 = VECTOR('',#62,1.);
#62 = DIRECTION('',(1.,0.,0.));
#63 = PCURVE('',#31,#64);
#64 = DEFINITIONAL_REPRESENTATION('',(#65),#69);
#65 = LINE('',#66,#67);
#66 = CARTESIAN_POINT('',(-6.28318530718,0.));
#67 = VECTOR('',#68,1.);
#68 = DIRECTION('',(-0.,-1.));
#69 = ( GEOMETRIC_REPRESENTATION_CONTEXT(2) 
PARAMETRIC_REPRESENTATION_CONTEXT() REPRESENTATION_CONTEXT('2D SPACE',''
  ) );
#70 = PCURVE('',#31,#71);
#71 = DEFINITIONAL_REPRESENTATION('',(#72),#76);
#72 = LINE('',#73,#74);
#73 = CARTESIAN_POINT('',(-0.,0.));
#74 = VECTOR('',#75,1.);
#75 = DIRECTION('',(-0.,-1.));
#76 = ( GEOMETRIC_REPRESENTATION_CONTEXT(2) 
PARAMETRIC_REPRESENTATION_CONTEXT() REPRESENTATION_CONTEXT('2D SPACE',''
  ) );
#77 = ORIENTED_EDGE('',*,*,#78,.F.);
#78 = EDGE_CURVE('',#56,#56,#79,.T.);
#79 = SURFACE_CURVE('',#80,(#85,#92),.PCURVE_S1.);
#80 = CIRCLE('',#81,15.);
#81 = AXIS2_PLACEMENT_3D('',#82,#83,#84);
#82 = CARTESIAN_POINT('',(-3.,47.5,42.5));
#83 = DIRECTION('',(-1.,0.,0.));
#84 = DIRECTION('',(0.,1.,0.));
#85 = PCURVE('',#31,#86);
#86 = DEFINITIONAL_REPRESENTATION('',(#87),#91);
#87 = LINE('',#88,#89);
#88 = CARTESIAN_POINT('',(-6.28318530718,-1.));
#89 = VECTOR('',#90,1.);
#90 = DIRECTION('',(1.,-0.));
#91 = ( GEOMETRIC_REPRESENTATION_CONTEXT(2) 
PARAMETRIC_REPRESENTATION_CONTEXT() REPRESENTATION_CONTEXT('2D SPACE',''
  ) );
#92 = PCURVE('',#93,#98);
#93 = PLANE('',#94);
#94 = AXIS2_PLACEMENT_3D('',#95,#96,#97);
#95 = CARTESIAN_POINT('',(-3.,47.5,42.5));
#96 = DIRECTION('',(1.,0.,0.));
#97 = DIRECTION('',(-0.,0.,1.));
#98 = DEFINITIONAL_REPRESENTATION('',(#99),#107);
#99 = ( BOUNDED_CURVE() B_SPLINE_CURVE(2,(#100,#101,#102,#103,#104,#105,
#106),.UNSPECIFIED.,.T.,.F.) B_SPLINE_CURVE_WITH_KNOTS((1,2,2,2,2,1),(
    -2.094395102393,0.,2.094395102393,4.188790204786,6.28318530718,
8.377580409573),.UNSPECIFIED.) CURVE() GEOMETRIC_REPRESENTATION_ITEM() 
RATIONAL_B_SPLINE_CURVE((1.,0.5,1.,0.5,1.,0.5,1.)) REPRESENTATION_ITEM(
  '') );
#100 = CARTESIAN_POINT('',(0.,-15.));
#101 = CARTESIAN_POINT('',(-25.98076211353,-15.));
#102 = CARTESIAN_POINT('',(-12.99038105676,7.5));
#103 = CARTESIAN_POINT('',(-3.673940397442E-15,30.));
#104 = CARTESIAN_POINT('',(12.990381056767,7.5));
#105 = CARTESIAN_POINT('',(25.980762113533,-15.));
#106 = CARTESIAN_POINT('',(0.,-15.));
#107 = ( GEOMETRIC_REPRESENTATION_CONTEXT(2) 
PARAMETRIC_REPRESENTATION_CONTEXT() REPRESENTATION_CONTEXT('2D SPACE',''
  ) );
#108 = ORIENTED_EDGE('',*,*,#55,.F.);
#109 = ADVANCED_FACE('',(#110,#113),#43,.F.);
#110 = FACE_BOUND('',#111,.F.);
#111 = EDGE_LOOP('',(#112));
#112 = ORIENTED_EDGE('',*,*,#21,.T.);
#113 = FACE_BOUND('',#114,.F.);
#114 = EDGE_LOOP('',(#115));
#115 = ORIENTED_EDGE('',*,*,#116,.F.);
#116 = EDGE_CURVE('',#117,#117,#119,.T.);
#117 = VERTEX_POINT('',#118);
#118 = CARTESIAN_POINT('',(-4.,49.5,42.5));
#119 = SURFACE_CURVE('',#120,(#125,#132),.PCURVE_S1.);
#120 = CIRCLE('',#121,2.);
#121 = AXIS2_PLACEMENT_3D('',#122,#123,#124);
#122 = CARTESIAN_POINT('',(-4.,47.5,42.5));
#123 = DIRECTION('',(1.,0.,0.));
#124 = DIRECTION('',(0.,1.,0.));
#125 = PCURVE('',#43,#126);
#126 = DEFINITIONAL_REPRESENTATION('',(#127),#131);
#127 = CIRCLE('',#128,2.);
#128 = AXIS2_PLACEMENT_2D('',#129,#130);
#129 = CARTESIAN_POINT('',(0.,0.));
#130 = DIRECTION('',(0.,-1.));
#131 = ( GEOMETRIC_REPRESENTATION_CONTEXT(2) 
PARAMETRIC_REPRESENTATION_CONTEXT() REPRESENTATION_CONTEXT('2D SPACE',''
  ) );
#132 = PCURVE('',#133,#138);
#133 = CYLINDRICAL_SURFACE('',#134,2.);
#134 = AXIS2_PLACEMENT_3D('',#135,#136,#137);
#135 = CARTESIAN_POINT('',(-4.,47.5,42.5));
#136 = DIRECTION('',(-1.,-0.,-0.));
#137 = DIRECTION('',(0.,1.,0.));
#138 = DEFINITIONAL_REPRESENTATION('',(#139),#143);
#139 = LINE('',#140,#141);
#140 = CARTESIAN_POINT('',(-0.,0.));
#141 = VECTOR('',#142,1.);
#142 = DIRECTION('',(-1.,0.));
#143 = ( GEOMETRIC_REPRESENTATION_CONTEXT(2) 
PARAMETRIC_REPRESENTATION_CONTEXT() REPRESENTATION_CONTEXT('2D SPACE',''
  ) );
#144 = ADVANCED_FACE('',(#145,#148),#93,.T.);
#145 = FACE_BOUND('',#146,.T.);
#146 = EDGE_LOOP('',(#147));
#147 = ORIENTED_EDGE('',*,*,#78,.F.);
#148 = FACE_BOUND('',#149,.T.);
#149 = EDGE_LOOP('',(#150));
#150 = ORIENTED_EDGE('',*,*,#151,.F.);
#151 = EDGE_CURVE('',#152,#152,#154,.T.);
#152 = VERTEX_POINT('',#153);
#153 = CARTESIAN_POINT('',(-3.,61.,42.5));
#154 = SURFACE_CURVE('',#155,(#160,#167),.PCURVE_S1.);
#155 = CIRCLE('',#156,13.5);
#156 = AXIS2_PLACEMENT_3D('',#157,#158,#159);
#157 = CARTESIAN_POINT('',(-3.,47.5,42.5));
#158 = DIRECTION('',(1.,0.,0.));
#159 = DIRECTION('',(0.,1.,0.));
#160 = PCURVE('',#93,#161);
#161 = DEFINITIONAL_REPRESENTATION('',(#162),#166);
#162 = CIRCLE('',#163,13.5);
#163 = AXIS2_PLACEMENT_2D('',#164,#165);
#164 = CARTESIAN_POINT('',(0.,-7.105427357601E-15));
#165 = DIRECTION('',(0.,-1.));
#166 = ( GEOMETRIC_REPRESENTATION_CONTEXT(2) 
PARAMETRIC_REPRESENTATION_CONTEXT() REPRESENTATION_CONTEXT('2D SPACE',''
  ) );
#167 = PCURVE('',#168,#173);
#168 = CYLINDRICAL_SURFACE('',#169,13.5);
#169 = AXIS2_PLACEMENT_3D('',#170,#171,#172);
#170 = CARTESIAN_POINT('',(-3.,47.5,42.5));
#171 = DIRECTION('',(-1.,-0.,-0.));
#172 = DIRECTION('',(0.,1.,0.));
#173 = DEFINITIONAL_REPRESENTATION('',(#174),#178);
#174 = LINE('',#175,#176);
#175 = CARTESIAN_POINT('',(-0.,0.));
#176 = VECTOR('',#177,1.);
#177 = DIRECTION('',(-1.,0.));
#178 = ( GEOMETRIC_REPRESENTATION_CONTEXT(2) 
PARAMETRIC_REPRESENTATION_CONTEXT() REPRESENTATION_CONTEXT('2D SPACE',''
  ) );
#179 = ADVANCED_FACE('',(#180),#133,.F.);
#180 = FACE_BOUND('',#181,.T.);
#181 = EDGE_LOOP('',(#182,#205,#206,#207,#307,#402,#425,#452,#453));
#182 = ORIENTED_EDGE('',*,*,#183,.F.);
#183 = EDGE_CURVE('',#117,#184,#186,.T.);
#184 = VERTEX_POINT('',#185);
#185 = CARTESIAN_POINT('',(4.75,49.5,42.5));
#186 = SEAM_CURVE('',#187,(#191,#198),.PCURVE_S1.);
#187 = LINE('',#188,#189);
#188 = CARTESIAN_POINT('',(-4.,49.5,42.5));
#189 = VECTOR('',#190,1.);
#190 = DIRECTION('',(1.,0.,0.));
#191 = PCURVE('',#133,#192);
#192 = DEFINITIONAL_REPRESENTATION('',(#193),#197);
#193 = LINE('',#194,#195);
#194 = CARTESIAN_POINT('',(-6.28318530718,0.));
#195 = VECTOR('',#196,1.);
#196 = DIRECTION('',(-0.,-1.));
#197 = ( GEOMETRIC_REPRESENTATION_CONTEXT(2) 
PARAMETRIC_REPRESENTATION_CONTEXT() REPRESENTATION_CONTEXT('2D SPACE',''
  ) );
#198 = PCURVE('',#133,#199);
#199 = DEFINITIONAL_REPRESENTATION('',(#200),#204);
#200 = LINE('',#201,#202);
#201 = CARTESIAN_POINT('',(-0.,0.));
#202 = VECTOR('',#203,1.);
#203 = DIRECTION('',(-0.,-1.));
#204 = ( GEOMETRIC_REPRESENTATION_CONTEXT(2) 
PARAMETRIC_REPRESENTATION_CONTEXT() REPRESENTATION_CONTEXT('2D SPACE',''
  ) );
#205 = ORIENTED_EDGE('',*,*,#116,.F.);
#206 = ORIENTED_EDGE('',*,*,#183,.T.);
#207 = ORIENTED_EDGE('',*,*,#208,.T.);
#208 = EDGE_CURVE('',#184,#209,#211,.T.);
#209 = VERTEX_POINT('',#210);
#210 = CARTESIAN_POINT('',(6.,49.0612494996,43.75));
#211 = SURFACE_CURVE('',#212,(#240,#271),.PCURVE_S1.);
#212 = B_SPLINE_CURVE_WITH_KNOTS('',6,(#213,#214,#215,#216,#217,#218,
    #219,#220,#221,#222,#223,#224,#225,#226,#227,#228,#229,#230,#231,
    #232,#233,#234,#235,#236,#237,#238,#239),.UNSPECIFIED.,.F.,.F.,(7,5,
    5,5,5,7),(0.,0.254558256592,0.35373881668,0.576130154139,
    0.796830549822,1.),.UNSPECIFIED.);
#213 = CARTESIAN_POINT('',(4.75,49.5,42.5));
#214 = CARTESIAN_POINT('',(4.75,49.5,42.594157355836));
#215 = CARTESIAN_POINT('',(4.758510967913,49.494680481979,
    42.687856251118));
#216 = CARTESIAN_POINT('',(4.775377600254,49.484139603897,
    42.779760485819));
#217 = CARTESIAN_POINT('',(4.800074890268,49.468867438442,
    42.868561955947));
#218 = CARTESIAN_POINT('',(4.831712426814,49.449739901332,
    42.953055849693));
#219 = CARTESIAN_POINT('',(4.883480930841,49.419368819599,
    43.063069520713));
#220 = CARTESIAN_POINT('',(4.898882799763,49.410418919396,
    43.093179984606));
#221 = CARTESIAN_POINT('',(4.915124894639,49.401083643578,
    43.122538517433));
#222 = CARTESIAN_POINT('',(4.932161452672,49.39141235104,43.15113022028)
  );
#223 = CARTESIAN_POINT('',(4.94994784481,49.381454616261,43.178942284023
    ));
#224 = CARTESIAN_POINT('',(5.009906596524,49.348401482106,
    43.266554423357));
#225 = CARTESIAN_POINT('',(5.054915798679,49.324356920144,
    43.323160091469));
#226 = CARTESIAN_POINT('',(5.103062209271,49.29963915088,43.375785825945
    ));
#227 = CARTESIAN_POINT('',(5.154014110514,49.274740486299,
    43.424443699247));
#228 = CARTESIAN_POINT('',(5.207509849197,49.250139981522,
    43.469142514201));
#229 = CARTESIAN_POINT('',(5.318772837403,49.20266215187,43.550302349221
    ));
#230 = CARTESIAN_POINT('',(5.376565804772,49.179747424917,43.58686758618
    ));
#231 = CARTESIAN_POINT('',(5.436476699872,49.158061957674,
    43.619495572336));
#232 = CARTESIAN_POINT('',(5.498287337944,49.138101027452,
    43.648120331722));
#233 = CARTESIAN_POINT('',(5.56181369503,49.120339337718,43.672665189063
    ));
#234 = CARTESIAN_POINT('',(5.686820908808,49.091284032419,
    43.711759141219));
#235 = CARTESIAN_POINT('',(5.748097752233,49.079580485604,
    43.726958017702));
#236 = CARTESIAN_POINT('',(5.810367011563,49.070499956297,
    43.738446223359));
#237 = CARTESIAN_POINT('',(5.873303349278,49.064337956273,
    43.746142507607));
#238 = CARTESIAN_POINT('',(5.936610370172,49.0612494996,43.75));
#239 = CARTESIAN_POINT('',(6.,49.0612494996,43.75));
#240 = PCURVE('',#133,#241);
#241 = DEFINITIONAL_REPRESENTATION('',(#242),#270);
#242 = B_SPLINE_CURVE_WITH_KNOTS('',6,(#243,#244,#245,#246,#247,#248,
    #249,#250,#251,#252,#253,#254,#255,#256,#257,#258,#259,#260,#261,
    #262,#263,#264,#265,#266,#267,#268,#269),.UNSPECIFIED.,.F.,.F.,(7,5,
    5,5,5,7),(0.,0.254558256592,0.35373881668,0.576130154139,
    0.796830549822,1.),.UNSPECIFIED.);
#243 = CARTESIAN_POINT('',(0.,-8.75));
#244 = CARTESIAN_POINT('',(-4.707867791818E-02,-8.75));
#245 = CARTESIAN_POINT('',(-9.392820970085E-02,-8.758510967913));
#246 = CARTESIAN_POINT('',(-0.140067746493,-8.775377600254));
#247 = CARTESIAN_POINT('',(-0.185023835853,-8.800074890268));
#248 = CARTESIAN_POINT('',(-0.228292550132,-8.831712426814));
#249 = CARTESIAN_POINT('',(-0.285357010212,-8.883480930841));
#250 = CARTESIAN_POINT('',(-0.301060230751,-8.898882799763));
#251 = CARTESIAN_POINT('',(-0.316459671688,-8.915124894639));
#252 = CARTESIAN_POINT('',(-0.331547606836,-8.932161452672));
#253 = CARTESIAN_POINT('',(-0.346315968288,-8.94994784481));
#254 = CARTESIAN_POINT('',(-0.393135826885,-9.009906596524));
#255 = CARTESIAN_POINT('',(-0.423860483423,-9.054915798679));
#256 = CARTESIAN_POINT('',(-0.45290308375,-9.103062209271));
#257 = CARTESIAN_POINT('',(-0.480212588269,-9.154014110514));
#258 = CARTESIAN_POINT('',(-0.50571444492,-9.207509849197));
#259 = CARTESIAN_POINT('',(-0.55272790876,-9.318772837403));
#260 = CARTESIAN_POINT('',(-0.574293832259,-9.376565804772));
#261 = CARTESIAN_POINT('',(-0.593873595293,-9.436476699872));
#262 = CARTESIAN_POINT('',(-0.611317759607,-9.498287337944));
#263 = CARTESIAN_POINT('',(-0.626465249083,-9.56181369503));
#264 = CARTESIAN_POINT('',(-0.65081965249,-9.686820908808));
#265 = CARTESIAN_POINT('',(-0.660409630327,-9.748097752233));
#266 = CARTESIAN_POINT('',(-0.667731135141,-9.810367011563));
#267 = CARTESIAN_POINT('',(-0.672660776249,-9.873303349278));
#268 = CARTESIAN_POINT('',(-0.675131532937,-9.936610370172));
#269 = CARTESIAN_POINT('',(-0.675131532937,-10.));
#270 = ( GEOMETRIC_REPRESENTATION_CONTEXT(2) 
PARAMETRIC_REPRESENTATION_CONTEXT() REPRESENTATION_CONTEXT('2D SPACE',''
  ) );
#271 = PCURVE('',#272,#277);
#272 = CYLINDRICAL_SURFACE('',#273,1.25);
#273 = AXIS2_PLACEMENT_3D('',#274,#275,#276);
#274 = CARTESIAN_POINT('',(6.,47.5,42.5));
#275 = DIRECTION('',(0.,1.,0.));
#276 = DIRECTION('',(0.,-0.,1.));
#277 = DEFINITIONAL_REPRESENTATION('',(#278),#306);
#278 = B_SPLINE_CURVE_WITH_KNOTS('',6,(#279,#280,#281,#282,#283,#284,
    #285,#286,#287,#288,#289,#290,#291,#292,#293,#294,#295,#296,#297,
    #298,#299,#300,#301,#302,#303,#304,#305),.UNSPECIFIED.,.F.,.F.,(7,5,
    5,5,5,7),(0.,0.254558256592,0.35373881668,0.576130154139,
    0.796830549822,1.),.UNSPECIFIED.);
#279 = CARTESIAN_POINT('',(4.712388980385,2.));
#280 = CARTESIAN_POINT('',(4.787714865054,2.));
#281 = CARTESIAN_POINT('',(4.862673875006,1.994680481979));
#282 = CARTESIAN_POINT('',(4.936967109218,1.984139603897));
#283 = CARTESIAN_POINT('',(5.010277293769,1.968867438442));
#284 = CARTESIAN_POINT('',(5.082215578947,1.949739901332));
#285 = CARTESIAN_POINT('',(5.179483821067,1.919368819599));
#286 = CARTESIAN_POINT('',(5.206525927293,1.910418919396));
#287 = CARTESIAN_POINT('',(5.23334632999,1.901083643578));
#288 = CARTESIAN_POINT('',(5.259952224316,1.89141235104));
#289 = CARTESIAN_POINT('',(5.286349941164,1.881454616261));
#290 = CARTESIAN_POINT('',(5.371281683605,1.848401482106));
#291 = CARTESIAN_POINT('',(5.428988667693,1.824356920144));
#292 = CARTESIAN_POINT('',(5.485849785261,1.79963915088));
#293 = CARTESIAN_POINT('',(5.542025688521,1.774740486299));
#294 = CARTESIAN_POINT('',(5.597674417941,1.750139981522));
#295 = CARTESIAN_POINT('',(5.707849177634,1.70266215187));
#296 = CARTESIAN_POINT('',(5.762440630036,1.679747424917));
#297 = CARTESIAN_POINT('',(5.816842915351,1.658061957674));
#298 = CARTESIAN_POINT('',(5.871164184189,1.638101027452));
#299 = CARTESIAN_POINT('',(5.925529754749,1.620339337718));
#300 = CARTESIAN_POINT('',(6.030311861898,1.591284032419));
#301 = CARTESIAN_POINT('',(6.080727952494,1.579580485604));
#302 = CARTESIAN_POINT('',(6.131244012652,1.570499956297));
#303 = CARTESIAN_POINT('',(6.181828028037,1.564337956273));
#304 = CARTESIAN_POINT('',(6.232473603317,1.5612494996));
#305 = CARTESIAN_POINT('',(6.28318530718,1.5612494996));
#306 = ( GEOMETRIC_REPRESENTATION_CONTEXT(2) 
PARAMETRIC_REPRESENTATION_CONTEXT() REPRESENTATION_CONTEXT('2D SPACE',''
  ) );
#307 = ORIENTED_EDGE('',*,*,#308,.T.);
#308 = EDGE_CURVE('',#209,#309,#311,.T.);
#309 = VERTEX_POINT('',#310);
#310 = CARTESIAN_POINT('',(7.25,49.5,42.5));
#311 = SURFACE_CURVE('',#312,(#340,#371),.PCURVE_S1.);
#312 = B_SPLINE_CURVE_WITH_KNOTS('',6,(#313,#314,#315,#316,#317,#318,
    #319,#320,#321,#322,#323,#324,#325,#326,#327,#328,#329,#330,#331,
    #332,#333,#334,#335,#336,#337,#338,#339),.UNSPECIFIED.,.F.,.F.,(7,5,
    5,5,5,7),(0.,0.204084950148,0.423569764919,0.645125149323,
    0.745456973161,1.),.UNSPECIFIED.);
#313 = CARTESIAN_POINT('',(6.,49.0612494996,43.75));
#314 = CARTESIAN_POINT('',(6.063674328405,49.0612494996,43.75));
#315 = CARTESIAN_POINT('',(6.127264298293,49.064365759925,
    43.746107780458));
#316 = CARTESIAN_POINT('',(6.190478581125,49.070582984583,
    43.738342522496));
#317 = CARTESIAN_POINT('',(6.253017328772,49.079743441796,43.72675183288
    ));
#318 = CARTESIAN_POINT('',(6.314551147185,49.091546584223,
    43.711418134038));
#319 = CARTESIAN_POINT('',(6.439406910275,49.12068523624,43.672186256053
    ));
#320 = CARTESIAN_POINT('',(6.502556043016,49.138381224069,
    43.647715828473));
#321 = CARTESIAN_POINT('',(6.564005812203,49.158246777773,
    43.619211523582));
#322 = CARTESIAN_POINT('',(6.623575321325,49.17981497194,43.586748712674
    ));
#323 = CARTESIAN_POINT('',(6.681050257925,49.202598912261,
    43.550392196748));
#324 = CARTESIAN_POINT('',(6.791828759186,49.249845493919,
    43.469664192335));
#325 = CARTESIAN_POINT('',(6.845148896964,49.274347550622,
    43.425176394352));
#326 = CARTESIAN_POINT('',(6.895946443692,49.299149938234,
    43.376759350783));
#327 = CARTESIAN_POINT('',(6.943963201778,49.323779059323,43.32440445768
    ));
#328 = CARTESIAN_POINT('',(6.988872042784,49.347748324926,
    43.268099791207));
#329 = CARTESIAN_POINT('',(7.049021124717,49.380877574787,
    43.180551870368));
#330 = CARTESIAN_POINT('',(7.067048646352,49.390964034925,
    43.152454186521));
#331 = CARTESIAN_POINT('',(7.084310391949,49.400759108667,
    43.123558344479));
#332 = CARTESIAN_POINT('',(7.10076024867,49.410211507812,43.093877478152
    ));
#333 = CARTESIAN_POINT('',(7.116350897967,49.419270158433,
    43.063426902686));
#334 = CARTESIAN_POINT('',(7.168284551686,49.449738128706,
    42.953062270706));
#335 = CARTESIAN_POINT('',(7.199923568148,49.468866451534,
    42.868568033242));
#336 = CARTESIAN_POINT('',(7.224622754161,49.484139813227,
    42.779762320489));
#337 = CARTESIAN_POINT('',(7.241489860576,49.49468100511,42.687853362873
    ));
#338 = CARTESIAN_POINT('',(7.25,49.5,42.594152763538));
#339 = CARTESIAN_POINT('',(7.25,49.5,42.5));
#340 = PCURVE('',#133,#341);
#341 = DEFINITIONAL_REPRESENTATION('',(#342),#370);
#342 = B_SPLINE_CURVE_WITH_KNOTS('',6,(#343,#344,#345,#346,#347,#348,
    #349,#350,#351,#352,#353,#354,#355,#356,#357,#358,#359,#360,#361,
    #362,#363,#364,#365,#366,#367,#368,#369),.UNSPECIFIED.,.F.,.F.,(7,5,
    5,5,5,7),(0.,0.204084950148,0.423569764919,0.645125149323,
    0.745456973161,1.),.UNSPECIFIED.);
#343 = CARTESIAN_POINT('',(-0.675131532937,-10.));
#344 = CARTESIAN_POINT('',(-0.675131532937,-10.0636743284));
#345 = CARTESIAN_POINT('',(-0.672638533614,-10.12726429829));
#346 = CARTESIAN_POINT('',(-0.667664711444,-10.19047858112));
#347 = CARTESIAN_POINT('',(-0.660278233474,-10.25301732877));
#348 = CARTESIAN_POINT('',(-0.650604498534,-10.31455114718));
#349 = CARTESIAN_POINT('',(-0.626169885321,-10.43940691027));
#350 = CARTESIAN_POINT('',(-0.611071801236,-10.50255604301));
#351 = CARTESIAN_POINT('',(-0.593704268396,-10.5640058122));
#352 = CARTESIAN_POINT('',(-0.574225607413,-10.62357532132));
#353 = CARTESIAN_POINT('',(-0.552782651456,-10.68105025792));
#354 = CARTESIAN_POINT('',(-0.506013938157,-10.79182875918));
#355 = CARTESIAN_POINT('',(-0.480628137078,-10.84514889696));
#356 = CARTESIAN_POINT('',(-0.453447483429,-10.89594644369));
#357 = CARTESIAN_POINT('',(-0.42454588313,-10.94396320177));
#358 = CARTESIAN_POINT('',(-0.393974065968,-10.98887204278));
#359 = CARTESIAN_POINT('',(-0.347170792472,-11.04902112471));
#360 = CARTESIAN_POINT('',(-0.332246342607,-11.06704864635));
#361 = CARTESIAN_POINT('',(-0.316994639243,-11.08431039194));
#362 = CARTESIAN_POINT('',(-0.301424000452,-11.10076024867));
#363 = CARTESIAN_POINT('',(-0.28554238544,-11.11635089796));
#364 = CARTESIAN_POINT('',(-0.228295880734,-11.16828455168));
#365 = CARTESIAN_POINT('',(-0.185026892111,-11.19992356814));
#366 = CARTESIAN_POINT('',(-0.140068640241,-11.22462275416));
#367 = CARTESIAN_POINT('',(-9.392676346538E-02,-11.24148986057));
#368 = CARTESIAN_POINT('',(-4.707638176904E-02,-11.25));
#369 = CARTESIAN_POINT('',(0.,-11.25));
#370 = ( GEOMETRIC_REPRESENTATION_CONTEXT(2) 
PARAMETRIC_REPRESENTATION_CONTEXT() REPRESENTATION_CONTEXT('2D SPACE',''
  ) );
#371 = PCURVE('',#272,#372);
#372 = DEFINITIONAL_REPRESENTATION('',(#373),#401);
#373 = B_SPLINE_CURVE_WITH_KNOTS('',6,(#374,#375,#376,#377,#378,#379,
    #380,#381,#382,#383,#384,#385,#386,#387,#388,#389,#390,#391,#392,
    #393,#394,#395,#396,#397,#398,#399,#400),.UNSPECIFIED.,.F.,.F.,(7,5,
    5,5,5,7),(0.,0.204084950148,0.423569764919,0.645125149323,
    0.745456973161,1.),.UNSPECIFIED.);
#374 = CARTESIAN_POINT('',(0.,1.5612494996));
#375 = CARTESIAN_POINT('',(5.093946272367E-02,1.5612494996));
#376 = CARTESIAN_POINT('',(0.101811396017,1.564365759925));
#377 = CARTESIAN_POINT('',(0.152620950257,1.570582984583));
#378 = CARTESIAN_POINT('',(0.203362025019,1.579743441796));
#379 = CARTESIAN_POINT('',(0.254002436465,1.591546584223));
#380 = CARTESIAN_POINT('',(0.35870193584,1.62068523624));
#381 = CARTESIAN_POINT('',(0.412766524868,1.638381224069));
#382 = CARTESIAN_POINT('',(0.466788178085,1.658246777773));
#383 = CARTESIAN_POINT('',(0.520890262366,1.67981497194));
#384 = CARTESIAN_POINT('',(0.575179427465,1.702598912261));
#385 = CARTESIAN_POINT('',(0.684837476438,1.749845493919));
#386 = CARTESIAN_POINT('',(0.740271548391,1.774347550622));
#387 = CARTESIAN_POINT('',(0.796227271116,1.799149938234));
#388 = CARTESIAN_POINT('',(0.852860966949,1.823779059323));
#389 = CARTESIAN_POINT('',(0.910331445402,1.847748324926));
#390 = CARTESIAN_POINT('',(0.995306926103,1.880877574787));
#391 = CARTESIAN_POINT('',(1.022000671328,1.890964034925));
#392 = CARTESIAN_POINT('',(1.048907126234,1.900759108667));
#393 = CARTESIAN_POINT('',(1.076032901632,1.910211507812));
#394 = CARTESIAN_POINT('',(1.103385507962,1.919270158433));
#395 = CARTESIAN_POINT('',(1.200964051114,1.949738128706));
#396 = CARTESIAN_POINT('',(1.272903083763,1.968866451534));
#397 = CARTESIAN_POINT('',(1.346216848414,1.984139813227));
#398 = CARTESIAN_POINT('',(1.420513739968,1.99468100511));
#399 = CARTESIAN_POINT('',(1.495474115964,2.));
#400 = CARTESIAN_POINT('',(1.570796326795,2.));
#401 = ( GEOMETRIC_REPRESENTATION_CONTEXT(2) 
PARAMETRIC_REPRESENTATION_CONTEXT() REPRESENTATION_CONTEXT('2D SPACE',''
  ) );
#402 = ORIENTED_EDGE('',*,*,#403,.T.);
#403 = EDGE_CURVE('',#309,#404,#406,.T.);
#404 = VERTEX_POINT('',#405);
#405 = CARTESIAN_POINT('',(9.,49.5,42.5));
#406 = SEAM_CURVE('',#407,(#411,#418),.PCURVE_S1.);
#407 = LINE('',#408,#409);
#408 = CARTESIAN_POINT('',(-4.,49.5,42.5));
#409 = VECTOR('',#410,1.);
#410 = DIRECTION('',(1.,0.,0.));
#411 = PCURVE('',#133,#412);
#412 = DEFINITIONAL_REPRESENTATION('',(#413),#417);
#413 = LINE('',#414,#415);
#414 = CARTESIAN_POINT('',(-6.28318530718,0.));
#415 = VECTOR('',#416,1.);
#416 = DIRECTION('',(-0.,-1.));
#417 = ( GEOMETRIC_REPRESENTATION_CONTEXT(2) 
PARAMETRIC_REPRESENTATION_CONTEXT() REPRESENTATION_CONTEXT('2D SPACE',''
  ) );
#418 = PCURVE('',#133,#419);
#419 = DEFINITIONAL_REPRESENTATION('',(#420),#424);
#420 = LINE('',#421,#422);
#421 = CARTESIAN_POINT('',(-0.,0.));
#422 = VECTOR('',#423,1.);
#423 = DIRECTION('',(-0.,-1.));
#424 = ( GEOMETRIC_REPRESENTATION_CONTEXT(2) 
PARAMETRIC_REPRESENTATION_CONTEXT() REPRESENTATION_CONTEXT('2D SPACE',''
  ) );
#425 = ORIENTED_EDGE('',*,*,#426,.T.);
#426 = EDGE_CURVE('',#404,#404,#427,.T.);
#427 = SURFACE_CURVE('',#428,(#433,#440),.PCURVE_S1.);
#428 = CIRCLE('',#429,2.);
#429 = AXIS2_PLACEMENT_3D('',#430,#431,#432);
#430 = CARTESIAN_POINT('',(9.,47.5,42.5));
#431 = DIRECTION('',(1.,0.,0.));
#432 = DIRECTION('',(0.,1.,0.));
#433 = PCURVE('',#133,#434);
#434 = DEFINITIONAL_REPRESENTATION('',(#435),#439);
#435 = LINE('',#436,#437);
#436 = CARTESIAN_POINT('',(-0.,-13.));
#437 = VECTOR('',#438,1.);
#438 = DIRECTION('',(-1.,0.));
#439 = ( GEOMETRIC_REPRESENTATION_CONTEXT(2) 
PARAMETRIC_REPRESENTATION_CONTEXT() REPRESENTATION_CONTEXT('2D SPACE',''
  ) );
#440 = PCURVE('',#441,#446);
#441 = PLANE('',#442);
#442 = AXIS2_PLACEMENT_3D('',#443,#444,#445);
#443 = CARTESIAN_POINT('',(9.,47.5,42.5));
#444 = DIRECTION('',(1.,0.,0.));
#445 = DIRECTION('',(-0.,0.,1.));
#446 = DEFINITIONAL_REPRESENTATION('',(#447),#451);
#447 = CIRCLE('',#448,2.);
#448 = AXIS2_PLACEMENT_2D('',#449,#450);
#449 = CARTESIAN_POINT('',(7.105427357601E-15,0.));
#450 = DIRECTION('',(0.,-1.));
#451 = ( GEOMETRIC_REPRESENTATION_CONTEXT(2) 
PARAMETRIC_REPRESENTATION_CONTEXT() REPRESENTATION_CONTEXT('2D SPACE',''
  ) );
#452 = ORIENTED_EDGE('',*,*,#403,.F.);
#453 = ORIENTED_EDGE('',*,*,#454,.T.);
#454 = EDGE_CURVE('',#309,#184,#455,.T.);
#455 = SURFACE_CURVE('',#456,(#509,#565),.PCURVE_S1.);
#456 = B_SPLINE_CURVE_WITH_KNOTS('',6,(#457,#458,#459,#460,#461,#462,
    #463,#464,#465,#466,#467,#468,#469,#470,#471,#472,#473,#474,#475,
    #476,#477,#478,#479,#480,#481,#482,#483,#484,#485,#486,#487,#488,
    #489,#490,#491,#492,#493,#494,#495,#496,#497,#498,#499,#500,#501,
    #502,#503,#504,#505,#506,#507,#508),.UNSPECIFIED.,.F.,.F.,(7,5,5,5,5
    ,5,5,5,5,5,7),(0.,0.12728006859,0.17687071499,0.288067205195,
    0.398418218266,0.500003693827,0.602045414999,0.711787011593,
    0.822563885355,0.872729426642,1.),.UNSPECIFIED.);
#457 = CARTESIAN_POINT('',(7.25,49.5,42.5));
#458 = CARTESIAN_POINT('',(7.25,49.5,42.405842644164));
#459 = CARTESIAN_POINT('',(7.241489032087,49.494680481979,
    42.312143748882));
#460 = CARTESIAN_POINT('',(7.224622399746,49.484139603897,
    42.220239514181));
#461 = CARTESIAN_POINT('',(7.199925109732,49.468867438442,
    42.131438044053));
#462 = CARTESIAN_POINT('',(7.168287573186,49.449739901332,
    42.046944150307));
#463 = CARTESIAN_POINT('',(7.116519069159,49.419368819599,
    41.936930479287));
#464 = CARTESIAN_POINT('',(7.101117200237,49.410418919396,
    41.906820015394));
#465 = CARTESIAN_POINT('',(7.084875105361,49.401083643578,
    41.877461482567));
#466 = CARTESIAN_POINT('',(7.067838547328,49.39141235104,41.84886977972)
  );
#467 = CARTESIAN_POINT('',(7.05005215519,49.381454616261,41.821057715977
    ));
#468 = CARTESIAN_POINT('',(6.990093403476,49.348401482106,
    41.733445576643));
#469 = CARTESIAN_POINT('',(6.945084201321,49.324356920144,
    41.676839908531));
#470 = CARTESIAN_POINT('',(6.896937790729,49.29963915088,41.624214174055
    ));
#471 = CARTESIAN_POINT('',(6.845985889486,49.274740486299,
    41.575556300753));
#472 = CARTESIAN_POINT('',(6.792490150803,49.250139981522,
    41.530857485799));
#473 = CARTESIAN_POINT('',(6.681227162597,49.20266215187,41.449697650779
    ));
#474 = CARTESIAN_POINT('',(6.623434195228,49.179747424917,41.41313241382
    ));
#475 = CARTESIAN_POINT('',(6.563523300128,49.158061957674,
    41.380504427664));
#476 = CARTESIAN_POINT('',(6.501712662056,49.138101027452,
    41.351879668278));
#477 = CARTESIAN_POINT('',(6.43818630497,49.120339337718,41.327334810937
    ));
#478 = CARTESIAN_POINT('',(6.313179091192,49.091284032419,
    41.288240858781));
#479 = CARTESIAN_POINT('',(6.251902247767,49.079580485604,
    41.273041982298));
#480 = CARTESIAN_POINT('',(6.189632988436,49.070499956297,
    41.261553776641));
#481 = CARTESIAN_POINT('',(6.126696650722,49.064337956273,
    41.253857492393));
#482 = CARTESIAN_POINT('',(6.063389629828,49.0612494996,41.25));
#483 = CARTESIAN_POINT('',(5.936325671595,49.0612494996,41.25));
#484 = CARTESIAN_POINT('',(5.872735701707,49.064365759925,
    41.253892219542));
#485 = CARTESIAN_POINT('',(5.809521418875,49.070582984583,
    41.261657477504));
#486 = CARTESIAN_POINT('',(5.746982671228,49.079743441796,41.27324816712
    ));
#487 = CARTESIAN_POINT('',(5.685448852815,49.091546584223,
    41.288581865962));
#488 = CARTESIAN_POINT('',(5.560593089725,49.12068523624,41.327813743947
    ));
#489 = CARTESIAN_POINT('',(5.497443956984,49.138381224069,
    41.352284171527));
#490 = CARTESIAN_POINT('',(5.435994187797,49.158246777773,
    41.380788476418));
#491 = CARTESIAN_POINT('',(5.376424678675,49.17981497194,41.413251287326
    ));
#492 = CARTESIAN_POINT('',(5.318949742075,49.202598912261,
    41.449607803252));
#493 = CARTESIAN_POINT('',(5.208171240814,49.249845493919,
    41.530335807665));
#494 = CARTESIAN_POINT('',(5.154851103036,49.274347550622,
    41.574823605648));
#495 = CARTESIAN_POINT('',(5.104053556308,49.299149938234,
    41.623240649217));
#496 = CARTESIAN_POINT('',(5.056036798222,49.323779059323,41.67559554232
    ));
#497 = CARTESIAN_POINT('',(5.011127957216,49.347748324926,
    41.731900208793));
#498 = CARTESIAN_POINT('',(4.950978875283,49.380877574787,
    41.819448129632));
#499 = CARTESIAN_POINT('',(4.932951353648,49.390964034925,
    41.847545813479));
#500 = CARTESIAN_POINT('',(4.915689608051,49.400759108667,
    41.876441655521));
#501 = CARTESIAN_POINT('',(4.89923975133,49.410211507812,41.906122521848
    ));
#502 = CARTESIAN_POINT('',(4.883649102033,49.419270158433,
    41.936573097314));
#503 = CARTESIAN_POINT('',(4.831715448245,49.449738128746,42.04693772944
    ));
#504 = CARTESIAN_POINT('',(4.800076431899,49.468866451508,
    42.131431966722));
#505 = CARTESIAN_POINT('',(4.775377245872,49.484139813204,
    42.220237679357));
#506 = CARTESIAN_POINT('',(4.758510139396,49.494681005128,
    42.312146637089));
#507 = CARTESIAN_POINT('',(4.75,49.5,42.405847236617));
#508 = CARTESIAN_POINT('',(4.75,49.5,42.5));
#509 = PCURVE('',#133,#510);
#510 = DEFINITIONAL_REPRESENTATION('',(#511),#564);
#511 = B_SPLINE_CURVE_WITH_KNOTS('',6,(#512,#513,#514,#515,#516,#517,
    #518,#519,#520,#521,#522,#523,#524,#525,#526,#527,#528,#529,#530,
    #531,#532,#533,#534,#535,#536,#537,#538,#539,#540,#541,#542,#543,
    #544,#545,#546,#547,#548,#549,#550,#551,#552,#553,#554,#555,#556,
    #557,#558,#559,#560,#561,#562,#563),.UNSPECIFIED.,.F.,.F.,(7,5,5,5,5
    ,5,5,5,5,5,7),(0.,0.12728006859,0.17687071499,0.288067205195,
    0.398418218266,0.500003693827,0.602045414999,0.711787011593,
    0.822563885355,0.872729426642,1.),.UNSPECIFIED.);
#512 = CARTESIAN_POINT('',(-6.28318530718,-11.25));
#513 = CARTESIAN_POINT('',(-6.236106629261,-11.25));
#514 = CARTESIAN_POINT('',(-6.189257097479,-11.24148903208));
#515 = CARTESIAN_POINT('',(-6.143117560686,-11.22462239974));
#516 = CARTESIAN_POINT('',(-6.098161471326,-11.19992510973));
#517 = CARTESIAN_POINT('',(-6.054892757047,-11.16828757318));
#518 = CARTESIAN_POINT('',(-5.997828296967,-11.11651906915));
#519 = CARTESIAN_POINT('',(-5.982125076429,-11.10111720023));
#520 = CARTESIAN_POINT('',(-5.966725635491,-11.08487510536));
#521 = CARTESIAN_POINT('',(-5.951637700344,-11.06783854732));
#522 = CARTESIAN_POINT('',(-5.936869338891,-11.05005215519));
#523 = CARTESIAN_POINT('',(-5.890049480295,-10.99009340347));
#524 = CARTESIAN_POINT('',(-5.859324823757,-10.94508420132));
#525 = CARTESIAN_POINT('',(-5.830282223429,-10.89693779072));
#526 = CARTESIAN_POINT('',(-5.802972718911,-10.84598588948));
#527 = CARTESIAN_POINT('',(-5.77747086226,-10.7924901508));
#528 = CARTESIAN_POINT('',(-5.73045739842,-10.68122716259));
#529 = CARTESIAN_POINT('',(-5.708891474921,-10.62343419522));
#530 = CARTESIAN_POINT('',(-5.689311711887,-10.56352330012));
#531 = CARTESIAN_POINT('',(-5.671867547573,-10.50171266205));
#532 = CARTESIAN_POINT('',(-5.656720058096,-10.43818630497));
#533 = CARTESIAN_POINT('',(-5.632365654689,-10.31317909119));
#534 = CARTESIAN_POINT('',(-5.622775676853,-10.25190224776));
#535 = CARTESIAN_POINT('',(-5.615454172039,-10.18963298843));
#536 = CARTESIAN_POINT('',(-5.61052453093,-10.12669665072));
#537 = CARTESIAN_POINT('',(-5.608053774243,-10.06338962982));
#538 = CARTESIAN_POINT('',(-5.608053774243,-9.936325671595));
#539 = CARTESIAN_POINT('',(-5.610546773566,-9.872735701707));
#540 = CARTESIAN_POINT('',(-5.615520595736,-9.809521418875));
#541 = CARTESIAN_POINT('',(-5.622907073706,-9.746982671228));
#542 = CARTESIAN_POINT('',(-5.632580808645,-9.685448852815));
#543 = CARTESIAN_POINT('',(-5.657015421859,-9.560593089725));
#544 = CARTESIAN_POINT('',(-5.672113505944,-9.497443956984));
#545 = CARTESIAN_POINT('',(-5.689481038783,-9.435994187797));
#546 = CARTESIAN_POINT('',(-5.708959699767,-9.376424678675));
#547 = CARTESIAN_POINT('',(-5.730402655723,-9.318949742075));
#548 = CARTESIAN_POINT('',(-5.777171369023,-9.208171240814));
#549 = CARTESIAN_POINT('',(-5.802557170101,-9.154851103036));
#550 = CARTESIAN_POINT('',(-5.82973782375,-9.104053556308));
#551 = CARTESIAN_POINT('',(-5.85863942405,-9.056036798222));
#552 = CARTESIAN_POINT('',(-5.889211241212,-9.011127957216));
#553 = CARTESIAN_POINT('',(-5.936014514707,-8.950978875283));
#554 = CARTESIAN_POINT('',(-5.950938964573,-8.932951353648));
#555 = CARTESIAN_POINT('',(-5.966190667937,-8.915689608051));
#556 = CARTESIAN_POINT('',(-5.981761306728,-8.89923975133));
#557 = CARTESIAN_POINT('',(-5.997642921739,-8.883649102033));
#558 = CARTESIAN_POINT('',(-6.054889426522,-8.831715448245));
#559 = CARTESIAN_POINT('',(-6.098158415048,-8.800076431899));
#560 = CARTESIAN_POINT('',(-6.143116666861,-8.775377245872));
#561 = CARTESIAN_POINT('',(-6.189258543695,-8.758510139396));
#562 = CARTESIAN_POINT('',(-6.236108925488,-8.75));
#563 = CARTESIAN_POINT('',(-6.28318530718,-8.75));
#564 = ( GEOMETRIC_REPRESENTATION_CONTEXT(2) 
PARAMETRIC_REPRESENTATION_CONTEXT() REPRESENTATION_CONTEXT('2D SPACE',''
  ) );
#565 = PCURVE('',#272,#566);
#566 = DEFINITIONAL_REPRESENTATION('',(#567),#620);
#567 = B_SPLINE_CURVE_WITH_KNOTS('',6,(#568,#569,#570,#571,#572,#573,
    #574,#575,#576,#577,#578,#579,#580,#581,#582,#583,#584,#585,#586,
    #587,#588,#589,#590,#591,#592,#593,#594,#595,#596,#597,#598,#599,
    #600,#601,#602,#603,#604,#605,#606,#607,#608,#609,#610,#611,#612,
    #613,#614,#615,#616,#617,#618,#619),.UNSPECIFIED.,.F.,.F.,(7,5,5,5,5
    ,5,5,5,5,5,7),(0.,0.12728006859,0.17687071499,0.288067205195,
    0.398418218266,0.500003693827,0.602045414999,0.711787011593,
    0.822563885355,0.872729426642,1.),.UNSPECIFIED.);
#568 = CARTESIAN_POINT('',(1.570796326795,2.));
#569 = CARTESIAN_POINT('',(1.646122211464,2.));
#570 = CARTESIAN_POINT('',(1.721081221417,1.994680481979));
#571 = CARTESIAN_POINT('',(1.795374455629,1.984139603897));
#572 = CARTESIAN_POINT('',(1.868684640179,1.968867438442));
#573 = CARTESIAN_POINT('',(1.940622925357,1.949739901332));
#574 = CARTESIAN_POINT('',(2.037891167477,1.919368819599));
#575 = CARTESIAN_POINT('',(2.064933273703,1.910418919396));
#576 = CARTESIAN_POINT('',(2.0917536764,1.901083643578));
#577 = CARTESIAN_POINT('',(2.118359570727,1.89141235104));
#578 = CARTESIAN_POINT('',(2.144757287575,1.881454616261));
#579 = CARTESIAN_POINT('',(2.229689030016,1.848401482106));
#580 = CARTESIAN_POINT('',(2.287396014103,1.824356920144));
#581 = CARTESIAN_POINT('',(2.344257131671,1.79963915088));
#582 = CARTESIAN_POINT('',(2.400433034932,1.774740486299));
#583 = CARTESIAN_POINT('',(2.456081764351,1.750139981522));
#584 = CARTESIAN_POINT('',(2.566256524044,1.70266215187));
#585 = CARTESIAN_POINT('',(2.620847976446,1.679747424917));
#586 = CARTESIAN_POINT('',(2.675250261761,1.658061957674));
#587 = CARTESIAN_POINT('',(2.729571530599,1.638101027452));
#588 = CARTESIAN_POINT('',(2.783937101159,1.620339337718));
#589 = CARTESIAN_POINT('',(2.888719208308,1.591284032419));
#590 = CARTESIAN_POINT('',(2.939135298904,1.579580485604));
#591 = CARTESIAN_POINT('',(2.989651359062,1.570499956297));
#592 = CARTESIAN_POINT('',(3.040235374447,1.564337956273));
#593 = CARTESIAN_POINT('',(3.090880949728,1.5612494996));
#594 = CARTESIAN_POINT('',(3.192532116313,1.5612494996));
#595 = CARTESIAN_POINT('',(3.243404049607,1.564365759925));
#596 = CARTESIAN_POINT('',(3.294213603847,1.570582984583));
#597 = CARTESIAN_POINT('',(3.344954678608,1.579743441796));
#598 = CARTESIAN_POINT('',(3.395595090055,1.591546584223));
#599 = CARTESIAN_POINT('',(3.50029458943,1.62068523624));
#600 = CARTESIAN_POINT('',(3.554359178458,1.638381224069));
#601 = CARTESIAN_POINT('',(3.608380831675,1.658246777773));
#602 = CARTESIAN_POINT('',(3.662482915956,1.67981497194));
#603 = CARTESIAN_POINT('',(3.716772081055,1.702598912261));
#604 = CARTESIAN_POINT('',(3.826430130028,1.749845493919));
#605 = CARTESIAN_POINT('',(3.881864201981,1.774347550622));
#606 = CARTESIAN_POINT('',(3.937819924706,1.799149938234));
#607 = CARTESIAN_POINT('',(3.994453620539,1.823779059323));
#608 = CARTESIAN_POINT('',(4.051924098991,1.847748324926));
#609 = CARTESIAN_POINT('',(4.136899579692,1.880877574787));
#610 = CARTESIAN_POINT('',(4.163593324918,1.890964034925));
#611 = CARTESIAN_POINT('',(4.190499779823,1.900759108667));
#612 = CARTESIAN_POINT('',(4.217625555221,1.910211507812));
#613 = CARTESIAN_POINT('',(4.244978161552,1.919270158433));
#614 = CARTESIAN_POINT('',(4.342556704833,1.949738128746));
#615 = CARTESIAN_POINT('',(4.414495737311,1.968866451508));
#616 = CARTESIAN_POINT('',(4.487809501884,1.984139813204));
#617 = CARTESIAN_POINT('',(4.562106393527,1.994681005128));
#618 = CARTESIAN_POINT('',(4.637066769678,2.));
#619 = CARTESIAN_POINT('',(4.712388980385,2.));
#620 = ( GEOMETRIC_REPRESENTATION_CONTEXT(2) 
PARAMETRIC_REPRESENTATION_CONTEXT() REPRESENTATION_CONTEXT('2D SPACE',''
  ) );
#621 = ADVANCED_FACE('',(#622),#168,.T.);
#622 = FACE_BOUND('',#623,.F.);
#623 = EDGE_LOOP('',(#624,#647,#674,#675));
#624 = ORIENTED_EDGE('',*,*,#625,.T.);
#625 = EDGE_CURVE('',#152,#626,#628,.T.);
#626 = VERTEX_POINT('',#627);
#627 = CARTESIAN_POINT('',(3.,61.,42.5));
#628 = SEAM_CURVE('',#629,(#633,#640),.PCURVE_S1.);
#629 = LINE('',#630,#631);
#630 = CARTESIAN_POINT('',(-3.,61.,42.5));
#631 = VECTOR('',#632,1.);
#632 = DIRECTION('',(1.,0.,0.));
#633 = PCURVE('',#168,#634);
#634 = DEFINITIONAL_REPRESENTATION('',(#635),#639);
#635 = LINE('',#636,#637);
#636 = CARTESIAN_POINT('',(-0.,0.));
#637 = VECTOR('',#638,1.);
#638 = DIRECTION('',(-0.,-1.));
#639 = ( GEOMETRIC_REPRESENTATION_CONTEXT(2) 
PARAMETRIC_REPRESENTATION_CONTEXT() REPRESENTATION_CONTEXT('2D SPACE',''
  ) );
#640 = PCURVE('',#168,#641);
#641 = DEFINITIONAL_REPRESENTATION('',(#642),#646);
#642 = LINE('',#643,#644);
#643 = CARTESIAN_POINT('',(-6.28318530718,0.));
#644 = VECTOR('',#645,1.);
#645 = DIRECTION('',(-0.,-1.));
#646 = ( GEOMETRIC_REPRESENTATION_CONTEXT(2) 
PARAMETRIC_REPRESENTATION_CONTEXT() REPRESENTATION_CONTEXT('2D SPACE',''
  ) );
#647 = ORIENTED_EDGE('',*,*,#648,.T.);
#648 = EDGE_CURVE('',#626,#626,#649,.T.);
#649 = SURFACE_CURVE('',#650,(#655,#662),.PCURVE_S1.);
#650 = CIRCLE('',#651,13.5);
#651 = AXIS2_PLACEMENT_3D('',#652,#653,#654);
#652 = CARTESIAN_POINT('',(3.,47.5,42.5));
#653 = DIRECTION('',(1.,0.,0.));
#654 = DIRECTION('',(0.,1.,0.));
#655 = PCURVE('',#168,#656);
#656 = DEFINITIONAL_REPRESENTATION('',(#657),#661);
#657 = LINE('',#658,#659);
#658 = CARTESIAN_POINT('',(-0.,-6.));
#659 = VECTOR('',#660,1.);
#660 = DIRECTION('',(-1.,0.));
#661 = ( GEOMETRIC_REPRESENTATION_CONTEXT(2) 
PARAMETRIC_REPRESENTATION_CONTEXT() REPRESENTATION_CONTEXT('2D SPACE',''
  ) );
#662 = PCURVE('',#663,#668);
#663 = PLANE('',#664);
#664 = AXIS2_PLACEMENT_3D('',#665,#666,#667);
#665 = CARTESIAN_POINT('',(3.,47.5,42.5));
#666 = DIRECTION('',(1.,0.,0.));
#667 = DIRECTION('',(-0.,0.,1.));
#668 = DEFINITIONAL_REPRESENTATION('',(#669),#673);
#669 = CIRCLE('',#670,13.5);
#670 = AXIS2_PLACEMENT_2D('',#671,#672);
#671 = CARTESIAN_POINT('',(0.,-7.105427357601E-15));
#672 = DIRECTION('',(0.,-1.));
#673 = ( GEOMETRIC_REPRESENTATION_CONTEXT(2) 
PARAMETRIC_REPRESENTATION_CONTEXT() REPRESENTATION_CONTEXT('2D SPACE',''
  ) );
#674 = ORIENTED_EDGE('',*,*,#625,.F.);
#675 = ORIENTED_EDGE('',*,*,#151,.F.);
#676 = ADVANCED_FACE('',(#677),#272,.F.);
#677 = FACE_BOUND('',#678,.F.);
#678 = EDGE_LOOP('',(#679,#742,#763,#764,#765,#766,#767,#823));
#679 = ORIENTED_EDGE('',*,*,#680,.F.);
#680 = EDGE_CURVE('',#681,#683,#685,.T.);
#681 = VERTEX_POINT('',#682);
#682 = CARTESIAN_POINT('',(6.,52.341229182759,43.75));
#683 = VERTEX_POINT('',#684);
#684 = CARTESIAN_POINT('',(7.25,52.5,42.5));
#685 = SURFACE_CURVE('',#686,(#701,#719),.PCURVE_S1.);
#686 = B_SPLINE_CURVE_WITH_KNOTS('',7,(#687,#688,#689,#690,#691,#692,
    #693,#694,#695,#696,#697,#698,#699,#700),.UNSPECIFIED.,.F.,.F.,(8,6,
    8),(0.,0.517937540184,1.),.UNSPECIFIED.);
#687 = CARTESIAN_POINT('',(6.,52.341229182759,43.75));
#688 = CARTESIAN_POINT('',(6.130823910342,52.341229182759,43.75));
#689 = CARTESIAN_POINT('',(6.261571932339,52.34535358961,43.734026226664
    ));
#690 = CARTESIAN_POINT('',(6.390763937699,52.353594054786,
    43.702111085503));
#691 = CARTESIAN_POINT('',(6.516817494091,52.365638949614,
    43.654089738918));
#692 = CARTESIAN_POINT('',(6.637899396757,52.380846318346,
    43.589719206833));
#693 = CARTESIAN_POINT('',(6.751793931812,52.398186190835,
    43.508769941615));
#694 = CARTESIAN_POINT('',(6.952377868172,52.433098125602,
    43.320409087711));
#695 = CARTESIAN_POINT('',(7.042404505334,52.450918562923,
    43.213341532808));
#696 = CARTESIAN_POINT('',(7.12081764898,52.468306636401,43.090813637644
    ));
#697 = CARTESIAN_POINT('',(7.183537429424,52.483385496574,
    42.954932449252));
#698 = CARTESIAN_POINT('',(7.227371892438,52.494342720719,
    42.808693960192));
#699 = CARTESIAN_POINT('',(7.25,52.5,42.655706531728));
#700 = CARTESIAN_POINT('',(7.25,52.5,42.5));
#701 = PCURVE('',#272,#702);
#702 = DEFINITIONAL_REPRESENTATION('',(#703),#718);
#703 = B_SPLINE_CURVE_WITH_KNOTS('',7,(#704,#705,#706,#707,#708,#709,
    #710,#711,#712,#713,#714,#715,#716,#717),.UNSPECIFIED.,.F.,.F.,(8,6,
    8),(0.,0.517937540184,1.),.UNSPECIFIED.);
#704 = CARTESIAN_POINT('',(0.,4.841229182759));
#705 = CARTESIAN_POINT('',(0.104659128273,4.841229182759));
#706 = CARTESIAN_POINT('',(0.209257484775,4.84535358961));
#707 = CARTESIAN_POINT('',(0.314483771024,4.853594054786));
#708 = CARTESIAN_POINT('',(0.420933860295,4.865638949614));
#709 = CARTESIAN_POINT('',(0.529217793431,4.880846318346));
#710 = CARTESIAN_POINT('',(0.639969154059,4.898186190835));
#711 = CARTESIAN_POINT('',(0.860098173404,4.933098125602));
#712 = CARTESIAN_POINT('',(0.971233762598,4.950918562923));
#713 = CARTESIAN_POINT('',(1.086014362116,4.968306636401));
#714 = CARTESIAN_POINT('',(1.203693094506,4.983385496574));
#715 = CARTESIAN_POINT('',(1.323841247328,4.994342720719));
#716 = CARTESIAN_POINT('',(1.446231101412,5.));
#717 = CARTESIAN_POINT('',(1.570796326795,5.));
#718 = ( GEOMETRIC_REPRESENTATION_CONTEXT(2) 
PARAMETRIC_REPRESENTATION_CONTEXT() REPRESENTATION_CONTEXT('2D SPACE',''
  ) );
#719 = PCURVE('',#720,#725);
#720 = CYLINDRICAL_SURFACE('',#721,5.);
#721 = AXIS2_PLACEMENT_3D('',#722,#723,#724);
#722 = CARTESIAN_POINT('',(4.,47.5,42.5));
#723 = DIRECTION('',(-1.,-0.,-0.));
#724 = DIRECTION('',(0.,1.,0.));
#725 = DEFINITIONAL_REPRESENTATION('',(#726),#741);
#726 = B_SPLINE_CURVE_WITH_KNOTS('',7,(#727,#728,#729,#730,#731,#732,
    #733,#734,#735,#736,#737,#738,#739,#740),.UNSPECIFIED.,.F.,.F.,(8,6,
    8),(0.,0.517937540184,1.),.UNSPECIFIED.);
#727 = CARTESIAN_POINT('',(-0.252680255142,-2.));
#728 = CARTESIAN_POINT('',(-0.252680255142,-2.130823910342));
#729 = CARTESIAN_POINT('',(-0.249380723002,-2.261571932339));
#730 = CARTESIAN_POINT('',(-0.242788378952,-2.390763937698));
#731 = CARTESIAN_POINT('',(-0.232886791652,-2.516817494092));
#732 = CARTESIAN_POINT('',(-0.219661202484,-2.637899396757));
#733 = CARTESIAN_POINT('',(-0.20311046371,-2.751793931812));
#734 = CARTESIAN_POINT('',(-0.164796677955,-2.952377868172));
#735 = CARTESIAN_POINT('',(-0.143092281866,-3.042404505334));
#736 = CARTESIAN_POINT('',(-0.118352785832,-3.12081764898));
#737 = CARTESIAN_POINT('',(-9.103561666616E-02,-3.183537429424));
#738 = CARTESIAN_POINT('',(-6.173883466647E-02,-3.227371892438));
#739 = CARTESIAN_POINT('',(-3.114130634567E-02,-3.25));
#740 = CARTESIAN_POINT('',(0.,-3.25));
#741 = ( GEOMETRIC_REPRESENTATION_CONTEXT(2) 
PARAMETRIC_REPRESENTATION_CONTEXT() REPRESENTATION_CONTEXT('2D SPACE',''
  ) );
#742 = ORIENTED_EDGE('',*,*,#743,.F.);
#743 = EDGE_CURVE('',#209,#681,#744,.T.);
#744 = SEAM_CURVE('',#745,(#749,#756),.PCURVE_S1.);
#745 = LINE('',#746,#747);
#746 = CARTESIAN_POINT('',(6.,47.5,43.75));
#747 = VECTOR('',#748,1.);
#748 = DIRECTION('',(0.,1.,0.));
#749 = PCURVE('',#272,#750);
#750 = DEFINITIONAL_REPRESENTATION('',(#751),#755);
#751 = LINE('',#752,#753);
#752 = CARTESIAN_POINT('',(6.28318530718,-0.));
#753 = VECTOR('',#754,1.);
#754 = DIRECTION('',(0.,1.));
#755 = ( GEOMETRIC_REPRESENTATION_CONTEXT(2) 
PARAMETRIC_REPRESENTATION_CONTEXT() REPRESENTATION_CONTEXT('2D SPACE',''
  ) );
#756 = PCURVE('',#272,#757);
#757 = DEFINITIONAL_REPRESENTATION('',(#758),#762);
#758 = LINE('',#759,#760);
#759 = CARTESIAN_POINT('',(0.,-0.));
#760 = VECTOR('',#761,1.);
#761 = DIRECTION('',(0.,1.));
#762 = ( GEOMETRIC_REPRESENTATION_CONTEXT(2) 
PARAMETRIC_REPRESENTATION_CONTEXT() REPRESENTATION_CONTEXT('2D SPACE',''
  ) );
#763 = ORIENTED_EDGE('',*,*,#308,.T.);
#764 = ORIENTED_EDGE('',*,*,#454,.T.);
#765 = ORIENTED_EDGE('',*,*,#208,.T.);
#766 = ORIENTED_EDGE('',*,*,#743,.T.);
#767 = ORIENTED_EDGE('',*,*,#768,.F.);
#768 = EDGE_CURVE('',#769,#681,#771,.T.);
#769 = VERTEX_POINT('',#770);
#770 = CARTESIAN_POINT('',(4.75,52.5,42.5));
#771 = SURFACE_CURVE('',#772,(#787,#805),.PCURVE_S1.);
#772 = B_SPLINE_CURVE_WITH_KNOTS('',7,(#773,#774,#775,#776,#777,#778,
    #779,#780,#781,#782,#783,#784,#785,#786),.UNSPECIFIED.,.F.,.F.,(8,6,
    8),(0.,0.462662320656,1.),.UNSPECIFIED.);
#773 = CARTESIAN_POINT('',(4.75,52.5,42.5));
#774 = CARTESIAN_POINT('',(4.75,52.5,42.649229905254));
#775 = CARTESIAN_POINT('',(4.770784830488,52.49480358424,42.796006558685
    ));
#776 = CARTESIAN_POINT('',(4.811125051238,52.484719609259,
    42.936748415761));
#777 = CARTESIAN_POINT('',(4.869003232287,52.470757581411,
    43.068221009581));
#778 = CARTESIAN_POINT('',(4.941635317481,52.454478179685,
    43.187703517348));
#779 = CARTESIAN_POINT('',(5.02545368891,52.43753844705,43.293220641876)
  );
#780 = CARTESIAN_POINT('',(5.221412664948,52.402343175973,
    43.489179617914));
#781 = CARTESIAN_POINT('',(5.338161937995,52.383917895012,
    43.576660309233));
#782 = CARTESIAN_POINT('',(5.463196024783,52.367586225189,
    43.646337851967));
#783 = CARTESIAN_POINT('',(5.594028915182,52.354563938602,
    43.698355658662));
#784 = CARTESIAN_POINT('',(5.728476341088,52.345655050949,
    43.732858459154));
#785 = CARTESIAN_POINT('',(5.864478536265,52.341229182759,43.75));
#786 = CARTESIAN_POINT('',(6.,52.341229182759,43.75));
#787 = PCURVE('',#272,#788);
#788 = DEFINITIONAL_REPRESENTATION('',(#789),#804);
#789 = B_SPLINE_CURVE_WITH_KNOTS('',7,(#790,#791,#792,#793,#794,#795,
    #796,#797,#798,#799,#800,#801,#802,#803),.UNSPECIFIED.,.F.,.F.,(8,6,
    8),(0.,0.462662320656,1.),.UNSPECIFIED.);
#790 = CARTESIAN_POINT('',(4.712388980385,5.));
#791 = CARTESIAN_POINT('',(4.831772904588,5.));
#792 = CARTESIAN_POINT('',(4.949194148691,4.99480358424));
#793 = CARTESIAN_POINT('',(5.064567148966,4.984719609259));
#794 = CARTESIAN_POINT('',(5.177670773709,4.970757581411));
#795 = CARTESIAN_POINT('',(5.288109460608,4.954478179685));
#796 = CARTESIAN_POINT('',(5.395213855538,4.93753844705));
#797 = CARTESIAN_POINT('',(5.616916128804,4.902343175973));
#798 = CARTESIAN_POINT('',(5.732446277853,4.883917895012));
#799 = CARTESIAN_POINT('',(5.845351775391,4.867586225189));
#800 = CARTESIAN_POINT('',(5.956326013979,4.854563938602));
#801 = CARTESIAN_POINT('',(6.065966623472,4.845655050949));
#802 = CARTESIAN_POINT('',(6.174768136192,4.841229182759));
#803 = CARTESIAN_POINT('',(6.28318530718,4.841229182759));
#804 = ( GEOMETRIC_REPRESENTATION_CONTEXT(2) 
PARAMETRIC_REPRESENTATION_CONTEXT() REPRESENTATION_CONTEXT('2D SPACE',''
  ) );
#805 = PCURVE('',#720,#806);
#806 = DEFINITIONAL_REPRESENTATION('',(#807),#822);
#807 = B_SPLINE_CURVE_WITH_KNOTS('',7,(#808,#809,#810,#811,#812,#813,
    #814,#815,#816,#817,#818,#819,#820,#821),.UNSPECIFIED.,.F.,.F.,(8,6,
    8),(0.,0.462662320656,1.),.UNSPECIFIED.);
#808 = CARTESIAN_POINT('',(0.,-0.75));
#809 = CARTESIAN_POINT('',(-2.984598105079E-02,-0.75));
#810 = CARTESIAN_POINT('',(-5.920134705715E-02,-0.770784830488));
#811 = CARTESIAN_POINT('',(-8.739295292901E-02,-0.811125051238));
#812 = CARTESIAN_POINT('',(-0.113811847637,-0.869003232287));
#813 = CARTESIAN_POINT('',(-0.137917949026,-0.941635317481));
#814 = CARTESIAN_POINT('',(-0.15928789443,-1.02545368891));
#815 = CARTESIAN_POINT('',(-0.19910679818,-1.221412664948));
#816 = CARTESIAN_POINT('',(-0.216978819548,-1.338161937995));
#817 = CARTESIAN_POINT('',(-0.231288279173,-1.463196024783));
#818 = CARTESIAN_POINT('',(-0.242012647173,-1.594028915182));
#819 = CARTESIAN_POINT('',(-0.249139513577,-1.728476341088));
#820 = CARTESIAN_POINT('',(-0.252680255142,-1.864478536265));
#821 = CARTESIAN_POINT('',(-0.252680255142,-2.));
#822 = ( GEOMETRIC_REPRESENTATION_CONTEXT(2) 
PARAMETRIC_REPRESENTATION_CONTEXT() REPRESENTATION_CONTEXT('2D SPACE',''
  ) );
#823 = ORIENTED_EDGE('',*,*,#824,.F.);
#824 = EDGE_CURVE('',#683,#769,#825,.T.);
#825 = SURFACE_CURVE('',#826,(#853,#883),.PCURVE_S1.);
#826 = B_SPLINE_CURVE_WITH_KNOTS('',7,(#827,#828,#829,#830,#831,#832,
    #833,#834,#835,#836,#837,#838,#839,#840,#841,#842,#843,#844,#845,
    #846,#847,#848,#849,#850,#851,#852),.UNSPECIFIED.,.F.,.F.,(8,6,6,6,8
    ),(0.,0.241136209108,0.500028793396,0.75889846685,1.),
  .UNSPECIFIED.);
#827 = CARTESIAN_POINT('',(7.25,52.5,42.5));
#828 = CARTESIAN_POINT('',(7.25,52.5,42.344109006508));
#829 = CARTESIAN_POINT('',(7.227318259562,52.494329288194,42.1911001356)
  );
#830 = CARTESIAN_POINT('',(7.183463537896,52.483367048208,
    42.044948029379));
#831 = CARTESIAN_POINT('',(7.120783292337,52.468300948343,
    41.909185889518));
#832 = CARTESIAN_POINT('',(7.042447575695,52.450930153204,
    41.786741476878));
#833 = CARTESIAN_POINT('',(6.952469061362,52.433113997914,
    41.679676548395));
#834 = CARTESIAN_POINT('',(6.751771802213,52.398182339145,
    41.491209277308));
#835 = CARTESIAN_POINT('',(6.637877245039,52.380843513379,
    41.410271055268));
#836 = CARTESIAN_POINT('',(6.516812552,52.365639602909,41.345913460037)
  );
#837 = CARTESIAN_POINT('',(6.390776827414,52.353595776955,
    41.297895512354));
#838 = CARTESIAN_POINT('',(6.261590808351,52.345354316125,
    41.265976602739));
#839 = CARTESIAN_POINT('',(6.130835488696,52.341229182759,41.25));
#840 = CARTESIAN_POINT('',(5.869176089659,52.341229182759,41.25));
#841 = CARTESIAN_POINT('',(5.738428067661,52.34535358961,41.265973773336
    ));
#842 = CARTESIAN_POINT('',(5.609236062302,52.353594054786,
    41.297888914497));
#843 = CARTESIAN_POINT('',(5.483182505908,52.365638949614,
    41.345910261082));
#844 = CARTESIAN_POINT('',(5.362100603242,52.380846318346,
    41.410280793167));
#845 = CARTESIAN_POINT('',(5.248206068187,52.398186190835,
    41.491230058385));
#846 = CARTESIAN_POINT('',(5.047556902677,52.433109478834,41.67965216654
    ));
#847 = CARTESIAN_POINT('',(4.95756287562,52.450927171893,41.786719540604
    ));
#848 = CARTESIAN_POINT('',(4.87920482591,52.468303070702,41.90918952386)
  );
#849 = CARTESIAN_POINT('',(4.816514412458,52.483372575258,
    42.044985679513));
#850 = CARTESIAN_POINT('',(4.77266647681,52.494333100877,42.191160704021
    ));
#851 = CARTESIAN_POINT('',(4.75,52.5,42.344161458471));
#852 = CARTESIAN_POINT('',(4.75,52.5,42.5));
#853 = PCURVE('',#272,#854);
#854 = DEFINITIONAL_REPRESENTATION('',(#855),#882);
#855 = B_SPLINE_CURVE_WITH_KNOTS('',7,(#856,#857,#858,#859,#860,#861,
    #862,#863,#864,#865,#866,#867,#868,#869,#870,#871,#872,#873,#874,
    #875,#876,#877,#878,#879,#880,#881),.UNSPECIFIED.,.F.,.F.,(8,6,6,6,8
    ),(0.,0.241136209108,0.500028793396,0.75889846685,1.),
  .UNSPECIFIED.);
#856 = CARTESIAN_POINT('',(1.570796326795,5.));
#857 = CARTESIAN_POINT('',(1.695509121588,5.));
#858 = CARTESIAN_POINT('',(1.817916145133,4.994329288194));
#859 = CARTESIAN_POINT('',(1.938006302625,4.983367048208));
#860 = CARTESIAN_POINT('',(2.055592922683,4.968300948343));
#861 = CARTESIAN_POINT('',(2.170288343828,4.950930153204));
#862 = CARTESIAN_POINT('',(2.281394401048,4.933113997914));
#863 = CARTESIAN_POINT('',(2.501647785459,4.898182339145));
#864 = CARTESIAN_POINT('',(2.612393121958,4.880843513379));
#865 = CARTESIAN_POINT('',(2.72066141952,4.865639602909));
#866 = CARTESIAN_POINT('',(2.827098030863,4.853595776954));
#867 = CARTESIAN_POINT('',(2.932320076581,4.845354316125));
#868 = CARTESIAN_POINT('',(3.036924262633,4.841229182759));
#869 = CARTESIAN_POINT('',(3.246251781863,4.841229182759));
#870 = CARTESIAN_POINT('',(3.350850138365,4.84535358961));
#871 = CARTESIAN_POINT('',(3.456076424614,4.853594054786));
#872 = CARTESIAN_POINT('',(3.562526513884,4.865638949614));
#873 = CARTESIAN_POINT('',(3.670810447021,4.880846318346));
#874 = CARTESIAN_POINT('',(3.781561807649,4.898186190835));
#875 = CARTESIAN_POINT('',(4.001762412133,4.933109478834));
#876 = CARTESIAN_POINT('',(4.112878861753,4.950927171893));
#877 = CARTESIAN_POINT('',(4.227599697517,4.968303070702));
#878 = CARTESIAN_POINT('',(4.345212289955,4.983372575258));
#879 = CARTESIAN_POINT('',(4.46531762355,4.994333100877));
#880 = CARTESIAN_POINT('',(4.587718147162,5.));
#881 = CARTESIAN_POINT('',(4.712388980385,5.));
#882 = ( GEOMETRIC_REPRESENTATION_CONTEXT(2) 
PARAMETRIC_REPRESENTATION_CONTEXT() REPRESENTATION_CONTEXT('2D SPACE',''
  ) );
#883 = PCURVE('',#720,#884);
#884 = DEFINITIONAL_REPRESENTATION('',(#885),#912);
#885 = B_SPLINE_CURVE_WITH_KNOTS('',7,(#886,#887,#888,#889,#890,#891,
    #892,#893,#894,#895,#896,#897,#898,#899,#900,#901,#902,#903,#904,
    #905,#906,#907,#908,#909,#910,#911),.UNSPECIFIED.,.F.,.F.,(8,6,6,6,8
    ),(0.,0.241136209108,0.500028793396,0.75889846685,1.),
  .UNSPECIFIED.);
#886 = CARTESIAN_POINT('',(-6.28318530718,-3.25));
#887 = CARTESIAN_POINT('',(-6.252007108481,-3.25));
#888 = CARTESIAN_POINT('',(-6.22140528904,-3.227318259562));
#889 = CARTESIAN_POINT('',(-6.192125608724,-3.183463537896));
#890 = CARTESIAN_POINT('',(-6.164832231086,-3.120783292337));
#891 = CARTESIAN_POINT('',(-6.140109776774,-3.042447575695));
#892 = CARTESIAN_POINT('',(-6.118406048149,-2.952469061362));
#893 = CARTESIAN_POINT('',(-6.080070616467,-2.751771802213));
#894 = CARTESIAN_POINT('',(-6.063522086957,-2.637877245039));
#895 = CARTESIAN_POINT('',(-6.050299162809,-2.516812552));
#896 = CARTESIAN_POINT('',(-6.040398294315,-2.390776827414));
#897 = CARTESIAN_POINT('',(-6.033805167801,-2.261590808351));
#898 = CARTESIAN_POINT('',(-6.030505052038,-2.130835488696));
#899 = CARTESIAN_POINT('',(-6.030505052038,-1.869176089659));
#900 = CARTESIAN_POINT('',(-6.033804584178,-1.738428067661));
#901 = CARTESIAN_POINT('',(-6.040396928228,-1.609236062302));
#902 = CARTESIAN_POINT('',(-6.050298515527,-1.483182505908));
#903 = CARTESIAN_POINT('',(-6.063524104695,-1.362100603243));
#904 = CARTESIAN_POINT('',(-6.08007484347,-1.248206068187));
#905 = CARTESIAN_POINT('',(-6.118401088726,-1.047556902677));
#906 = CARTESIAN_POINT('',(-6.140105353607,-0.95756287562));
#907 = CARTESIAN_POINT('',(-6.164833018011,-0.87920482591));
#908 = CARTESIAN_POINT('',(-6.192133191884,-0.816514412459));
#909 = CARTESIAN_POINT('',(-6.221417402009,-0.77266647681));
#910 = CARTESIAN_POINT('',(-6.252017598874,-0.75));
#911 = CARTESIAN_POINT('',(-6.28318530718,-0.75));
#912 = ( GEOMETRIC_REPRESENTATION_CONTEXT(2) 
PARAMETRIC_REPRESENTATION_CONTEXT() REPRESENTATION_CONTEXT('2D SPACE',''
  ) );
#913 = ADVANCED_FACE('',(#914,#940),#441,.T.);
#914 = FACE_BOUND('',#915,.T.);
#915 = EDGE_LOOP('',(#916));
#916 = ORIENTED_EDGE('',*,*,#917,.T.);
#917 = EDGE_CURVE('',#918,#918,#920,.T.);
#918 = VERTEX_POINT('',#919);
#919 = CARTESIAN_POINT('',(9.,52.5,42.5));
#920 = SURFACE_CURVE('',#921,(#926,#933),.PCURVE_S1.);
#921 = CIRCLE('',#922,5.);
#922 = AXIS2_PLACEMENT_3D('',#923,#924,#925);
#923 = CARTESIAN_POINT('',(9.,47.5,42.5));
#924 = DIRECTION('',(1.,0.,0.));
#925 = DIRECTION('',(0.,1.,0.));
#926 = PCURVE('',#441,#927);
#927 = DEFINITIONAL_REPRESENTATION('',(#928),#932);
#928 = CIRCLE('',#929,5.);
#929 = AXIS2_PLACEMENT_2D('',#930,#931);
#930 = CARTESIAN_POINT('',(7.105427357601E-15,0.));
#931 = DIRECTION('',(0.,-1.));
#932 = ( GEOMETRIC_REPRESENTATION_CONTEXT(2) 
PARAMETRIC_REPRESENTATION_CONTEXT() REPRESENTATION_CONTEXT('2D SPACE',''
  ) );
#933 = PCURVE('',#720,#934);
#934 = DEFINITIONAL_REPRESENTATION('',(#935),#939);
#935 = LINE('',#936,#937);
#936 = CARTESIAN_POINT('',(-0.,-5.));
#937 = VECTOR('',#938,1.);
#938 = DIRECTION('',(-1.,0.));
#939 = ( GEOMETRIC_REPRESENTATION_CONTEXT(2) 
PARAMETRIC_REPRESENTATION_CONTEXT() REPRESENTATION_CONTEXT('2D SPACE',''
  ) );
#940 = FACE_BOUND('',#941,.T.);
#941 = EDGE_LOOP('',(#942));
#942 = ORIENTED_EDGE('',*,*,#426,.F.);
#943 = ADVANCED_FACE('',(#944,#979),#663,.F.);
#944 = FACE_BOUND('',#945,.F.);
#945 = EDGE_LOOP('',(#946));
#946 = ORIENTED_EDGE('',*,*,#947,.F.);
#947 = EDGE_CURVE('',#948,#948,#950,.T.);
#948 = VERTEX_POINT('',#949);
#949 = CARTESIAN_POINT('',(3.,62.5,42.5));
#950 = SURFACE_CURVE('',#951,(#956,#967),.PCURVE_S1.);
#951 = CIRCLE('',#952,15.);
#952 = AXIS2_PLACEMENT_3D('',#953,#954,#955);
#953 = CARTESIAN_POINT('',(3.,47.5,42.5));
#954 = DIRECTION('',(-1.,0.,0.));
#955 = DIRECTION('',(0.,1.,0.));
#956 = PCURVE('',#663,#957);
#957 = DEFINITIONAL_REPRESENTATION('',(#958),#966);
#958 = ( BOUNDED_CURVE() B_SPLINE_CURVE(2,(#959,#960,#961,#962,#963,#964
,#965),.UNSPECIFIED.,.T.,.F.) B_SPLINE_CURVE_WITH_KNOTS((1,2,2,2,2,1),(
    -2.094395102393,0.,2.094395102393,4.188790204786,6.28318530718,
8.377580409573),.UNSPECIFIED.) CURVE() GEOMETRIC_REPRESENTATION_ITEM() 
RATIONAL_B_SPLINE_CURVE((1.,0.5,1.,0.5,1.,0.5,1.)) REPRESENTATION_ITEM(
  '') );
#959 = CARTESIAN_POINT('',(0.,-15.));
#960 = CARTESIAN_POINT('',(-25.98076211353,-15.));
#961 = CARTESIAN_POINT('',(-12.99038105676,7.5));
#962 = CARTESIAN_POINT('',(-3.673940397442E-15,30.));
#963 = CARTESIAN_POINT('',(12.990381056767,7.5));
#964 = CARTESIAN_POINT('',(25.980762113533,-15.));
#965 = CARTESIAN_POINT('',(0.,-15.));
#966 = ( GEOMETRIC_REPRESENTATION_CONTEXT(2) 
PARAMETRIC_REPRESENTATION_CONTEXT() REPRESENTATION_CONTEXT('2D SPACE',''
  ) );
#967 = PCURVE('',#968,#973);
#968 = CYLINDRICAL_SURFACE('',#969,15.);
#969 = AXIS2_PLACEMENT_3D('',#970,#971,#972);
#970 = CARTESIAN_POINT('',(-4.,47.5,42.5));
#971 = DIRECTION('',(-1.,-0.,-0.));
#972 = DIRECTION('',(0.,1.,0.));
#973 = DEFINITIONAL_REPRESENTATION('',(#974),#978);
#974 = LINE('',#975,#976);
#975 = CARTESIAN_POINT('',(-6.28318530718,-7.));
#976 = VECTOR('',#977,1.);
#977 = DIRECTION('',(1.,-0.));
#978 = ( GEOMETRIC_REPRESENTATION_CONTEXT(2) 
PARAMETRIC_REPRESENTATION_CONTEXT() REPRESENTATION_CONTEXT('2D SPACE',''
  ) );
#979 = FACE_BOUND('',#980,.F.);
#980 = EDGE_LOOP('',(#981));
#981 = ORIENTED_EDGE('',*,*,#648,.F.);
#982 = ADVANCED_FACE('',(#983),#720,.T.);
#983 = FACE_BOUND('',#984,.F.);
#984 = EDGE_LOOP('',(#985,#1014,#1035,#1036,#1037,#1058,#1059,#1060,
    #1061));
#985 = ORIENTED_EDGE('',*,*,#986,.F.);
#986 = EDGE_CURVE('',#987,#987,#989,.T.);
#987 = VERTEX_POINT('',#988);
#988 = CARTESIAN_POINT('',(4.,52.5,42.5));
#989 = SURFACE_CURVE('',#990,(#995,#1002),.PCURVE_S1.);
#990 = CIRCLE('',#991,5.);
#991 = AXIS2_PLACEMENT_3D('',#992,#993,#994);
#992 = CARTESIAN_POINT('',(4.,47.5,42.5));
#993 = DIRECTION('',(1.,0.,0.));
#994 = DIRECTION('',(0.,1.,0.));
#995 = PCURVE('',#720,#996);
#996 = DEFINITIONAL_REPRESENTATION('',(#997),#1001);
#997 = LINE('',#998,#999);
#998 = CARTESIAN_POINT('',(-0.,0.));
#999 = VECTOR('',#1000,1.);
#1000 = DIRECTION('',(-1.,0.));
#1001 = ( GEOMETRIC_REPRESENTATION_CONTEXT(2) 
PARAMETRIC_REPRESENTATION_CONTEXT() REPRESENTATION_CONTEXT('2D SPACE',''
  ) );
#1002 = PCURVE('',#1003,#1008);
#1003 = PLANE('',#1004);
#1004 = AXIS2_PLACEMENT_3D('',#1005,#1006,#1007);
#1005 = CARTESIAN_POINT('',(4.,47.5,42.5));
#1006 = DIRECTION('',(1.,0.,0.));
#1007 = DIRECTION('',(-0.,0.,1.));
#1008 = DEFINITIONAL_REPRESENTATION('',(#1009),#1013);
#1009 = CIRCLE('',#1010,5.);
#1010 = AXIS2_PLACEMENT_2D('',#1011,#1012);
#1011 = CARTESIAN_POINT('',(0.,0.));
#1012 = DIRECTION('',(0.,-1.));
#1013 = ( GEOMETRIC_REPRESENTATION_CONTEXT(2) 
PARAMETRIC_REPRESENTATION_CONTEXT() REPRESENTATION_CONTEXT('2D SPACE',''
  ) );
#1014 = ORIENTED_EDGE('',*,*,#1015,.T.);
#1015 = EDGE_CURVE('',#987,#769,#1016,.T.);
#1016 = SEAM_CURVE('',#1017,(#1021,#1028),.PCURVE_S1.);
#1017 = LINE('',#1018,#1019);
#1018 = CARTESIAN_POINT('',(4.,52.5,42.5));
#1019 = VECTOR('',#1020,1.);
#1020 = DIRECTION('',(1.,0.,0.));
#1021 = PCURVE('',#720,#1022);
#1022 = DEFINITIONAL_REPRESENTATION('',(#1023),#1027);
#1023 = LINE('',#1024,#1025);
#1024 = CARTESIAN_POINT('',(-6.28318530718,0.));
#1025 = VECTOR('',#1026,1.);
#1026 = DIRECTION('',(-0.,-1.));
#1027 = ( GEOMETRIC_REPRESENTATION_CONTEXT(2) 
PARAMETRIC_REPRESENTATION_CONTEXT() REPRESENTATION_CONTEXT('2D SPACE',''
  ) );
#1028 = PCURVE('',#720,#1029);
#1029 = DEFINITIONAL_REPRESENTATION('',(#1030),#1034);
#1030 = LINE('',#1031,#1032);
#1031 = CARTESIAN_POINT('',(-0.,0.));
#1032 = VECTOR('',#1033,1.);
#1033 = DIRECTION('',(-0.,-1.));
#1034 = ( GEOMETRIC_REPRESENTATION_CONTEXT(2) 
PARAMETRIC_REPRESENTATION_CONTEXT() REPRESENTATION_CONTEXT('2D SPACE',''
  ) );
#1035 = ORIENTED_EDGE('',*,*,#768,.T.);
#1036 = ORIENTED_EDGE('',*,*,#680,.T.);
#1037 = ORIENTED_EDGE('',*,*,#1038,.T.);
#1038 = EDGE_CURVE('',#683,#918,#1039,.T.);
#1039 = SEAM_CURVE('',#1040,(#1044,#1051),.PCURVE_S1.);
#1040 = LINE('',#1041,#1042);
#1041 = CARTESIAN_POINT('',(4.,52.5,42.5));
#1042 = VECTOR('',#1043,1.);
#1043 = DIRECTION('',(1.,0.,0.));
#1044 = PCURVE('',#720,#1045);
#1045 = DEFINITIONAL_REPRESENTATION('',(#1046),#1050);
#1046 = LINE('',#1047,#1048);
#1047 = CARTESIAN_POINT('',(-6.28318530718,0.));
#1048 = VECTOR('',#1049,1.);
#1049 = DIRECTION('',(-0.,-1.));
#1050 = ( GEOMETRIC_REPRESENTATION_CONTEXT(2) 
PARAMETRIC_REPRESENTATION_CONTEXT() REPRESENTATION_CONTEXT('2D SPACE',''
  ) );
#1051 = PCURVE('',#720,#1052);
#1052 = DEFINITIONAL_REPRESENTATION('',(#1053),#1057);
#1053 = LINE('',#1054,#1055);
#1054 = CARTESIAN_POINT('',(-0.,0.));
#1055 = VECTOR('',#1056,1.);
#1056 = DIRECTION('',(-0.,-1.));
#1057 = ( GEOMETRIC_REPRESENTATION_CONTEXT(2) 
PARAMETRIC_REPRESENTATION_CONTEXT() REPRESENTATION_CONTEXT('2D SPACE',''
  ) );
#1058 = ORIENTED_EDGE('',*,*,#917,.T.);
#1059 = ORIENTED_EDGE('',*,*,#1038,.F.);
#1060 = ORIENTED_EDGE('',*,*,#824,.T.);
#1061 = ORIENTED_EDGE('',*,*,#1015,.F.);
#1062 = ADVANCED_FACE('',(#1063),#968,.T.);
#1063 = FACE_BOUND('',#1064,.F.);
#1064 = EDGE_LOOP('',(#1065,#1066,#1089,#1111));
#1065 = ORIENTED_EDGE('',*,*,#947,.T.);
#1066 = ORIENTED_EDGE('',*,*,#1067,.T.);
#1067 = EDGE_CURVE('',#948,#1068,#1070,.T.);
#1068 = VERTEX_POINT('',#1069);
#1069 = CARTESIAN_POINT('',(4.,62.5,42.5));
#1070 = SEAM_CURVE('',#1071,(#1075,#1082),.PCURVE_S1.);
#1071 = LINE('',#1072,#1073);
#1072 = CARTESIAN_POINT('',(-4.,62.5,42.5));
#1073 = VECTOR('',#1074,1.);
#1074 = DIRECTION('',(1.,0.,0.));
#1075 = PCURVE('',#968,#1076);
#1076 = DEFINITIONAL_REPRESENTATION('',(#1077),#1081);
#1077 = LINE('',#1078,#1079);
#1078 = CARTESIAN_POINT('',(-6.28318530718,0.));
#1079 = VECTOR('',#1080,1.);
#1080 = DIRECTION('',(-0.,-1.));
#1081 = ( GEOMETRIC_REPRESENTATION_CONTEXT(2) 
PARAMETRIC_REPRESENTATION_CONTEXT() REPRESENTATION_CONTEXT('2D SPACE',''
  ) );
#1082 = PCURVE('',#968,#1083);
#1083 = DEFINITIONAL_REPRESENTATION('',(#1084),#1088);
#1084 = LINE('',#1085,#1086);
#1085 = CARTESIAN_POINT('',(-0.,0.));
#1086 = VECTOR('',#1087,1.);
#1087 = DIRECTION('',(-0.,-1.));
#1088 = ( GEOMETRIC_REPRESENTATION_CONTEXT(2) 
PARAMETRIC_REPRESENTATION_CONTEXT() REPRESENTATION_CONTEXT('2D SPACE',''
  ) );
#1089 = ORIENTED_EDGE('',*,*,#1090,.T.);
#1090 = EDGE_CURVE('',#1068,#1068,#1091,.T.);
#1091 = SURFACE_CURVE('',#1092,(#1097,#1104),.PCURVE_S1.);
#1092 = CIRCLE('',#1093,15.);
#1093 = AXIS2_PLACEMENT_3D('',#1094,#1095,#1096);
#1094 = CARTESIAN_POINT('',(4.,47.5,42.5));
#1095 = DIRECTION('',(1.,0.,0.));
#1096 = DIRECTION('',(0.,1.,0.));
#1097 = PCURVE('',#968,#1098);
#1098 = DEFINITIONAL_REPRESENTATION('',(#1099),#1103);
#1099 = LINE('',#1100,#1101);
#1100 = CARTESIAN_POINT('',(-0.,-8.));
#1101 = VECTOR('',#1102,1.);
#1102 = DIRECTION('',(-1.,0.));
#1103 = ( GEOMETRIC_REPRESENTATION_CONTEXT(2) 
PARAMETRIC_REPRESENTATION_CONTEXT() REPRESENTATION_CONTEXT('2D SPACE',''
  ) );
#1104 = PCURVE('',#1003,#1105);
#1105 = DEFINITIONAL_REPRESENTATION('',(#1106),#1110);
#1106 = CIRCLE('',#1107,15.);
#1107 = AXIS2_PLACEMENT_2D('',#1108,#1109);
#1108 = CARTESIAN_POINT('',(0.,0.));
#1109 = DIRECTION('',(0.,-1.));
#1110 = ( GEOMETRIC_REPRESENTATION_CONTEXT(2) 
PARAMETRIC_REPRESENTATION_CONTEXT() REPRESENTATION_CONTEXT('2D SPACE',''
  ) );
#1111 = ORIENTED_EDGE('',*,*,#1067,.F.);
#1112 = ADVANCED_FACE('',(#1113,#1116,#1147,#1150),#1003,.T.);
#1113 = FACE_BOUND('',#1114,.T.);
#1114 = EDGE_LOOP('',(#1115));
#1115 = ORIENTED_EDGE('',*,*,#1090,.T.);
#1116 = FACE_BOUND('',#1117,.T.);
#1117 = EDGE_LOOP('',(#1118));
#1118 = ORIENTED_EDGE('',*,*,#1119,.F.);
#1119 = EDGE_CURVE('',#1120,#1120,#1122,.T.);
#1120 = VERTEX_POINT('',#1121);
#1121 = CARTESIAN_POINT('',(4.,47.5,37.));
#1122 = SURFACE_CURVE('',#1123,(#1128,#1135),.PCURVE_S1.);
#1123 = CIRCLE('',#1124,1.5);
#1124 = AXIS2_PLACEMENT_3D('',#1125,#1126,#1127);
#1125 = CARTESIAN_POINT('',(4.,47.5,35.5));
#1126 = DIRECTION('',(1.,0.,0.));
#1127 = DIRECTION('',(-0.,0.,1.));
#1128 = PCURVE('',#1003,#1129);
#1129 = DEFINITIONAL_REPRESENTATION('',(#1130),#1134);
#1130 = CIRCLE('',#1131,1.5);
#1131 = AXIS2_PLACEMENT_2D('',#1132,#1133);
#1132 = CARTESIAN_POINT('',(-7.,0.));
#1133 = DIRECTION('',(1.,0.));
#1134 = ( GEOMETRIC_REPRESENTATION_CONTEXT(2) 
PARAMETRIC_REPRESENTATION_CONTEXT() REPRESENTATION_CONTEXT('2D SPACE',''
  ) );
#1135 = PCURVE('',#1136,#1141);
#1136 = CYLINDRICAL_SURFACE('',#1137,1.5);
#1137 = AXIS2_PLACEMENT_3D('',#1138,#1139,#1140);
#1138 = CARTESIAN_POINT('',(2.,47.5,35.5));
#1139 = DIRECTION('',(1.,0.,0.));
#1140 = DIRECTION('',(-0.,0.,1.));
#1141 = DEFINITIONAL_REPRESENTATION('',(#1142),#1146);
#1142 = LINE('',#1143,#1144);
#1143 = CARTESIAN_POINT('',(0.,2.));
#1144 = VECTOR('',#1145,1.);
#1145 = DIRECTION('',(1.,0.));
#1146 = ( GEOMETRIC_REPRESENTATION_CONTEXT(2) 
PARAMETRIC_REPRESENTATION_CONTEXT() REPRESENTATION_CONTEXT('2D SPACE',''
  ) );
#1147 = FACE_BOUND('',#1148,.T.);
#1148 = EDGE_LOOP('',(#1149));
#1149 = ORIENTED_EDGE('',*,*,#986,.F.);
#1150 = FACE_BOUND('',#1151,.T.);
#1151 = EDGE_LOOP('',(#1152));
#1152 = ORIENTED_EDGE('',*,*,#1153,.F.);
#1153 = EDGE_CURVE('',#1154,#1154,#1156,.T.);
#1154 = VERTEX_POINT('',#1155);
#1155 = CARTESIAN_POINT('',(4.,47.5,51.));
#1156 = SURFACE_CURVE('',#1157,(#1162,#1169),.PCURVE_S1.);
#1157 = CIRCLE('',#1158,1.5);
#1158 = AXIS2_PLACEMENT_3D('',#1159,#1160,#1161);
#1159 = CARTESIAN_POINT('',(4.,47.5,49.5));
#1160 = DIRECTION('',(1.,0.,0.));
#1161 = DIRECTION('',(-0.,0.,1.));
#1162 = PCURVE('',#1003,#1163);
#1163 = DEFINITIONAL_REPRESENTATION('',(#1164),#1168);
#1164 = CIRCLE('',#1165,1.5);
#1165 = AXIS2_PLACEMENT_2D('',#1166,#1167);
#1166 = CARTESIAN_POINT('',(7.,0.));
#1167 = DIRECTION('',(1.,0.));
#1168 = ( GEOMETRIC_REPRESENTATION_CONTEXT(2) 
PARAMETRIC_REPRESENTATION_CONTEXT() REPRESENTATION_CONTEXT('2D SPACE',''
  ) );
#1169 = PCURVE('',#1170,#1175);
#1170 = CYLINDRICAL_SURFACE('',#1171,1.5);
#1171 = AXIS2_PLACEMENT_3D('',#1172,#1173,#1174);
#1172 = CARTESIAN_POINT('',(2.,47.5,49.5));
#1173 = DIRECTION('',(1.,0.,0.));
#1174 = DIRECTION('',(-0.,0.,1.));
#1175 = DEFINITIONAL_REPRESENTATION('',(#1176),#1180);
#1176 = LINE('',#1177,#1178);
#1177 = CARTESIAN_POINT('',(0.,2.));
#1178 = VECTOR('',#1179,1.);
#1179 = DIRECTION('',(1.,0.));
#1180 = ( GEOMETRIC_REPRESENTATION_CONTEXT(2) 
PARAMETRIC_REPRESENTATION_CONTEXT() REPRESENTATION_CONTEXT('2D SPACE',''
  ) );
#1181 = ADVANCED_FACE('',(#1182),#1136,.F.);
#1182 = FACE_BOUND('',#1183,.F.);
#1183 = EDGE_LOOP('',(#1184,#1185,#1208,#1235));
#1184 = ORIENTED_EDGE('',*,*,#1119,.F.);
#1185 = ORIENTED_EDGE('',*,*,#1186,.F.);
#1186 = EDGE_CURVE('',#1187,#1120,#1189,.T.);
#1187 = VERTEX_POINT('',#1188);
#1188 = CARTESIAN_POINT('',(2.,47.5,37.));
#1189 = SEAM_CURVE('',#1190,(#1194,#1201),.PCURVE_S1.);
#1190 = LINE('',#1191,#1192);
#1191 = CARTESIAN_POINT('',(2.,47.5,37.));
#1192 = VECTOR('',#1193,1.);
#1193 = DIRECTION('',(1.,0.,0.));
#1194 = PCURVE('',#1136,#1195);
#1195 = DEFINITIONAL_REPRESENTATION('',(#1196),#1200);
#1196 = LINE('',#1197,#1198);
#1197 = CARTESIAN_POINT('',(6.28318530718,-0.));
#1198 = VECTOR('',#1199,1.);
#1199 = DIRECTION('',(0.,1.));
#1200 = ( GEOMETRIC_REPRESENTATION_CONTEXT(2) 
PARAMETRIC_REPRESENTATION_CONTEXT() REPRESENTATION_CONTEXT('2D SPACE',''
  ) );
#1201 = PCURVE('',#1136,#1202);
#1202 = DEFINITIONAL_REPRESENTATION('',(#1203),#1207);
#1203 = LINE('',#1204,#1205);
#1204 = CARTESIAN_POINT('',(0.,-0.));
#1205 = VECTOR('',#1206,1.);
#1206 = DIRECTION('',(0.,1.));
#1207 = ( GEOMETRIC_REPRESENTATION_CONTEXT(2) 
PARAMETRIC_REPRESENTATION_CONTEXT() REPRESENTATION_CONTEXT('2D SPACE',''
  ) );
#1208 = ORIENTED_EDGE('',*,*,#1209,.T.);
#1209 = EDGE_CURVE('',#1187,#1187,#1210,.T.);
#1210 = SURFACE_CURVE('',#1211,(#1216,#1223),.PCURVE_S1.);
#1211 = CIRCLE('',#1212,1.5);
#1212 = AXIS2_PLACEMENT_3D('',#1213,#1214,#1215);
#1213 = CARTESIAN_POINT('',(2.,47.5,35.5));
#1214 = DIRECTION('',(1.,0.,0.));
#1215 = DIRECTION('',(-0.,0.,1.));
#1216 = PCURVE('',#1136,#1217);
#1217 = DEFINITIONAL_REPRESENTATION('',(#1218),#1222);
#1218 = LINE('',#1219,#1220);
#1219 = CARTESIAN_POINT('',(0.,0.));
#1220 = VECTOR('',#1221,1.);
#1221 = DIRECTION('',(1.,0.));
#1222 = ( GEOMETRIC_REPRESENTATION_CONTEXT(2) 
PARAMETRIC_REPRESENTATION_CONTEXT() REPRESENTATION_CONTEXT('2D SPACE',''
  ) );
#1223 = PCURVE('',#1224,#1229);
#1224 = PLANE('',#1225);
#1225 = AXIS2_PLACEMENT_3D('',#1226,#1227,#1228);
#1226 = CARTESIAN_POINT('',(2.,47.5,35.5));
#1227 = DIRECTION('',(1.,0.,0.));
#1228 = DIRECTION('',(-0.,0.,1.));
#1229 = DEFINITIONAL_REPRESENTATION('',(#1230),#1234);
#1230 = CIRCLE('',#1231,1.5);
#1231 = AXIS2_PLACEMENT_2D('',#1232,#1233);
#1232 = CARTESIAN_POINT('',(0.,0.));
#1233 = DIRECTION('',(1.,0.));
#1234 = ( GEOMETRIC_REPRESENTATION_CONTEXT(2) 
PARAMETRIC_REPRESENTATION_CONTEXT() REPRESENTATION_CONTEXT('2D SPACE',''
  ) );
#1235 = ORIENTED_EDGE('',*,*,#1186,.T.);
#1236 = ADVANCED_FACE('',(#1237),#1170,.F.);
#1237 = FACE_BOUND('',#1238,.F.);
#1238 = EDGE_LOOP('',(#1239,#1240,#1263,#1290));
#1239 = ORIENTED_EDGE('',*,*,#1153,.F.);
#1240 = ORIENTED_EDGE('',*,*,#1241,.F.);
#1241 = EDGE_CURVE('',#1242,#1154,#1244,.T.);
#1242 = VERTEX_POINT('',#1243);
#1243 = CARTESIAN_POINT('',(2.,47.5,51.));
#1244 = SEAM_CURVE('',#1245,(#1249,#1256),.PCURVE_S1.);
#1245 = LINE('',#1246,#1247);
#1246 = CARTESIAN_POINT('',(2.,47.5,51.));
#1247 = VECTOR('',#1248,1.);
#1248 = DIRECTION('',(1.,0.,0.));
#1249 = PCURVE('',#1170,#1250);
#1250 = DEFINITIONAL_REPRESENTATION('',(#1251),#1255);
#1251 = LINE('',#1252,#1253);
#1252 = CARTESIAN_POINT('',(6.28318530718,-0.));
#1253 = VECTOR('',#1254,1.);
#1254 = DIRECTION('',(0.,1.));
#1255 = ( GEOMETRIC_REPRESENTATION_CONTEXT(2) 
PARAMETRIC_REPRESENTATION_CONTEXT() REPRESENTATION_CONTEXT('2D SPACE',''
  ) );
#1256 = PCURVE('',#1170,#1257);
#1257 = DEFINITIONAL_REPRESENTATION('',(#1258),#1262);
#1258 = LINE('',#1259,#1260);
#1259 = CARTESIAN_POINT('',(0.,-0.));
#1260 = VECTOR('',#1261,1.);
#1261 = DIRECTION('',(0.,1.));
#1262 = ( GEOMETRIC_REPRESENTATION_CONTEXT(2) 
PARAMETRIC_REPRESENTATION_CONTEXT() REPRESENTATION_CONTEXT('2D SPACE',''
  ) );
#1263 = ORIENTED_EDGE('',*,*,#1264,.T.);
#1264 = EDGE_CURVE('',#1242,#1242,#1265,.T.);
#1265 = SURFACE_CURVE('',#1266,(#1271,#1278),.PCURVE_S1.);
#1266 = CIRCLE('',#1267,1.5);
#1267 = AXIS2_PLACEMENT_3D('',#1268,#1269,#1270);
#1268 = CARTESIAN_POINT('',(2.,47.5,49.5));
#1269 = DIRECTION('',(1.,0.,0.));
#1270 = DIRECTION('',(-0.,0.,1.));
#1271 = PCURVE('',#1170,#1272);
#1272 = DEFINITIONAL_REPRESENTATION('',(#1273),#1277);
#1273 = LINE('',#1274,#1275);
#1274 = CARTESIAN_POINT('',(0.,0.));
#1275 = VECTOR('',#1276,1.);
#1276 = DIRECTION('',(1.,0.));
#1277 = ( GEOMETRIC_REPRESENTATION_CONTEXT(2) 
PARAMETRIC_REPRESENTATION_CONTEXT() REPRESENTATION_CONTEXT('2D SPACE',''
  ) );
#1278 = PCURVE('',#1279,#1284);
#1279 = PLANE('',#1280);
#1280 = AXIS2_PLACEMENT_3D('',#1281,#1282,#1283);
#1281 = CARTESIAN_POINT('',(2.,47.5,49.5));
#1282 = DIRECTION('',(1.,0.,0.));
#1283 = DIRECTION('',(-0.,0.,1.));
#1284 = DEFINITIONAL_REPRESENTATION('',(#1285),#1289);
#1285 = CIRCLE('',#1286,1.5);
#1286 = AXIS2_PLACEMENT_2D('',#1287,#1288);
#1287 = CARTESIAN_POINT('',(0.,0.));
#1288 = DIRECTION('',(1.,0.));
#1289 = ( GEOMETRIC_REPRESENTATION_CONTEXT(2) 
PARAMETRIC_REPRESENTATION_CONTEXT() REPRESENTATION_CONTEXT('2D SPACE',''
  ) );
#1290 = ORIENTED_EDGE('',*,*,#1241,.T.);
#1291 = ADVANCED_FACE('',(#1292),#1224,.T.);
#1292 = FACE_BOUND('',#1293,.F.);
#1293 = EDGE_LOOP('',(#1294));
#1294 = ORIENTED_EDGE('',*,*,#1209,.F.);
#1295 = ADVANCED_FACE('',(#1296),#1279,.T.);
#1296 = FACE_BOUND('',#1297,.F.);
#1297 = EDGE_LOOP('',(#1298));
#1298 = ORIENTED_EDGE('',*,*,#1264,.F.);
#1299 = ( GEOMETRIC_REPRESENTATION_CONTEXT(3) 
GLOBAL_UNCERTAINTY_ASSIGNED_CONTEXT((#1303)) 
GLOBAL_UNIT_ASSIGNED_CONTEXT((#1300,#1301,#1302)) REPRESENTATION_CONTEXT
('Context #1','3D Context with UNIT and UNCERTAINTY') );
#1300 = ( LENGTH_UNIT() NAMED_UNIT(*) SI_UNIT(.MILLI.,.METRE.) );
#1301 = ( NAMED_UNIT(*) PLANE_ANGLE_UNIT() SI_UNIT($,.RADIAN.) );
#1302 = ( NAMED_UNIT(*) SI_UNIT($,.STERADIAN.) SOLID_ANGLE_UNIT() );
#1303 = UNCERTAINTY_MEASURE_WITH_UNIT(LENGTH_MEASURE(1.E-07),#1300,
  'distance_accuracy_value','confusion accuracy');
#1304 = PRODUCT_RELATED_PRODUCT_CATEGORY('part',$,(#7));
ENDSEC;
END-ISO-10303-21;
