  0
SECTION
  2
HEADER
  9
$ACADVER
  1
AC1027
  9
$ACADMAINTVER
 70
105
  9
$DWGCODEPAGE
  3
ANSI_1252
  9
$LASTSAVEDBY
  1
ezdxf
  9
$REQUIREDVERSIONS
160
0
  9
$INSBASE
 10
0.0
 20
0.0
 30
0.0
  9
$EXTMIN
 10
1e+20
 20
1e+20
 30
1e+20
  9
$EXTMAX
 10
-1e+20
 20
-1e+20
 30
-1e+20
  9
$LIMMIN
 10
0.0
 20
0.0
  9
$LIMMAX
 10
420.0
 20
297.0
  9
$ORTHOMODE
 70
0
  9
$REGENMODE
 70
1
  9
$FILLMODE
 70
1
  9
$QTEXTMODE
 70
0
  9
$MIRRTEXT
 70
1
  9
$LTSCALE
 40
1.0
  9
$ATTMODE
 70
1
  9
$TEXTSIZE
 40
2.5
  9
$TRACEWID
 40
1.0
  9
$TEXTSTYLE
  7
Standard
  9
$CLAYER
  8
0
  9
$CELTYPE
  6
ByLayer
  9
$CECOLOR
 62
256
  9
$CELTSCALE
 40
1.0
  9
$DISPSILH
 70
0
  9
$DIMSCALE
 40
1.0
  9
$DIMASZ
 40
2.5
  9
$DIMEXO
 40
0.625
  9
$DIMDLI
 40
3.75
  9
$DIMRND
 40
0.0
  9
$DIMDLE
 40
0.0
  9
$DIMEXE
 40
1.25
  9
$DIMTP
 40
0.0
  9
$DIMTM
 40
0.0
  9
$DIMTXT
 40
2.5
  9
$DIMCEN
 40
2.5
  9
$DIMTSZ
 40
0.0
  9
$DIMTOL
 70
0
  9
$DIMLIM
 70
0
  9
$DIMTIH
 70
0
  9
$DIMTOH
 70
0
  9
$DIMSE1
 70
0
  9
$DIMSE2
 70
0
  9
$DIMTAD
 70
1
  9
$DIMZIN
 70
8
  9
$DIMBLK
  1

  9
$DIMASO
 70
1
  9
$DIMSHO
 70
1
  9
$DIMPOST
  1

  9
$DIMAPOST
  1

  9
$DIMALT
 70
0
  9
$DIMALTD
 70
3
  9
$DIMALTF
 40
0.03937007874
  9
$DIMLFAC
 40
1.0
  9
$DIMTOFL
 70
1
  9
$DIMTVP
 40
0.0
  9
$DIMTIX
 70
0
  9
$DIMSOXD
 70
0
  9
$DIMSAH
 70
0
  9
$DIMBLK1
  1

  9
$DIMBLK2
  1

  9
$DIMSTYLE
  2
ISO-25
  9
$DIMCLRD
 70
0
  9
$DIMCLRE
 70
0
  9
$DIMCLRT
 70
0
  9
$DIMTFAC
 40
1.0
  9
$DIMGAP
 40
0.625
  9
$DIMJUST
 70
0
  9
$DIMSD1
 70
0
  9
$DIMSD2
 70
0
  9
$DIMTOLJ
 70
0
  9
$DIMTZIN
 70
8
  9
$DIMALTZ
 70
0
  9
$DIMALTTZ
 70
0
  9
$DIMUPT
 70
0
  9
$DIMDEC
 70
2
  9
$DIMTDEC
 70
2
  9
$DIMALTU
 70
2
  9
$DIMALTTD
 70
3
  9
$DIMTXSTY
  7
Standard
  9
$DIMAUNIT
 70
0
  9
$DIMADEC
 70
0
  9
$DIMALTRND
 40
0.0
  9
$DIMAZIN
 70
0
  9
$DIMDSEP
 70
44
  9
$DIMATFIT
 70
3
  9
$DIMFRAC
 70
0
  9
$DIMLDRBLK
  1

  9
$DIMLUNIT
 70
2
  9
$DIMLWD
 70
-2
  9
$DIMLWE
 70
-2
  9
$DIMTMOVE
 70
0
  9
$DIMFXL
 40
1.0
  9
$DIMFXLON
 70
0
  9
$DIMJOGANG
 40
0.785398163397
  9
$DIMTFILL
 70
0
  9
$DIMTFILLCLR
 70
0
  9
$DIMARCSYM
 70
0
  9
$DIMLTYPE
  6

  9
$DIMLTEX1
  6

  9
$DIMLTEX2
  6

  9
$DIMTXTDIRECTION
 70
0
  9
$LUNITS
 70
2
  9
$LUPREC
 70
4
  9
$SKETCHINC
 40
1.0
  9
$FILLETRAD
 40
10.0
  9
$AUNITS
 70
0
  9
$AUPREC
 70
2
  9
$MENU
  1
.
  9
$ELEVATION
 40
0.0
  9
$PELEVATION
 40
0.0
  9
$THICKNESS
 40
0.0
  9
$LIMCHECK
 70
0
  9
$CHAMFERA
 40
0.0
  9
$CHAMFERB
 40
0.0
  9
$CHAMFERC
 40
0.0
  9
$CHAMFERD
 40
0.0
  9
$SKPOLY
 70
0
  9
$TDCREATE
 40
2461322.4869907405
  9
$TDUCREATE
 40
2458532.153996898
  9
$TDUPDATE
 40
2461322.4869907405
  9
$TDUUPDATE
 40
2458532.1544311
  9
$TDINDWG
 40
0.0
  9
$TDUSRTIMER
 40
0.0
  9
$USRTIMER
 70
1
  9
$ANGBASE
 50
0.0
  9
$ANGDIR
 70
0
  9
$PDMODE
 70
0
  9
$PDSIZE
 40
0.0
  9
$PLINEWID
 40
0.0
  9
$SPLFRAME
 70
0
  9
$SPLINETYPE
 70
6
  9
$SPLINESEGS
 70
8
  9
$HANDSEED
  5
82
  9
$SURFTAB1
 70
6
  9
$SURFTAB2
 70
6
  9
$SURFTYPE
 70
6
  9
$SURFU
 70
6
  9
$SURFV
 70
6
  9
$UCSBASE
  2

  9
$UCSNAME
  2

  9
$UCSORG
 10
0.0
 20
0.0
 30
0.0
  9
$UCSXDIR
 10
1.0
 20
0.0
 30
0.0
  9
$UCSYDIR
 10
0.0
 20
1.0
 30
0.0
  9
$UCSORTHOREF
  2

  9
$UCSORTHOVIEW
 70
0
  9
$UCSORGTOP
 10
0.0
 20
0.0
 30
0.0
  9
$UCSORGBOTTOM
 10
0.0
 20
0.0
 30
0.0
  9
$UCSORGLEFT
 10
0.0
 20
0.0
 30
0.0
  9
$UCSORGRIGHT
 10
0.0
 20
0.0
 30
0.0
  9
$UCSORGFRONT
 10
0.0
 20
0.0
 30
0.0
  9
$UCSORGBACK
 10
0.0
 20
0.0
 30
0.0
  9
$PUCSBASE
  2

  9
$PUCSNAME
  2

  9
$PUCSORG
 10
0.0
 20
0.0
 30
0.0
  9
$PUCSXDIR
 10
1.0
 20
0.0
 30
0.0
  9
$PUCSYDIR
 10
0.0
 20
1.0
 30
0.0
  9
$PUCSORTHOREF
  2

  9
$PUCSORTHOVIEW
 70
0
  9
$PUCSORGTOP
 10
0.0
 20
0.0
 30
0.0
  9
$PUCSORGBOTTOM
 10
0.0
 20
0.0
 30
0.0
  9
$PUCSORGLEFT
 10
0.0
 20
0.0
 30
0.0
  9
$PUCSORGRIGHT
 10
0.0
 20
0.0
 30
0.0
  9
$PUCSORGFRONT
 10
0.0
 20
0.0
 30
0.0
  9
$PUCSORGBACK
 10
0.0
 20
0.0
 30
0.0
  9
$USERI1
 70
0
  9
$USERI2
 70
0
  9
$USERI3
 70
0
  9
$USERI4
 70
0
  9
$USERI5
 70
0
  9
$USERR1
 40
0.0
  9
$USERR2
 40
0.0
  9
$USERR3
 40
0.0
  9
$USERR4
 40
0.0
  9
$USERR5
 40
0.0
  9
$WORLDVIEW
 70
1
  9
$SHADEDGE
 70
3
  9
$SHADEDIF
 70
70
  9
$TILEMODE
 70
1
  9
$MAXACTVP
 70
64
  9
$PINSBASE
 10
0.0
 20
0.0
 30
0.0
  9
$PLIMCHECK
 70
0
  9
$PEXTMIN
 10
1e+20
 20
1e+20
 30
1e+20
  9
$PEXTMAX
 10
-1e+20
 20
-1e+20
 30
-1e+20
  9
$PLIMMIN
 10
0.0
 20
0.0
  9
$PLIMMAX
 10
420.0
 20
297.0
  9
$UNITMODE
 70
0
  9
$VISRETAIN
 70
1
  9
$PLINEGEN
 70
0
  9
$PSLTSCALE
 70
1
  9
$TREEDEPTH
 70
3020
  9
$CMLSTYLE
  2
Standard
  9
$CMLJUST
 70
0
  9
$CMLSCALE
 40
20.0
  9
$PROXYGRAPHICS
 70
1
  9
$MEASUREMENT
 70
1
  9
$CELWEIGHT
370
-1
  9
$ENDCAPS
280
0
  9
$JOINSTYLE
280
0
  9
$LWDISPLAY
290
0
  9
$INSUNITS
 70
4
  9
$HYPERLINKBASE
  1

  9
$STYLESHEET
  1

  9
$XEDIT
290
1
  9
$CEPSNTYPE
380
0
  9
$PSTYLEMODE
290
1
  9
$FINGERPRINTGUID
  2
{3D224317-F5CA-4EA9-AD2C-9BD150F7C4AA}
  9
$VERSIONGUID
  2
{48E627F8-768F-44CF-98ED-6617B7D12384}
  9
$EXTNAMES
290
1
  9
$PSVPSCALE
 40
0.0
  9
$OLESTARTUP
290
0
  9
$SORTENTS
280
127
  9
$INDEXCTL
280
0
  9
$HIDETEXT
280
1
  9
$XCLIPFRAME
280
1
  9
$HALOGAP
280
0
  9
$OBSCOLOR
 70
257
  9
$OBSLTYPE
280
0
  9
$INTERSECTIONDISPLAY
280
0
  9
$INTERSECTIONCOLOR
 70
257
  9
$DIMASSOC
280
2
  9
$PROJECTNAME
  1

  9
$CAMERADISPLAY
290
0
  9
$LENSLENGTH
 40
50.0
  9
$CAMERAHEIGHT
 40
0.0
  9
$STEPSPERSEC
 40
24.0
  9
$STEPSIZE
 40
100.0
  9
$3DDWFPREC
 40
2.0
  9
$PSOLWIDTH
 40
0.005
  9
$PSOLHEIGHT
 40
0.08
  9
$LOFTANG1
 40
1.570796326795
  9
$LOFTANG2
 40
1.570796326795
  9
$LOFTMAG1
 40
0.0
  9
$LOFTMAG2
 40
0.0
  9
$LOFTPARAM
 70
7
  9
$LOFTNORMALS
280
1
  9
$LATITUDE
 40
37.795
  9
$LONGITUDE
 40
-122.394
  9
$NORTHDIRECTION
 40
0.0
  9
$TIMEZONE
 70
-8000
  9
$LIGHTGLYPHDISPLAY
280
1
  9
$TILEMODELIGHTSYNCH
280
1
  9
$CMATERIAL
347
20
  9
$SOLIDHIST
280
0
  9
$SHOWHIST
280
1
  9
$DWFFRAME
280
2
  9
$DGNFRAME
280
2
  9
$REALWORLDSCALE
290
1
  9
$INTERFERECOLOR
 62
256
  9
$CSHADOW
280
0
  9
$SHADOWPLANELOCATION
 40
0.0
  0
ENDSEC
  0
SECTION
  2
CLASSES
  0
CLASS
  1
ACDBDICTIONARYWDFLT
  2
AcDbDictionaryWithDefault
  3
ObjectDBX Classes
 90
0
 91
0
280
0
281
0
  0
CLASS
  1
SUN
  2
AcDbSun
  3
SCENEOE
 90
1153
 91
0
280
0
281
0
  0
CLASS
  1
VISUALSTYLE
  2
AcDbVisualStyle
  3
ObjectDBX Classes
 90
4095
 91
0
280
0
281
0
  0
CLASS
  1
MATERIAL
  2
AcDbMaterial
  3
ObjectDBX Classes
 90
1153
 91
0
280
0
281
0
  0
CLASS
  1
SCALE
  2
AcDbScale
  3
ObjectDBX Classes
 90
1153
 91
0
280
0
281
0
  0
CLASS
  1
TABLESTYLE
  2
AcDbTableStyle
  3
ObjectDBX Classes
 90
4095
 91
0
280
0
281
0
  0
CLASS
  1
MLEADERSTYLE
  2
AcDbMLeaderStyle
  3
ACDB_MLEADERSTYLE_CLASS
 90
4095
 91
0
280
0
281
0
  0
CLASS
  1
DICTIONARYVAR
  2
AcDbDictionaryVar
  3
ObjectDBX Classes
 90
0
 91
0
280
0
281
0
  0
CLASS
  1
CELLSTYLEMAP
  2
AcDbCellStyleMap
  3
ObjectDBX Classes
 90
1152
 91
0
280
0
281
0
  0
CLASS
  1
MENTALRAYRENDERSETTINGS
  2
AcDbMentalRayRenderSettings
  3
SCENEOE
 90
1024
 91
0
280
0
281
0
  0
CLASS
  1
ACDBDETAILVIEWSTYLE
  2
AcDbDetailViewStyle
  3
ObjectDBX Classes
 90
1025
 91
0
280
0
281
0
  0
CLASS
  1
ACDBSECTIONVIEWSTYLE
  2
AcDbSectionViewStyle
  3
ObjectDBX Classes
 90
1025
 91
0
280
0
281
0
  0
CLASS
  1
RASTERVARIABLES
  2
AcDbRasterVariables
  3
ISM
 90
0
 91
0
280
0
281
0
  0
CLASS
  1
ACDBPLACEHOLDER
  2
AcDbPlaceHolder
  3
ObjectDBX Classes
 90
0
 91
0
280
0
281
0
  0
CLASS
  1
LAYOUT
  2
AcDbLayout
  3
ObjectDBX Classes
 90
0
 91
0
280
0
281
0
  0
ENDSEC
  0
SECTION
  2
TABLES
  0
TABLE
  2
VPORT
  5
8
330
0
100
AcDbSymbolTable
 70
1
  0
VPORT
  5
7E
330
8
100
AcDbSymbolTableRecord
100
AcDbViewportTableRecord
  2
*Active
 70
0
 10
0.0
 20
0.0
 11
1.0
 21
1.0
 12
-0.11333018872717204
 22
0.19958316298297518
 13
0.0
 23
0.0
 14
0.5
 24
0.5
 15
0.5
 25
0.5
 16
0.0
 26
0.0
 36
1.0
 17
0.0
 27
0.0
 37
0.0
 40
59.0
 41
1.34
 42
50.0
 43
0.0
 44
0.0
 50
0.0
 51
0.0
 71
0
 72
1000
 73
1
 74
3
 75
0
 76
0
 77
0
 78
0
281
0
 65
1
110
0.0
120
0.0
130
0.0
111
1.0
121
0.0
131
0.0
112
0.0
122
1.0
132
0.0
 79
0
146
0.0
  0
ENDTAB
  0
TABLE
  2
LTYPE
  5
2
330
0
100
AcDbSymbolTable
 70
3
  0
LTYPE
  5
24
330
2
100
AcDbSymbolTableRecord
100
AcDbLinetypeTableRecord
  2
ByBlock
 70
0
  3

 72
65
 73
0
 40
0.0
  0
LTYPE
  5
25
330
2
100
AcDbSymbolTableRecord
100
AcDbLinetypeTableRecord
  2
ByLayer
 70
0
  3

 72
65
 73
0
 40
0.0
  0
LTYPE
  5
26
330
2
100
AcDbSymbolTableRecord
100
AcDbLinetypeTableRecord
  2
Continuous
 70
0
  3

 72
65
 73
0
 40
0.0
  0
ENDTAB
  0
TABLE
  2
LAYER
  5
1
330
0
100
AcDbSymbolTable
 70
2
  0
LAYER
  5
27
330
1
100
AcDbSymbolTableRecord
100
AcDbLayerTableRecord
  2
0
 70
0
 62
7
  6
Continuous
370
-3
390
13
347
21
  0
LAYER
  5
28
330
1
100
AcDbSymbolTableRecord
100
AcDbLayerTableRecord
  2
Defpoints
 70
0
 62
7
  6
Continuous
290
0
370
-3
390
13
347
21
  0
ENDTAB
  0
TABLE
  2
STYLE
  5
5
330
0
100
AcDbSymbolTable
 70
1
  0
STYLE
  5
29
330
5
100
AcDbSymbolTableRecord
100
AcDbTextStyleTableRecord
  2
Standard
 70
0
 40
0.0
 41
1.0
 50
0.0
 71
0
 42
2.5
  3
txt
  4

  0
ENDTAB
  0
TABLE
  2
VIEW
  5
7
330
0
100
AcDbSymbolTable
 70
0
  0
ENDTAB
  0
TABLE
  2
UCS
  5
6
330
0
100
AcDbSymbolTable
 70
0
  0
ENDTAB
  0
TABLE
  2
APPID
  5
3
330
0
100
AcDbSymbolTable
 70
3
  0
APPID
  5
2A
330
3
100
AcDbSymbolTableRecord
100
AcDbRegAppTableRecord
  2
ACAD
 70
0
  0
APPID
  5
7F
330
3
100
AcDbSymbolTableRecord
100
AcDbRegAppTableRecord
  2
HATCHBACKGROUNDCOLOR
 70
0
  0
APPID
  5
80
330
3
100
AcDbSymbolTableRecord
100
AcDbRegAppTableRecord
  2
EZDXF
 70
0
  0
ENDTAB
  0
TABLE
  2
DIMSTYLE
  5
4
330
0
100
AcDbSymbolTable
 70
1
100
AcDbDimStyleTable
  0
DIMSTYLE
105
2B
330
4
100
AcDbSymbolTableRecord
100
AcDbDimStyleTableRecord
  2
Standard
 70
0
 40
1.0
 41
2.5
 42
0.625
 43
3.75
 44
1.25
 45
0.0
 46
0.0
 47
0.0
 48
0.0
 49
2.5
140
2.5
141
2.5
142
0.0
143
0.03937007874
144
1.0
145
0.0
146
1.0
147
0.625
148
0.0
 69
0
 70
0
 71
0
 72
0
 73
0
 74
0
 75
0
 76
0
 77
1
 78
8
 79
3
170
0
171
3
172
1
173
0
174
0
175
0
176
0
177
0
178
0
179
2
271
2
272
2
273
2
274
3
275
0
276
0
277
2
278
44
279
0
280
0
281
0
282
0
283
0
284
8
285
0
286
0
288
0
289
3
290
0
371
-2
372
-2
  0
ENDTAB
  0
TABLE
  2
BLOCK_RECORD
  5
9
330
0
100
AcDbSymbolTable
 70
2
  0
BLOCK_RECORD
  5
17
330
9
100
AcDbSymbolTableRecord
100
AcDbBlockTableRecord
  2
*Model_Space
340
1A
 70
0
280
1
281
0
  0
BLOCK_RECORD
  5
1B
330
9
100
AcDbSymbolTableRecord
100
AcDbBlockTableRecord
  2
*Paper_Space
340
1E
 70
0
280
1
281
0
  0
ENDTAB
  0
ENDSEC
  0
SECTION
  2
BLOCKS
  0
BLOCK
  5
18
330
17
100
AcDbEntity
  8
0
100
AcDbBlockBegin
  2
*Model_Space
 70
0
 10
0.0
 20
0.0
 30
0.0
  3
*Model_Space
  1

  0
ENDBLK
  5
19
330
17
100
AcDbEntity
  8
0
100
AcDbBlockEnd
  0
BLOCK
  5
1C
330
1B
100
AcDbEntity
  8
0
100
AcDbBlockBegin
  2
*Paper_Space
 70
0
 10
0.0
 20
0.0
 30
0.0
  3
*Paper_Space
  1

  0
ENDBLK
  5
1D
330
1B
100
AcDbEntity
  8
0
100
AcDbBlockEnd
  0
ENDSEC
  0
SECTION
  2
ENTITIES
  0
LINE
  5
2F
330
17
100
AcDbEntity
  8
0
100
AcDbLine
 10
-0.11333018872717204
 20
-29.300416837017025
 30
-3.552713678800501e-15
 11
-2.684424599783089
 21
-29.188160430723514
 31
-3.552713678800501e-15
  0
LINE
  5
30
330
17
100
AcDbEntity
  8
0
100
AcDbLine
 10
2.4577642223287484
 20
-29.188160430723514
 30
-3.552713678800501e-15
 11
-0.11333018872717204
 21
-29.300416837017025
 31
-3.552713678800501e-15
  0
LINE
  5
31
330
17
100
AcDbEntity
  8
0
100
AcDbLine
 10
5.009291052447274
 20
-28.852245550877157
 30
-3.552713678800501e-15
 11
2.4577642223287484
 21
-29.188160430723514
 31
-3.552713678800501e-15
  0
LINE
  5
32
330
17
100
AcDbEntity
  8
0
100
AcDbLine
 10
7.521831641797188
 20
-28.295228712544542
 30
-3.552713678800501e-15
 11
5.009291052447274
 21
-28.852245550877157
 31
-3.552713678800501e-15
  0
LINE
  5
33
330
17
100
AcDbEntity
  8
0
100
AcDbLine
 10
9.976264039380052
 20
-27.52134915020133
 30
-3.552713678800501e-15
 11
7.521831641797188
 21
-28.295228712544542
 31
-3.552713678800501e-15
  0
LINE
  5
34
330
17
100
AcDbEntity
  8
0
100
AcDbLine
 10
12.353908532623478
 20
-26.536496554598187
 30
-3.552713678800501e-15
 11
9.976264039380052
 21
-27.52134915020133
 31
-3.552713678800501e-15
  0
LINE
  5
35
330
17
100
AcDbEntity
  8
0
100
AcDbLine
 10
14.636669811272817
 20
-25.348166248657975
 30
-3.552713678800501e-15
 11
12.353908532623478
 21
-26.536496554598187
 31
-3.552713678800501e-15
  0
LINE
  5
36
330
17
100
AcDbEntity
  8
0
100
AcDbLine
 10
13.078927847346897
 20
-18.640913855663825
 30
-3.552713678800501e-15
 11
14.636669811272817
 21
-25.348166248657975
 31
-3.552713678800501e-15
  0
LINE
  5
37
330
17
100
AcDbEntity
  8
0
100
AcDbLine
 10
14.670784834063237
 20
-17.419439028753516
 30
-3.552713678800501e-15
 11
13.078927847346897
 21
-18.640913855663825
 31
-3.552713678800501e-15
  0
LINE
  5
38
330
17
100
AcDbEntity
  8
0
100
AcDbLine
 10
16.150125778563424
 20
-16.063872804307607
 30
-3.552713678800501e-15
 11
14.670784834063237
 21
-17.419439028753516
 31
-3.552713678800501e-15
  0
LINE
  5
39
330
17
100
AcDbEntity
  8
0
100
AcDbLine
 10
17.505692003009326
 20
-14.584531859807427
 30
-3.552713678800501e-15
 11
16.150125778563424
 21
-16.063872804307607
 31
-3.552713678800501e-15
  0
LINE
  5
3A
330
17
100
AcDbEntity
  8
0
100
AcDbLine
 10
18.72716682991964
 20
-12.99267487309109
 30
-3.552713678800501e-15
 11
17.505692003009326
 21
-14.584531859807427
 31
-3.552713678800501e-15
  0
LINE
  5
3B
330
17
100
AcDbEntity
  8
0
100
AcDbLine
 10
19.805254098314926
 20
-11.30041683701701
 30
-3.552713678800501e-15
 11
18.72716682991964
 21
-12.99267487309109
 31
-3.552713678800501e-15
  0
LINE
  5
3C
330
17
100
AcDbEntity
  8
0
100
AcDbLine
 10
20.731748913115783
 20
-9.520636857053091
 30
-3.552713678800501e-15
 11
19.805254098314926
 21
-11.30041683701701
 31
-3.552713678800501e-15
  0
LINE
  5
3D
330
17
100
AcDbEntity
  8
0
100
AcDbLine
 10
21.499600089348718
 20
-7.666880133507405
 30
-3.552713678800501e-15
 11
20.731748913115783
 21
-9.520636857053091
 31
-3.552713678800501e-15
  0
LINE
  5
3E
330
17
100
AcDbEntity
  8
0
100
AcDbLine
 10
22.102963815921402
 20
-5.7532548743749885
 30
-3.552713678800501e-15
 11
21.499600089348718
 21
-7.666880133507405
 31
-3.552713678800501e-15
  0
LINE
  5
3F
330
17
100
AcDbEntity
  8
0
100
AcDbLine
 10
22.537248130553614
 20
-3.794324923356413
 30
-3.552713678800501e-15
 11
22.102963815921402
 21
-5.7532548743749885
 31
-3.552713678800501e-15
  0
LINE
  5
40
330
17
100
AcDbEntity
  8
0
100
AcDbLine
 10
22.799147867382974
 20
-1.8049989202131513
 30
-3.552713678800501e-15
 11
22.537248130553614
 21
-3.794324923356413
 31
-3.552713678800501e-15
  0
LINE
  5
41
330
17
100
AcDbEntity
  8
0
100
AcDbLine
 10
22.886669811272828
 20
0.19958316298297518
 30
-3.552713678800501e-15
 11
22.799147867382974
 21
-1.8049989202131513
 31
-3.552713678800501e-15
  0
LINE
  5
42
330
17
100
AcDbEntity
  8
0
100
AcDbLine
 10
22.799147867382974
 20
2.204165246179116
 30
-3.552713678800501e-15
 11
22.886669811272828
 21
0.19958316298297518
 31
-3.552713678800501e-15
  0
LINE
  5
43
330
17
100
AcDbEntity
  8
0
100
AcDbLine
 10
22.537248130553614
 20
4.193491249322378
 30
-3.552713678800501e-15
 11
22.799147867382974
 21
2.204165246179116
 31
-3.552713678800501e-15
  0
LINE
  5
44
330
17
100
AcDbEntity
  8
0
100
AcDbLine
 10
22.1029638159214
 20
6.152421200340953
 30
-3.552713678800501e-15
 11
22.537248130553614
 21
4.193491249322378
 31
-3.552713678800501e-15
  0
LINE
  5
45
330
17
100
AcDbEntity
  8
0
100
AcDbLine
 10
21.49960008934872
 20
8.066046459473355
 30
-3.552713678800501e-15
 11
22.1029638159214
 21
6.152421200340953
 31
-3.552713678800501e-15
  0
LINE
  5
46
330
17
100
AcDbEntity
  8
0
100
AcDbLine
 10
20.731748913115773
 20
9.91980318301907
 30
-3.552713678800501e-15
 11
21.49960008934872
 21
8.066046459473355
 31
-3.552713678800501e-15
  0
LINE
  5
47
330
17
100
AcDbEntity
  8
0
100
AcDbLine
 10
19.80525409831491
 20
11.69958316298299
 30
-3.552713678800501e-15
 11
20.731748913115773
 21
9.91980318301907
 31
-3.552713678800501e-15
  0
LINE
  5
48
330
17
100
AcDbEntity
  8
0
100
AcDbLine
 10
18.727166829919646
 20
13.391841199057026
 30
-3.552713678800501e-15
 11
19.80525409831491
 21
11.69958316298299
 31
-3.552713678800501e-15
  0
LINE
  5
49
330
17
100
AcDbEntity
  8
0
100
AcDbLine
 10
17.50569200300932
 20
14.983698185773378
 30
-3.552713678800501e-15
 11
18.727166829919646
 21
13.391841199057026
 31
-3.552713678800501e-15
  0
LINE
  5
4A
330
17
100
AcDbEntity
  8
0
100
AcDbLine
 10
16.15012577856342
 20
16.46303913027357
 30
-3.552713678800501e-15
 11
17.50569200300932
 21
14.983698185773378
 31
-3.552713678800501e-15
  0
LINE
  5
4B
330
17
100
AcDbEntity
  8
0
100
AcDbLine
 10
14.670784834063223
 20
17.81860535471948
 30
-3.552713678800501e-15
 11
16.15012577856342
 21
16.46303913027357
 31
-3.552713678800501e-15
  0
LINE
  5
4C
330
17
100
AcDbEntity
  8
0
100
AcDbLine
 10
13.078927847346883
 20
19.04008018162979
 30
-3.552713678800501e-15
 11
14.670784834063223
 21
17.81860535471948
 31
-3.552713678800501e-15
  0
LINE
  5
4D
330
17
100
AcDbEntity
  8
0
100
AcDbLine
 10
11.386669811272828
 20
20.118167450025055
 30
-3.552713678800501e-15
 11
13.078927847346883
 21
19.04008018162979
 31
-3.552713678800501e-15
  0
LINE
  5
4E
330
17
100
AcDbEntity
  8
0
100
AcDbLine
 10
12.353908532623446
 20
26.935662880564166
 30
-3.552713678800501e-15
 11
11.386669811272828
 21
20.118167450025055
 31
-3.552713678800501e-15
  0
LINE
  5
4F
330
17
100
AcDbEntity
  8
0
100
AcDbLine
 10
9.976264039380052
 20
27.92051547616728
 30
-3.552713678800501e-15
 11
12.353908532623446
 21
26.935662880564166
 31
-3.552713678800501e-15
  0
LINE
  5
50
330
17
100
AcDbEntity
  8
0
100
AcDbLine
 10
7.521831641797178
 20
28.694395038510493
 30
-3.552713678800501e-15
 11
9.976264039380052
 21
27.92051547616728
 31
-3.552713678800501e-15
  0
LINE
  5
51
330
17
100
AcDbEntity
  8
0
100
AcDbLine
 10
5.009291052447264
 20
29.25141187684312
 30
-3.552713678800501e-15
 11
7.521831641797178
 21
28.694395038510493
 31
-3.552713678800501e-15
  0
LINE
  5
52
330
17
100
AcDbEntity
  8
0
100
AcDbLine
 10
2.4577642223287377
 20
29.587326756689464
 30
-3.552713678800501e-15
 11
5.009291052447264
 21
29.25141187684312
 31
-3.552713678800501e-15
  0
LINE
  5
53
330
17
100
AcDbEntity
  8
0
100
AcDbLine
 10
-0.11333018872717915
 20
29.699583162982975
 30
-3.552713678800501e-15
 11
2.4577642223287377
 21
29.587326756689464
 31
-3.552713678800501e-15
  0
LINE
  5
54
330
17
100
AcDbEntity
  8
0
100
AcDbLine
 10
-2.684424599783089
 20
29.587326756689464
 30
-3.552713678800501e-15
 11
-0.11333018872717915
 21
29.699583162982975
 31
-3.552713678800501e-15
  0
LINE
  5
55
330
17
100
AcDbEntity
  8
0
100
AcDbLine
 10
-5.235951429901615
 20
29.251411876843108
 30
-3.552713678800501e-15
 11
-2.684424599783089
 21
29.587326756689464
 31
-3.552713678800501e-15
  0
LINE
  5
56
330
17
100
AcDbEntity
  8
0
100
AcDbLine
 10
-7.748492019251525
 20
28.694395038510493
 30
-3.552713678800501e-15
 11
-5.235951429901615
 21
29.251411876843108
 31
-3.552713678800501e-15
  0
LINE
  5
57
330
17
100
AcDbEntity
  8
0
100
AcDbLine
 10
-10.202924416834403
 20
27.920515476167267
 30
-3.552713678800501e-15
 11
-7.748492019251525
 21
28.694395038510493
 31
-3.552713678800501e-15
  0
LINE
  5
58
330
17
100
AcDbEntity
  8
0
100
AcDbLine
 10
-12.580568910077805
 20
26.935662880564152
 30
-3.552713678800501e-15
 11
-10.202924416834403
 21
27.920515476167267
 31
-3.552713678800501e-15
  0
LINE
  5
59
330
17
100
AcDbEntity
  8
0
100
AcDbLine
 10
-11.61333018872718
 20
20.118167450025055
 30
-3.552713678800501e-15
 11
-12.580568910077805
 21
26.935662880564152
 31
-3.552713678800501e-15
  0
LINE
  5
5A
330
17
100
AcDbEntity
  8
0
100
AcDbLine
 10
-13.30558822480123
 20
19.04008018162979
 30
-3.552713678800501e-15
 11
-11.61333018872718
 21
20.118167450025055
 31
-3.552713678800501e-15
  0
LINE
  5
5B
330
17
100
AcDbEntity
  8
0
100
AcDbLine
 10
-14.897445211517581
 20
17.818605354719466
 30
-3.552713678800501e-15
 11
-13.30558822480123
 21
19.04008018162979
 31
-3.552713678800501e-15
  0
LINE
  5
5C
330
17
100
AcDbEntity
  8
0
100
AcDbLine
 10
-16.37678615601777
 20
16.46303913027357
 30
-3.552713678800501e-15
 11
-14.897445211517581
 21
17.818605354719466
 31
-3.552713678800501e-15
  0
LINE
  5
5D
330
17
100
AcDbEntity
  8
0
100
AcDbLine
 10
-17.732352380463663
 20
14.983698185773378
 30
-3.552713678800501e-15
 11
-16.37678615601777
 21
16.46303913027357
 31
-3.552713678800501e-15
  0
LINE
  5
5E
330
17
100
AcDbEntity
  8
0
100
AcDbLine
 10
-18.95382720737398
 20
13.39184119905704
 30
-3.552713678800501e-15
 11
-17.732352380463663
 21
14.983698185773378
 31
-3.552713678800501e-15
  0
LINE
  5
5F
330
17
100
AcDbEntity
  8
0
100
AcDbLine
 10
-20.031914475769266
 20
11.699583162982975
 30
-3.552713678800501e-15
 11
-18.95382720737398
 21
13.39184119905704
 31
-3.552713678800501e-15
  0
LINE
  5
60
330
17
100
AcDbEntity
  8
0
100
AcDbLine
 10
-20.958409290570128
 20
9.919803183019056
 30
-3.552713678800501e-15
 11
-20.031914475769266
 21
11.699583162982975
 31
-3.552713678800501e-15
  0
LINE
  5
61
330
17
100
AcDbEntity
  8
0
100
AcDbLine
 10
-21.726260466803065
 20
8.066046459473355
 30
-3.552713678800501e-15
 11
-20.958409290570128
 21
9.919803183019056
 31
-3.552713678800501e-15
  0
LINE
  5
62
330
17
100
AcDbEntity
  8
0
100
AcDbLine
 10
-22.329624193375746
 20
6.152421200340953
 30
-3.552713678800501e-15
 11
-21.726260466803065
 21
8.066046459473355
 31
-3.552713678800501e-15
  0
LINE
  5
63
330
17
100
AcDbEntity
  8
0
100
AcDbLine
 10
-22.763908508007955
 20
4.193491249322378
 30
-3.552713678800501e-15
 11
-22.329624193375746
 21
6.152421200340953
 31
-3.552713678800501e-15
  0
LINE
  5
64
330
17
100
AcDbEntity
  8
0
100
AcDbLine
 10
-23.025808244837318
 20
2.204165246179116
 30
-3.552713678800501e-15
 11
-22.763908508007955
 21
4.193491249322378
 31
-3.552713678800501e-15
  0
LINE
  5
65
330
17
100
AcDbEntity
  8
0
100
AcDbLine
 10
-23.113330188727172
 20
0.19958316298297518
 30
-3.552713678800501e-15
 11
-23.025808244837318
 21
2.204165246179116
 31
-3.552713678800501e-15
  0
LINE
  5
66
330
17
100
AcDbEntity
  8
0
100
AcDbLine
 10
-23.025808244837318
 20
-1.8049989202131655
 30
-3.552713678800501e-15
 11
-23.113330188727172
 21
0.19958316298297518
 31
-3.552713678800501e-15
  0
LINE
  5
67
330
17
100
AcDbEntity
  8
0
100
AcDbLine
 10
-22.763908508007955
 20
-3.7943249233564273
 30
-3.552713678800501e-15
 11
-23.025808244837318
 21
-1.8049989202131655
 31
-3.552713678800501e-15
  0
LINE
  5
68
330
17
100
AcDbEntity
  8
0
100
AcDbLine
 10
-22.32962419337574
 20
-5.753254874375003
 30
-3.552713678800501e-15
 11
-22.763908508007955
 21
-3.7943249233564273
 31
-3.552713678800501e-15
  0
LINE
  5
69
330
17
100
AcDbEntity
  8
0
100
AcDbLine
 10
-21.726260466803065
 20
-7.666880133507405
 30
-3.552713678800501e-15
 11
-22.32962419337574
 21
-5.753254874375003
 31
-3.552713678800501e-15
  0
LINE
  5
6A
330
17
100
AcDbEntity
  8
0
100
AcDbLine
 10
-20.95840929057012
 20
-9.52063685705312
 30
-3.552713678800501e-15
 11
-21.726260466803065
 21
-7.666880133507405
 31
-3.552713678800501e-15
  0
LINE
  5
6B
330
17
100
AcDbEntity
  8
0
100
AcDbLine
 10
-20.03191447576926
 20
-11.300416837017025
 30
-3.552713678800501e-15
 11
-20.95840929057012
 21
-9.52063685705312
 31
-3.552713678800501e-15
  0
LINE
  5
6C
330
17
100
AcDbEntity
  8
0
100
AcDbLine
 10
-18.95382720737398
 20
-12.99267487309109
 30
-3.552713678800501e-15
 11
-20.03191447576926
 21
-11.300416837017025
 31
-3.552713678800501e-15
  0
LINE
  5
6D
330
17
100
AcDbEntity
  8
0
100
AcDbLine
 10
-17.732352380463663
 20
-14.584531859807427
 30
-3.552713678800501e-15
 11
-18.95382720737398
 21
-12.99267487309109
 31
-3.552713678800501e-15
  0
LINE
  5
6E
330
17
100
AcDbEntity
  8
0
100
AcDbLine
 10
-16.37678615601777
 20
-16.06387280430762
 30
-3.552713678800501e-15
 11
-17.732352380463663
 21
-14.584531859807427
 31
-3.552713678800501e-15
  0
LINE
  5
6F
330
17
100
AcDbEntity
  8
0
100
AcDbLine
 10
-14.897445211517574
 20
-17.419439028753516
 30
-3.552713678800501e-15
 11
-16.37678615601777
 21
-16.06387280430762
 31
-3.552713678800501e-15
  0
LINE
  5
70
330
17
100
AcDbEntity
  8
0
100
AcDbLine
 10
-13.30558822480123
 20
-18.64091385566384
 30
-3.552713678800501e-15
 11
-14.897445211517574
 21
-17.419439028753516
 31
-3.552713678800501e-15
  0
LINE
  5
71
330
17
100
AcDbEntity
  8
0
100
AcDbLine
 10
-11.613330188727172
 20
-19.71900112405912
 30
-3.552713678800501e-15
 11
-13.30558822480123
 21
-18.64091385566384
 31
-3.552713678800501e-15
  0
LINE
  5
72
330
17
100
AcDbEntity
  8
0
100
AcDbLine
 10
-12.580568910077805
 20
-26.5364965545982
 30
-3.552713678800501e-15
 11
-11.613330188727172
 21
-19.71900112405912
 31
-3.552713678800501e-15
  0
LINE
  5
73
330
17
100
AcDbEntity
  8
0
100
AcDbLine
 10
-10.202924416834403
 20
-27.52134915020133
 30
-3.552713678800501e-15
 11
-12.580568910077805
 21
-26.5364965545982
 31
-3.552713678800501e-15
  0
LINE
  5
74
330
17
100
AcDbEntity
  8
0
100
AcDbLine
 10
-7.7484920192515325
 20
-28.295228712544542
 30
-3.552713678800501e-15
 11
-10.202924416834403
 21
-27.52134915020133
 31
-3.552713678800501e-15
  0
LINE
  5
75
330
17
100
AcDbEntity
  8
0
100
AcDbLine
 10
-5.235951429901615
 20
-28.852245550877157
 30
-3.552713678800501e-15
 11
-7.7484920192515325
 21
-28.295228712544542
 31
-3.552713678800501e-15
  0
LINE
  5
76
330
17
100
AcDbEntity
  8
0
100
AcDbLine
 10
-2.684424599783089
 20
-29.188160430723514
 30
-3.552713678800501e-15
 11
-5.235951429901615
 21
-28.852245550877157
 31
-3.552713678800501e-15
  0
CIRCLE
  5
77
330
17
100
AcDbEntity
  8
0
100
AcDbCircle
 10
9.079057966697949
 20
-8.992804992442146
 30
-3.552713678800501e-15
 40
1.7
  0
CIRCLE
  5
78
330
17
100
AcDbEntity
  8
0
100
AcDbCircle
 10
-9.305718344152293
 20
-8.992804992442146
 30
-3.552713678800501e-15
 40
1.7
  0
CIRCLE
  5
79
330
17
100
AcDbEntity
  8
0
100
AcDbCircle
 10
17.386669811272828
 20
0.19958316298297518
 30
-3.552713678800501e-15
 40
4.0
  0
CIRCLE
  5
7A
330
17
100
AcDbEntity
  8
0
100
AcDbCircle
 10
9.079057966697945
 20
9.391971318408096
 30
-3.552713678800501e-15
 40
1.7
  0
CIRCLE
  5
7B
330
17
100
AcDbEntity
  8
0
100
AcDbCircle
 10
-0.11333018872717204
 20
0.19958316298297518
 30
-3.552713678800501e-15
 40
7.0
  0
CIRCLE
  5
7C
330
17
100
AcDbEntity
  8
0
100
AcDbCircle
 10
-17.613330188727172
 20
0.19958316298297518
 30
-3.552713678800501e-15
 40
4.0
  0
CIRCLE
  5
7D
330
17
100
AcDbEntity
  8
0
100
AcDbCircle
 10
-9.305718344152293
 20
9.391971318408096
 30
-3.552713678800501e-15
 40
1.7
  0
ENDSEC
  0
SECTION
  2
OBJECTS
  0
DICTIONARY
  5
A
330
0
100
AcDbDictionary
281
1
  3
ACAD_COLOR
350
B
  3
ACAD_GROUP
350
C
  3
ACAD_LAYOUT
350
D
  3
ACAD_MATERIAL
350
E
  3
ACAD_MLEADERSTYLE
350
F
  3
ACAD_MLINESTYLE
350
10
  3
ACAD_PLOTSETTINGS
350
11
  3
ACAD_PLOTSTYLENAME
350
12
  3
ACAD_SCALELIST
350
14
  3
ACAD_TABLESTYLE
350
15
  3
ACAD_VISUALSTYLE
350
16
  3
EZDXF_META
350
2D
  0
DICTIONARY
  5
B
330
A
100
AcDbDictionary
281
1
  0
DICTIONARY
  5
C
330
A
100
AcDbDictionary
281
1
  0
DICTIONARY
  5
D
330
A
100
AcDbDictionary
281
1
  3
Model
350
1A
  3
Layout1
350
1E
  0
DICTIONARY
  5
E
330
A
100
AcDbDictionary
281
1
  3
ByBlock
350
1F
  3
ByLayer
350
20
  3
Global
350
21
  0
DICTIONARY
  5
F
330
A
100
AcDbDictionary
281
1
  3
Standard
350
2C
  0
DICTIONARY
  5
10
330
A
100
AcDbDictionary
281
1
  3
Standard
350
22
  0
DICTIONARY
  5
11
330
A
100
AcDbDictionary
281
1
  0
ACDBDICTIONARYWDFLT
  5
12
330
A
100
AcDbDictionary
281
1
  3
Normal
350
13
100
AcDbDictionaryWithDefault
340
13
  0
ACDBPLACEHOLDER
  5
13
330
12
  0
DICTIONARY
  5
14
330
A
100
AcDbDictionary
281
1
  0
DICTIONARY
  5
15
330
A
100
AcDbDictionary
281
1
  0
DICTIONARY
  5
16
330
A
100
AcDbDictionary
281
1
  0
LAYOUT
  5
1A
330
D
100
AcDbPlotSettings
  1

  4
A3
  6

 40
7.5
 41
20.0
 42
7.5
 43
20.0
 44
420.0
 45
297.0
 46
0.0
 47
0.0
 48
0.0
 49
0.0
140
0.0
141
0.0
142
1.0
143
1.0
 70
1024
 72
1
 73
0
 74
5
  7

 75
16
 76
0
 77
2
 78
300
147
1.0
148
0.0
149
0.0
100
AcDbLayout
  1
Model
 70
1
 71
0
 10
0.0
 20
0.0
 11
420.0
 21
297.0
 12
0.0
 22
0.0
 32
0.0
 14
1e+20
 24
1e+20
 34
1e+20
 15
-1e+20
 25
-1e+20
 35
-1e+20
146
0.0
 13
0.0
 23
0.0
 33
0.0
 16
1.0
 26
0.0
 36
0.0
 17
0.0
 27
1.0
 37
0.0
 76
1
330
17
  0
LAYOUT
  5
1E
330
D
100
AcDbPlotSettings
  1

  4
A3
  6

 40
7.5
 41
20.0
 42
7.5
 43
20.0
 44
420.0
 45
297.0
 46
0.0
 47
0.0
 48
0.0
 49
0.0
140
0.0
141
0.0
142
1.0
143
1.0
 70
0
 72
1
 73
0
 74
5
  7

 75
16
 76
0
 77
2
 78
300
147
1.0
148
0.0
149
0.0
100
AcDbLayout
  1
Layout1
 70
1
 71
1
 10
0.0
 20
0.0
 11
420.0
 21
297.0
 12
0.0
 22
0.0
 32
0.0
 14
1e+20
 24
1e+20
 34
1e+20
 15
-1e+20
 25
-1e+20
 35
-1e+20
146
0.0
 13
0.0
 23
0.0
 33
0.0
 16
1.0
 26
0.0
 36
0.0
 17
0.0
 27
1.0
 37
0.0
 76
1
330
1B
  0
MATERIAL
  5
1F
102
{ACAD_REACTORS
330
E
102
}
330
E
100
AcDbMaterial
  1
ByBlock
  2

 70
0
 40
1.0
 71
1
 41
1.0
 91
-1023410177
 42
1.0
 72
1
  3

 73
1
 74
1
 75
1
 44
0.5
 73
0
 45
1.0
 46
1.0
 77
1
  4

 78
1
 79
1
170
1
 48
1.0
171
1
  6

172
1
173
1
174
1
140
1.0
141
1.0
175
1
  7

176
1
177
1
178
1
143
1.0
179
1
  8

270
1
271
1
272
1
145
1.0
146
1.0
273
1
  9

274
1
275
1
276
1
 42
1.0
 72
1
  3

 73
1
 74
1
 75
1
 94
63
  0
MATERIAL
  5
20
102
{ACAD_REACTORS
330
E
102
}
330
E
100
AcDbMaterial
  1
ByLayer
  2

 70
0
 40
1.0
 71
1
 41
1.0
 91
-1023410177
 42
1.0
 72
1
  3

 73
1
 74
1
 75
1
 44
0.5
 73
0
 45
1.0
 46
1.0
 77
1
  4

 78
1
 79
1
170
1
 48
1.0
171
1
  6

172
1
173
1
174
1
140
1.0
141
1.0
175
1
  7

176
1
177
1
178
1
143
1.0
179
1
  8

270
1
271
1
272
1
145
1.0
146
1.0
273
1
  9

274
1
275
1
276
1
 42
1.0
 72
1
  3

 73
1
 74
1
 75
1
 94
63
  0
MATERIAL
  5
21
102
{ACAD_REACTORS
330
E
102
}
330
E
100
AcDbMaterial
  1
Global
  2

 70
0
 40
1.0
 71
1
 41
1.0
 91
-1023410177
 42
1.0
 72
1
  3

 73
1
 74
1
 75
1
 44
0.5
 73
0
 45
1.0
 46
1.0
 77
1
  4

 78
1
 79
1
170
1
 48
1.0
171
1
  6

172
1
173
1
174
1
140
1.0
141
1.0
175
1
  7

176
1
177
1
178
1
143
1.0
179
1
  8

270
1
271
1
272
1
145
1.0
146
1.0
273
1
  9

274
1
275
1
276
1
 42
1.0
 72
1
  3

 73
1
 74
1
 75
1
 94
63
  0
MLINESTYLE
  5
22
102
{ACAD_REACTORS
330
10
102
}
330
10
100
AcDbMlineStyle
  2
Standard
 70
0
  3

 62
256
 51
90.0
 52
90.0
 71
2
 49
0.5
 62
256
  6
BYLAYER
 49
-0.5
 62
256
  6
BYLAYER
  0
MLEADERSTYLE
  5
2C
102
{ACAD_REACTORS
330
F
102
}
330
F
100
AcDbMLeaderStyle
179
2
170
2
171
1
172
0
 90
2
 40
0.0
 41
0.0
173
1
 91
-1056964608
 92
-2
290
1
 42
2.0
291
1
 43
8.0
  3
Standard
 44
4.0
300

342
29
174
1
175
1
176
0
178
1
 93
-1056964608
 45
4.0
292
0
297
0
 46
4.0
 94
-1056964608
 47
1.0
 49
1.0
140
1.0
294
1
141
0.0
177
0
142
1.0
295
0
296
0
143
3.75
271
0
272
9
273
9
  0
DICTIONARY
  5
2D
330
A
100
AcDbDictionary
280
1
281
1
  3
CREATED_BY_EZDXF
350
2E
  3
WRITTEN_BY_EZDXF
350
81
  0
DICTIONARYVAR
  5
2E
330
2D
100
DictionaryVariables
280
0
  1
1.4.4 @ 2026-10-08T04:41:16.024305+00:00
  0
DICTIONARYVAR
  5
81
330
2D
100
DictionaryVariables
280
0
  1
1.4.4 @ 2026-10-08T04:41:16.030105+00:00
  0
ENDSEC
  0
EOF
