0
SECTION
2
HEADER
9
$INSUNITS
70
4
9
$ACADVER
1
AC1014
9
$HANDSEED
5
FFFF
0
ENDSEC
0
SECTION
2
TABLES
0
TABLE
2
VPORT
5
8
100
AcDbSymbolTable
0
ENDTAB
0
TABLE
2
LTYPE
5
5
100
AcDbSymbolTable
0
LTYPE
5
14
100
AcDbSymbolTableRecord
100
AcDbLinetypeTableRecord
2
BYBLOCK
70
0
0
LTYPE
5
15
100
AcDbSymbolTableRecord
100
AcDbLinetypeTableRecord
2
BYLAYER
70
0
0
LTYPE
5
16
100
AcDbSymbolTableRecord
100
AcDbLinetypeTableRecord
2
DASHED
70
0
3
Dashed __ __ __ __ __ __ __ __ __ __ __ __ __ _
72
65
73
2
40
0.75
49
0.5
74
0
49
-0.25
74
0
0
ENDTAB
0
TABLE
2
LAYER
5
2
100
AcDbSymbolTable
70
2
0
LAYER
5
50
100
AcDbSymbolTableRecord
100
AcDbLayerTableRecord
2
0
70
0
62
7
6
CONTINUOUS
0
ENDTAB
0
TABLE
2
STYLE
5
3
100
AcDbSymbolTable
70
1
0
STYLE
5
11
100
AcDbSymbolTableRecord
100
AcDbTextStyleTableRecord
2
STANDARD
70
0
0
ENDTAB
0
TABLE
2
VIEW
5
6
100
AcDbSymbolTable
70
0
0
ENDTAB
0
TABLE
2
UCS
5
7
100
AcDbSymbolTable
70
0
0
ENDTAB
0
TABLE
2
APPID
5
9
100
AcDbSymbolTable
70
2
0
APPID
5
12
100
AcDbSymbolTableRecord
100
AcDbRegAppTableRecord
2
ACAD
70
0
0
ENDTAB
0
TABLE
2
DIMSTYLE
5
A
100
AcDbSymbolTable
70
1
0
ENDTAB
0
TABLE
2
BLOCK_RECORD
5
1
100
AcDbSymbolTable
70
1
0
BLOCK_RECORD
5
1F
100
AcDbSymbolTableRecord
100
AcDbBlockTableRecord
2
*MODEL_SPACE
0
BLOCK_RECORD
5
1B
100
AcDbSymbolTableRecord
100
AcDbBlockTableRecord
2
*PAPER_SPACE
0
ENDTAB
0
ENDSEC
0
SECTION
2
BLOCKS
0
BLOCK
5
20
100
AcDbEntity
100
AcDbBlockBegin
2
*MODEL_SPACE
0
ENDBLK
5
21
100
AcDbEntity
100
AcDbBlockEnd
0
BLOCK
5
1C
100
AcDbEntity
100
AcDbBlockBegin
2
*PAPER_SPACE
0
ENDBLK
5
1D
100
AcDbEntity
100
AcDbBlockEnd
0
ENDSEC
0
SECTION
2
ENTITIES
0
CIRCLE
5
100
100
AcDbEntity
8
0
100
AcDbCircle
10
104.19238815542512
20
22.807611844574879
30
0
40
1.6999999999999993
210
0
220
0
230
1
0
CIRCLE
5
101
100
AcDbEntity
8
0
100
AcDbCircle
10
95
20
14.5
30
0
40
4.0000000000000036
210
0
220
0
230
1
0
CIRCLE
5
102
100
AcDbEntity
8
0
100
AcDbCircle
10
95
20
32
30
0
40
6.999999999999992
210
0
220
0
230
1
0
CIRCLE
5
103
100
AcDbEntity
8
0
100
AcDbCircle
10
104.19238815542512
20
41.192388155425121
30
0
40
1.6999999999999993
210
0
220
0
230
1
0
CIRCLE
5
104
100
AcDbEntity
8
0
100
AcDbCircle
10
95
20
49.5
30
0
40
4.0000000000000036
210
0
220
0
230
1
0
CIRCLE
5
105
100
AcDbEntity
8
0
100
AcDbCircle
10
85.807611844574879
20
22.807611844574886
30
0
40
1.6999999999999993
210
0
220
0
230
1
0
CIRCLE
5
106
100
AcDbEntity
8
0
100
AcDbCircle
10
85.807611844574879
20
41.192388155425121
30
0
40
1.6999999999999993
210
0
220
0
230
1
0
LWPOLYLINE
5
107
100
AcDbEntity
8
0
100
AcDbPolyline
90
72
70
1
43
0.0
10
124.38774359370649
20
29.42890558894408
10
124.5
20
32
10
124.38774359370649
20
34.571094411055917
10
124.05182871386015
20
37.122621241174443
10
123.49481187552752
20
39.63516183052436
10
122.72093231318431
20
42.089594228107231
10
121.73607971758118
20
44.467238721350633
10
114.91858428704208
20
43.5
10
113.84049701864681
20
45.192258036074058
10
112.61902219173649
20
46.784115022790402
10
111.2634559672906
20
48.263455967290597
10
109.78411502279042
20
49.619022191736491
10
108.19225803607407
20
50.840497018646801
10
106.5
20
51.918584287042087
10
104.72022002003609
20
52.845079101842948
10
102.86646329649038
20
53.612930278075893
10
100.95283803735798
20
54.216294004648574
10
98.993908086339403
20
54.650578319280783
10
97.004582083196141
20
54.912478056110146
10
95
20
55
10
92.995417916803859
20
54.912478056110146
10
91.006091913660597
20
54.650578319280783
10
89.047161962642022
20
54.216294004648574
10
87.13353670350962
20
53.612930278075893
10
85.279779979963905
20
52.845079101842956
10
83.5
20
51.918584287042094
10
81.807741963925935
20
50.840497018646801
10
80.215884977209583
20
49.619022191736491
10
78.736544032709403
20
48.263455967290597
10
77.380977808263509
20
46.784115022790409
10
76.159502981353185
20
45.192258036074058
10
75.08141571295792
20
43.500000000000007
10
68.263920282418823
20
44.467238721350633
10
67.279067686815708
20
42.089594228107231
10
66.505188124472483
20
39.635161830524353
10
65.948171286139868
20
37.122621241174443
10
65.612256406293511
20
34.571094411055917
10
65.5
20
32.000000000000007
10
65.612256406293511
20
29.42890558894409
10
65.948171286139853
20
26.877378758825564
10
66.505188124472483
20
24.36483816947565
10
67.279067686815694
20
21.910405771892776
10
68.263920282418809
20
19.532761278649382
10
75.08141571295792
20
20.5
10
76.159502981353185
20
18.807741963925945
10
77.380977808263495
20
17.215884977209605
10
78.736544032709403
20
15.736544032709407
10
80.215884977209583
20
14.380977808263509
10
81.807741963925935
20
13.159502981353182
10
83.499999999999972
20
12.081415712957916
10
85.279779979963905
20
11.154920898157055
10
87.13353670350962
20
10.387069721924107
10
89.047161962642022
20
9.7837059953514292
10
91.006091913660597
20
9.3494216807192139
10
92.995417916803859
20
9.087521943889854
10
95
20
9
10
97.004582083196141
20
9.087521943889854
10
98.993908086339388
20
9.3494216807192139
10
100.95283803735796
20
9.7837059953514256
10
102.86646329649038
20
10.38706972192411
10
104.72022002003607
20
11.154920898157044
10
106.49999999999999
20
12.081415712957902
10
108.19225803607407
20
13.159502981353189
10
109.78411502279042
20
14.380977808263502
10
111.26345596729058
20
15.736544032709403
10
112.61902219173649
20
17.215884977209591
10
113.8404970186468
20
18.807741963925931
10
120.54774941164095
20
17.250000000000011
10
121.73607971758116
20
19.53276127864935
10
122.72093231318431
20
21.910405771892776
10
123.49481187552752
20
24.36483816947564
10
124.05182871386015
20
26.87737875882555
0
ENDSEC
0
SECTION
2
OBJECTS
0
DICTIONARY
5
C
100
AcDbDictionary
3
ACAD_GROUP
350
D
3
ACAD_MLINESTYLE
350
17
0
DICTIONARY
5
D
100
AcDbDictionary
0
DICTIONARY
5
1A
330
C
100
AcDbDictionary
0
DICTIONARY
5
17
100
AcDbDictionary
0
ENDSEC
0
EOF
